{"glyphs":{"0":{"ha":667,"x_min":63,"x_max":632,"o":"m 340 -19 q 188 45 251 -19 q 94 210 125 110 q 63 419 63 311 q 94 636 63 532 q 191 808 125 740 q 354 875 257 875 q 506 810 443 875 q 601 646 569 746 q 632 439 632 546 q 601 222 632 328 q 503 49 569 117 q 340 -19 438 -19 m 364 17 q 480 130 442 17 q 518 414 518 243 q 496 619 518 522 q 431 776 474 715 q 328 836 388 836 q 214 726 250 836 q 178 444 178 617 q 199 238 178 336 q 263 78 221 139 q 364 17 304 17 z "},"1":{"ha":667,"x_min":128,"x_max":581,"o":"m 149 -4 q 133 1 139 -4 q 128 13 128 6 q 134 23 128 18 q 149 31 140 28 q 242 58 213 46 q 286 90 271 69 q 301 151 301 111 l 301 682 q 271 731 301 718 q 185 749 240 744 q 159 756 169 750 q 149 772 149 761 q 158 788 149 782 q 183 797 168 794 q 304 824 260 808 q 392 883 349 840 q 399 885 393 885 q 411 881 406 885 q 415 872 417 878 q 410 774 410 835 l 410 135 q 422 83 410 100 q 462 56 435 65 q 557 29 489 46 q 574 22 567 26 q 581 11 581 17 q 575 0 581 4 q 561 -4 569 -4 q 456 0 504 -4 q 357 3 392 3 q 253 -1 303 3 q 149 -4 186 -4 z "},"2":{"ha":667,"x_min":44,"x_max":654,"o":"m 526 -1 q 394 4 449 4 q 172 0 410 4 l 72 -3 q 56 6 67 -3 q 44 21 44 15 q 49 33 44 28 q 56 39 54 38 l 293 285 q 410 450 367 360 q 454 628 454 540 q 411 743 454 700 q 306 786 368 786 q 201 756 250 786 q 122 674 151 725 q 111 660 118 665 q 99 654 104 654 q 85 667 93 654 q 78 696 78 679 q 115 764 78 719 q 215 842 153 808 q 349 875 276 875 q 511 812 451 875 q 571 646 571 749 q 542 524 571 590 q 469 403 514 457 q 374 301 443 372 q 275 199 306 231 q 178 99 178 101 q 183 92 178 94 q 197 89 189 90 q 319 85 243 85 q 478 89 403 85 q 562 103 539 92 q 610 154 585 114 q 644 186 629 186 q 654 169 654 186 q 643 133 654 163 q 613 29 619 61 q 582 -4 606 -4 l 526 -1 z "},"3":{"ha":667,"x_min":69,"x_max":610,"o":"m 224 -53 q 156 -42 193 -53 q 94 -18 119 -32 q 69 7 69 -4 q 92 47 69 22 q 131 71 115 71 q 153 65 143 71 q 173 53 164 60 q 185 43 182 46 q 231 12 207 24 q 289 0 254 0 q 386 27 339 0 q 463 101 433 54 q 492 203 492 147 q 449 356 492 290 q 331 422 406 422 q 240 401 278 422 q 233 400 238 400 q 221 404 226 400 q 217 414 215 408 q 258 461 226 446 q 374 537 315 489 q 433 647 433 585 q 396 749 433 706 q 303 792 358 792 q 199 763 235 792 q 136 692 164 735 q 126 675 131 682 q 117 668 121 668 q 103 676 111 668 q 94 694 94 685 q 125 767 94 724 q 216 842 156 810 q 363 875 276 875 q 450 855 408 875 q 517 799 492 835 q 543 717 543 763 q 508 607 543 661 q 397 508 474 553 q 393 503 393 506 q 399 500 393 500 q 505 470 457 500 q 581 390 553 440 q 610 282 610 340 q 554 106 610 182 q 409 -12 499 29 q 224 -53 319 -53 z "},"4":{"ha":667,"x_min":26,"x_max":669,"o":"m 292 -4 q 275 1 283 -4 q 267 14 267 6 q 274 25 267 21 q 292 31 282 29 q 376 58 353 39 q 399 111 399 76 l 399 240 q 390 249 399 246 q 378 253 382 253 q 221 249 300 253 q 40 243 160 246 q 31 248 35 243 q 26 257 26 253 q 28 261 26 260 l 60 300 q 82 326 68 308 l 449 853 q 490 892 475 892 l 519 892 q 522 888 522 892 q 520 878 522 883 q 517 872 518 874 l 142 333 q 138 325 139 329 q 142 321 138 321 l 382 321 q 393 324 388 321 q 399 332 399 328 l 399 547 q 401 568 399 563 q 411 578 403 574 q 451 592 429 588 q 489 596 474 596 q 506 577 503 596 q 510 507 510 558 l 510 328 q 517 319 510 319 q 572 318 538 318 q 654 321 593 318 q 665 317 660 321 q 669 310 669 314 q 658 276 669 294 q 640 257 646 257 l 572 258 q 529 256 551 258 q 518 251 524 254 q 511 247 513 249 l 511 117 q 528 61 511 76 q 604 31 546 46 q 622 22 614 28 q 629 11 629 17 q 623 1 629 6 q 608 -4 617 -4 q 522 0 554 -4 q 451 3 481 3 q 374 0 418 3 q 292 -4 340 -4 z "},"5":{"ha":667,"x_min":100,"x_max":583,"o":"m 151 -53 q 116 -49 132 -53 q 100 -36 100 -44 q 118 -18 100 -26 q 150 -10 136 -10 q 327 28 254 -10 q 437 126 400 67 q 474 249 474 186 q 398 385 474 331 q 140 488 322 440 q 115 517 122 503 q 107 551 107 532 q 153 711 107 593 l 174 772 q 231 822 188 813 q 518 871 363 857 l 521 871 q 535 864 531 871 q 533 847 539 857 l 510 801 q 458 757 492 761 l 351 746 q 219 732 261 739 q 183 686 206 731 q 158 622 160 642 l 158 617 q 176 596 158 601 q 429 503 346 546 q 546 406 508 461 q 583 268 583 350 q 538 126 583 193 q 414 14 493 60 q 151 -53 296 -53 z "},"6":{"ha":667,"x_min":65,"x_max":635,"o":"m 350 -22 q 211 11 276 -22 q 106 110 146 44 q 65 268 65 175 q 118 501 65 403 q 233 663 171 600 q 396 796 301 732 q 604 890 490 860 q 613 892 607 892 q 626 888 621 892 q 629 881 632 883 q 593 853 621 865 q 432 760 499 811 q 313 633 365 708 q 225 466 265 565 q 185 271 185 367 q 216 142 186 197 q 292 59 246 88 q 386 31 339 31 q 486 74 446 31 q 526 197 526 117 q 490 312 526 263 q 400 361 454 361 q 338 357 363 361 q 289 340 313 353 q 279 338 281 338 q 274 343 274 338 q 279 356 274 347 q 317 389 296 374 q 377 419 336 404 q 453 435 418 435 q 542 413 500 435 q 610 351 585 390 q 635 264 635 313 q 593 115 635 181 q 485 14 551 50 q 350 -22 418 -22 z "},"7":{"ha":667,"x_min":50,"x_max":674,"o":"m 176 -44 q 147 -8 147 -44 q 176 49 147 -3 l 569 751 q 572 758 572 757 q 556 765 572 764 l 200 765 q 140 751 164 765 q 93 701 115 738 q 60 667 74 667 q 50 686 50 667 q 53 703 50 693 q 56 717 56 714 q 78 854 67 764 q 92 869 79 869 q 128 863 94 869 q 208 857 163 857 l 346 856 q 548 858 450 856 q 665 863 646 860 q 671 856 668 863 q 674 844 674 850 q 650 792 674 828 q 621 747 626 757 l 203 -7 q 176 -44 182 -44 z "},"8":{"ha":667,"x_min":90,"x_max":610,"o":"m 336 -19 q 215 8 272 -19 q 124 85 158 36 q 90 196 90 133 q 119 294 90 251 q 186 364 149 338 q 276 419 224 390 q 283 426 283 424 q 272 438 283 429 l 249 457 q 174 526 200 499 q 129 591 147 553 q 111 679 111 629 q 148 777 111 732 q 244 849 185 822 q 364 875 303 875 q 471 851 419 875 q 553 785 522 828 q 585 689 585 743 q 565 615 585 644 q 511 556 544 585 q 438 497 474 524 q 419 479 419 485 q 431 468 419 475 q 566 353 522 404 q 610 228 610 301 q 570 101 610 158 q 467 13 531 44 q 336 -19 404 -19 m 400 497 q 461 582 444 535 q 478 699 478 629 q 447 801 478 760 q 357 842 415 842 q 292 824 325 842 q 239 774 260 806 q 218 707 218 743 q 230 640 218 667 q 262 594 242 613 q 324 544 282 575 q 381 501 374 507 q 400 497 393 492 m 356 21 q 458 65 417 21 q 499 172 499 110 q 335 389 499 276 q 307 403 317 403 q 290 394 301 403 q 222 318 242 356 q 201 218 201 281 q 244 81 201 140 q 356 21 286 21 z "},"9":{"ha":667,"x_min":74,"x_max":643,"o":"m 93 -43 q 74 -32 74 -43 q 79 -22 74 -25 q 93 -18 85 -18 q 245 41 156 -18 q 401 186 335 100 q 497 356 468 272 q 525 540 525 439 q 497 673 525 607 q 424 781 469 739 q 331 824 379 824 q 257 800 288 824 q 210 741 226 776 q 194 669 194 706 q 215 588 194 628 q 268 522 235 547 q 338 496 301 496 q 385 502 367 496 q 421 517 404 508 q 449 532 438 526 l 450 532 q 458 526 456 532 q 458 517 461 521 q 413 468 444 492 q 356 438 392 453 q 285 422 319 422 q 192 445 236 422 q 119 508 147 468 q 90 597 90 549 q 128 726 90 661 q 231 832 165 790 q 376 874 296 874 q 504 828 442 874 q 605 708 567 782 q 643 556 643 633 q 594 332 643 432 q 443 121 544 232 q 273 0 372 43 q 93 -43 174 -43 z "},"\u0000":{"ha":0,"x_min":0,"x_max":0,"o":""},"\r":{"ha":278,"x_min":0,"x_max":0,"o":""}," ":{"ha":278,"x_min":0,"x_max":0,"o":""},"A":{"ha":961,"x_min":-3,"x_max":968,"o":"m 38 -7 q 8 -2 19 -7 q -3 11 -3 3 q 43 43 -3 29 q 113 78 83 56 q 163 150 142 101 q 291 458 236 319 q 422 803 346 596 q 442 883 438 846 q 462 890 446 885 q 492 904 478 894 q 509 929 503 913 q 518 951 515 946 q 522 952 519 953 q 525 950 524 951 q 530 935 528 943 q 535 919 532 926 q 782 178 638 596 q 840 74 808 101 q 922 39 872 47 q 956 26 944 35 q 968 7 968 17 q 928 -7 968 -7 l 853 -4 q 735 1 775 1 l 589 0 q 549 17 549 0 q 562 33 549 25 q 594 43 575 40 q 679 106 679 57 q 625 331 679 150 q 615 343 622 340 q 588 346 607 346 l 325 346 q 301 321 310 346 q 265 205 286 276 q 244 121 244 133 q 267 71 244 92 q 325 42 290 50 q 360 29 350 35 q 371 14 371 24 q 331 -1 371 -1 q 289 0 306 -1 l 204 1 q 152 -1 181 1 q 110 -3 124 -3 q 38 -7 71 -7 m 578 392 q 592 393 586 392 q 597 399 597 394 l 594 413 l 486 751 q 474 776 478 776 q 463 753 471 776 l 336 413 l 333 401 q 340 393 333 394 q 363 392 346 392 l 578 392 z "},"Á":{"ha":961,"x_min":-3,"x_max":968,"o":"m 38 -7 q 8 -2 19 -7 q -3 11 -3 3 q 43 43 -3 29 q 113 78 83 56 q 163 150 142 101 q 291 458 236 319 q 422 803 346 596 q 442 883 438 846 q 462 890 446 885 q 492 904 478 894 q 509 929 503 913 q 518 951 515 946 q 522 952 519 953 q 525 950 524 951 q 530 935 528 943 q 535 919 532 926 q 782 178 638 596 q 840 74 808 101 q 922 39 872 47 q 956 26 944 35 q 968 7 968 17 q 928 -7 968 -7 l 853 -4 q 735 1 775 1 l 589 0 q 549 17 549 0 q 562 33 549 25 q 594 43 575 40 q 679 106 679 57 q 625 331 679 150 q 615 343 622 340 q 588 346 607 346 l 325 346 q 301 321 310 346 q 265 205 286 276 q 244 121 244 133 q 267 71 244 92 q 325 42 290 50 q 360 29 350 35 q 371 14 371 24 q 331 -1 371 -1 q 289 0 306 -1 l 204 1 q 152 -1 181 1 q 110 -3 124 -3 q 38 -7 71 -7 m 578 392 q 592 393 586 392 q 597 399 597 394 l 594 413 l 486 751 q 474 776 478 776 q 463 753 471 776 l 336 413 l 333 401 q 340 393 333 394 q 363 392 346 392 l 578 392 m 458 951 q 450 960 450 951 q 457 981 450 969 q 564 1146 506 1061 q 601 1164 576 1164 q 651 1154 621 1164 q 682 1132 682 1144 q 677 1119 682 1125 q 664 1106 672 1113 q 546 1011 633 1078 l 483 964 q 458 951 467 951 z "},"Ă":{"ha":961,"x_min":-3,"x_max":968,"o":"m 38 -7 q 8 -2 19 -7 q -3 11 -3 3 q 43 43 -3 29 q 113 78 83 56 q 163 150 142 101 q 291 458 236 319 q 422 803 346 596 q 442 883 438 846 q 462 890 446 885 q 492 904 478 894 q 509 929 503 913 q 518 951 515 946 q 522 952 519 953 q 525 950 524 951 q 530 935 528 943 q 535 919 532 926 q 782 178 638 596 q 840 74 808 101 q 922 39 872 47 q 956 26 944 35 q 968 7 968 17 q 928 -7 968 -7 l 853 -4 q 735 1 775 1 l 589 0 q 549 17 549 0 q 562 33 549 25 q 594 43 575 40 q 679 106 679 57 q 625 331 679 150 q 615 343 622 340 q 588 346 607 346 l 325 346 q 301 321 310 346 q 265 205 286 276 q 244 121 244 133 q 267 71 244 92 q 325 42 290 50 q 360 29 350 35 q 371 14 371 24 q 331 -1 371 -1 q 289 0 306 -1 l 204 1 q 152 -1 181 1 q 110 -3 124 -3 q 38 -7 71 -7 m 578 392 q 592 393 586 392 q 597 399 597 394 l 594 413 l 486 751 q 474 776 478 776 q 463 753 471 776 l 336 413 l 333 401 q 340 393 333 394 q 363 392 346 392 l 578 392 m 504 961 q 406 985 449 961 q 338 1042 363 1008 q 314 1106 314 1076 q 318 1129 314 1119 q 328 1139 322 1139 q 350 1126 340 1139 q 361 1110 360 1113 q 504 1044 417 1044 q 647 1110 592 1044 q 658 1126 649 1113 q 681 1139 668 1139 q 692 1131 690 1139 q 694 1106 694 1124 q 670 1042 694 1076 q 603 985 646 1008 q 504 961 560 961 z "},"Â":{"ha":961,"x_min":-3,"x_max":968,"o":"m 38 -7 q 8 -2 19 -7 q -3 11 -3 3 q 43 43 -3 29 q 113 78 83 56 q 163 150 142 101 q 291 458 236 319 q 422 803 346 596 q 442 883 438 846 q 462 890 446 885 q 492 904 478 894 q 509 929 503 913 q 518 951 515 946 q 522 952 519 953 q 525 950 524 951 q 530 935 528 943 q 535 919 532 926 q 782 178 638 596 q 840 74 808 101 q 922 39 872 47 q 956 26 944 35 q 968 7 968 17 q 928 -7 968 -7 l 853 -4 q 735 1 775 1 l 589 0 q 549 17 549 0 q 562 33 549 25 q 594 43 575 40 q 679 106 679 57 q 625 331 679 150 q 615 343 622 340 q 588 346 607 346 l 325 346 q 301 321 310 346 q 265 205 286 276 q 244 121 244 133 q 267 71 244 92 q 325 42 290 50 q 360 29 350 35 q 371 14 371 24 q 331 -1 371 -1 q 289 0 306 -1 l 204 1 q 152 -1 181 1 q 110 -3 124 -3 q 38 -7 71 -7 m 578 392 q 592 393 586 392 q 597 399 597 394 l 594 413 l 486 751 q 474 776 478 776 q 463 753 471 776 l 336 413 l 333 401 q 340 393 333 394 q 363 392 346 392 l 578 392 m 322 967 q 307 971 313 967 q 301 981 301 975 q 311 997 301 989 l 447 1113 q 480 1138 469 1132 q 504 1143 490 1143 q 528 1138 518 1143 q 561 1113 539 1132 l 697 997 q 706 981 706 990 q 701 969 706 974 q 686 965 696 965 q 613 994 674 965 q 518 1043 551 1024 q 504 1049 511 1049 q 490 1043 497 1049 q 397 996 458 1025 q 322 967 335 967 z "},"Ä":{"ha":961,"x_min":-3,"x_max":968,"o":"m 38 -7 q 8 -2 19 -7 q -3 11 -3 3 q 43 43 -3 29 q 113 78 83 56 q 163 150 142 101 q 291 458 236 319 q 422 803 346 596 q 442 883 438 846 q 462 890 446 885 q 492 904 478 894 q 509 929 503 913 q 518 951 515 946 q 522 952 519 953 q 525 950 524 951 q 530 935 528 943 q 535 919 532 926 q 782 178 638 596 q 840 74 808 101 q 922 39 872 47 q 956 26 944 35 q 968 7 968 17 q 928 -7 968 -7 l 853 -4 q 735 1 775 1 l 589 0 q 549 17 549 0 q 562 33 549 25 q 594 43 575 40 q 679 106 679 57 q 625 331 679 150 q 615 343 622 340 q 588 346 607 346 l 325 346 q 301 321 310 346 q 265 205 286 276 q 244 121 244 133 q 267 71 244 92 q 325 42 290 50 q 360 29 350 35 q 371 14 371 24 q 331 -1 371 -1 q 289 0 306 -1 l 204 1 q 152 -1 181 1 q 110 -3 124 -3 q 38 -7 71 -7 m 578 392 q 592 393 586 392 q 597 399 597 394 l 594 413 l 486 751 q 474 776 478 776 q 463 753 471 776 l 336 413 l 333 401 q 340 393 333 394 q 363 392 346 392 l 578 392 m 369 965 q 320 985 340 965 q 300 1035 300 1006 q 320 1084 300 1064 q 369 1104 340 1104 q 419 1084 399 1104 q 439 1035 439 1064 q 419 985 439 1006 q 369 965 399 965 m 640 965 q 591 985 611 965 q 571 1035 571 1006 q 591 1084 571 1064 q 640 1104 611 1104 q 690 1084 669 1104 q 710 1035 710 1064 q 690 985 710 1006 q 640 965 669 965 z "},"À":{"ha":961,"x_min":-3,"x_max":968,"o":"m 38 -7 q 8 -2 19 -7 q -3 11 -3 3 q 43 43 -3 29 q 113 78 83 56 q 163 150 142 101 q 291 458 236 319 q 422 803 346 596 q 442 883 438 846 q 462 890 446 885 q 492 904 478 894 q 509 929 503 913 q 518 951 515 946 q 522 952 519 953 q 525 950 524 951 q 530 935 528 943 q 535 919 532 926 q 782 178 638 596 q 840 74 808 101 q 922 39 872 47 q 956 26 944 35 q 968 7 968 17 q 928 -7 968 -7 l 853 -4 q 735 1 775 1 l 589 0 q 549 17 549 0 q 562 33 549 25 q 594 43 575 40 q 679 106 679 57 q 625 331 679 150 q 615 343 622 340 q 588 346 607 346 l 325 346 q 301 321 310 346 q 265 205 286 276 q 244 121 244 133 q 267 71 244 92 q 325 42 290 50 q 360 29 350 35 q 371 14 371 24 q 331 -1 371 -1 q 289 0 306 -1 l 204 1 q 152 -1 181 1 q 110 -3 124 -3 q 38 -7 71 -7 m 578 392 q 592 393 586 392 q 597 399 597 394 l 594 413 l 486 751 q 474 776 478 776 q 463 753 471 776 l 336 413 l 333 401 q 340 393 333 394 q 363 392 346 392 l 578 392 m 549 951 q 524 964 540 951 l 461 1011 q 343 1106 374 1078 q 330 1119 335 1113 q 325 1132 325 1125 q 356 1154 325 1144 q 406 1164 386 1164 q 443 1146 431 1164 q 550 981 501 1061 q 557 960 557 969 q 549 951 557 951 z "},"Ā":{"ha":961,"x_min":-3,"x_max":968,"o":"m 38 -7 q 8 -2 19 -7 q -3 11 -3 3 q 43 43 -3 29 q 113 78 83 56 q 163 150 142 101 q 291 458 236 319 q 422 803 346 596 q 442 883 438 846 q 462 890 446 885 q 492 904 478 894 q 509 929 503 913 q 518 951 515 946 q 522 952 519 953 q 525 950 524 951 q 530 935 528 943 q 535 919 532 926 q 782 178 638 596 q 840 74 808 101 q 922 39 872 47 q 956 26 944 35 q 968 7 968 17 q 928 -7 968 -7 l 853 -4 q 735 1 775 1 l 589 0 q 549 17 549 0 q 562 33 549 25 q 594 43 575 40 q 679 106 679 57 q 625 331 679 150 q 615 343 622 340 q 588 346 607 346 l 325 346 q 301 321 310 346 q 265 205 286 276 q 244 121 244 133 q 267 71 244 92 q 325 42 290 50 q 360 29 350 35 q 371 14 371 24 q 331 -1 371 -1 q 289 0 306 -1 l 204 1 q 152 -1 181 1 q 110 -3 124 -3 q 38 -7 71 -7 m 578 392 q 592 393 586 392 q 597 399 597 394 l 594 413 l 486 751 q 474 776 478 776 q 463 753 471 776 l 336 413 l 333 401 q 340 393 333 394 q 363 392 346 392 l 578 392 m 321 1004 q 308 1010 314 1004 q 301 1021 301 1015 q 310 1058 301 1038 q 335 1079 318 1079 l 700 1079 q 713 1074 707 1079 q 718 1063 718 1068 q 705 1023 718 1042 q 675 1004 692 1004 l 321 1004 z "},"Ą":{"ha":961,"x_min":-3,"x_max":968,"o":"m 38 -7 q 8 -2 19 -7 q -3 11 -3 3 q 43 43 -3 29 q 113 78 83 56 q 163 150 142 101 q 291 458 236 319 q 422 803 346 596 q 442 883 438 846 q 462 890 446 885 q 492 904 478 894 q 509 929 503 913 q 518 951 515 946 q 522 952 519 953 q 525 950 524 951 q 530 935 528 943 q 535 919 532 926 q 782 178 638 596 q 840 74 808 101 q 922 39 872 47 q 956 26 944 35 q 968 7 968 17 q 928 -7 968 -7 l 853 -4 q 735 1 775 1 l 589 0 q 549 17 549 0 q 562 33 549 25 q 594 43 575 40 q 679 106 679 57 q 625 331 679 150 q 615 343 622 340 q 588 346 607 346 l 325 346 q 301 321 310 346 q 265 205 286 276 q 244 121 244 133 q 267 71 244 92 q 325 42 290 50 q 360 29 350 35 q 371 14 371 24 q 331 -1 371 -1 q 289 0 306 -1 l 204 1 q 152 -1 181 1 q 110 -3 124 -3 q 38 -7 71 -7 m 578 392 q 592 393 586 392 q 597 399 597 394 l 594 413 l 486 751 q 474 776 478 776 q 463 753 471 776 l 336 413 l 333 401 q 340 393 333 394 q 363 392 346 392 l 578 392 m 708 -399 q 597 -353 643 -399 q 550 -242 550 -307 q 603 -120 550 -179 q 722 -16 656 -61 q 788 25 788 29 l 824 25 q 781 -9 824 29 q 703 -101 738 -47 q 668 -215 668 -154 q 695 -276 668 -251 q 760 -300 722 -300 q 810 -286 785 -300 q 851 -260 835 -272 q 874 -244 868 -247 l 881 -242 q 890 -253 890 -242 q 860 -317 890 -282 q 788 -375 831 -351 q 708 -399 744 -399 z "},"Å":{"ha":961,"x_min":-3,"x_max":968,"o":"m 38 -7 q 8 -2 19 -7 q -3 11 -3 3 q 43 43 -3 29 q 113 78 83 56 q 163 150 142 101 q 291 458 236 319 q 422 803 346 596 q 442 883 438 846 q 462 890 446 885 q 492 904 478 894 q 509 929 503 913 q 518 951 515 946 q 522 952 519 953 q 525 950 524 951 q 530 935 528 943 q 535 919 532 926 q 782 178 638 596 q 840 74 808 101 q 922 39 872 47 q 956 26 944 35 q 968 7 968 17 q 928 -7 968 -7 l 853 -4 q 735 1 775 1 l 589 0 q 549 17 549 0 q 562 33 549 25 q 594 43 575 40 q 679 106 679 57 q 625 331 679 150 q 615 343 622 340 q 588 346 607 346 l 325 346 q 301 321 310 346 q 265 205 286 276 q 244 121 244 133 q 267 71 244 92 q 325 42 290 50 q 360 29 350 35 q 371 14 371 24 q 331 -1 371 -1 q 289 0 306 -1 l 204 1 q 152 -1 181 1 q 110 -3 124 -3 q 38 -7 71 -7 m 578 392 q 592 393 586 392 q 597 399 597 394 l 594 413 l 486 751 q 474 776 478 776 q 463 753 471 776 l 336 413 l 333 401 q 340 393 333 394 q 363 392 346 392 l 578 392 m 501 1172 q 582 1147 547 1172 q 617 1079 617 1121 q 579 1002 617 1032 q 490 972 542 972 q 409 999 443 972 q 375 1068 375 1025 q 413 1143 375 1114 q 501 1172 451 1172 m 433 1072 q 453 1023 433 1043 q 503 1003 474 1003 q 543 1024 528 1003 q 558 1072 558 1044 q 539 1120 558 1100 q 492 1140 519 1140 q 449 1120 465 1140 q 433 1072 433 1100 z "},"Ǻ":{"ha":961,"x_min":-3,"x_max":968,"o":"m 38 -7 q 8 -2 19 -7 q -3 11 -3 3 q 43 43 -3 29 q 113 78 83 56 q 163 150 142 101 q 291 458 236 319 q 422 803 346 596 q 442 883 438 846 q 462 890 446 885 q 492 904 478 894 q 509 929 503 913 q 518 951 515 946 q 522 952 519 953 q 525 950 524 951 q 530 935 528 943 q 535 919 532 926 q 782 178 638 596 q 840 74 808 101 q 922 39 872 47 q 956 26 944 35 q 968 7 968 17 q 928 -7 968 -7 l 853 -4 q 735 1 775 1 l 589 0 q 549 17 549 0 q 562 33 549 25 q 594 43 575 40 q 679 106 679 57 q 625 331 679 150 q 615 343 622 340 q 588 346 607 346 l 325 346 q 301 321 310 346 q 265 205 286 276 q 244 121 244 133 q 267 71 244 92 q 325 42 290 50 q 360 29 350 35 q 371 14 371 24 q 331 -1 371 -1 q 289 0 306 -1 l 204 1 q 152 -1 181 1 q 110 -3 124 -3 q 38 -7 71 -7 m 578 392 q 592 393 586 392 q 597 399 597 394 l 594 413 l 486 751 q 474 776 478 776 q 463 753 471 776 l 336 413 l 333 401 q 340 393 333 394 q 363 392 346 392 l 578 392 m 501 1172 q 582 1147 547 1172 q 617 1079 617 1121 q 579 1002 617 1032 q 490 972 542 972 q 409 999 443 972 q 375 1068 375 1025 q 413 1143 375 1114 q 501 1172 451 1172 m 433 1072 q 453 1023 433 1043 q 503 1003 474 1003 q 543 1024 528 1003 q 558 1072 558 1044 q 539 1120 558 1100 q 492 1140 519 1140 q 449 1120 465 1140 q 433 1072 433 1100 m 396 1193 q 382 1196 388 1193 q 376 1204 376 1199 q 382 1218 376 1213 q 482 1288 401 1238 q 597 1353 563 1339 q 626 1361 617 1361 q 665 1335 649 1361 q 682 1292 682 1308 q 676 1279 682 1283 q 569 1240 654 1267 q 433 1200 483 1213 q 396 1193 406 1193 z "},"Ã":{"ha":961,"x_min":-3,"x_max":968,"o":"m 38 -7 q 8 -2 19 -7 q -3 11 -3 3 q 43 43 -3 29 q 113 78 83 56 q 163 150 142 101 q 291 458 236 319 q 422 803 346 596 q 442 883 438 846 q 462 890 446 885 q 492 904 478 894 q 509 929 503 913 q 518 951 515 946 q 522 952 519 953 q 525 950 524 951 q 530 935 528 943 q 535 919 532 926 q 782 178 638 596 q 840 74 808 101 q 922 39 872 47 q 956 26 944 35 q 968 7 968 17 q 928 -7 968 -7 l 853 -4 q 735 1 775 1 l 589 0 q 549 17 549 0 q 562 33 549 25 q 594 43 575 40 q 679 106 679 57 q 625 331 679 150 q 615 343 622 340 q 588 346 607 346 l 325 346 q 301 321 310 346 q 265 205 286 276 q 244 121 244 133 q 267 71 244 92 q 325 42 290 50 q 360 29 350 35 q 371 14 371 24 q 331 -1 371 -1 q 289 0 306 -1 l 204 1 q 152 -1 181 1 q 110 -3 124 -3 q 38 -7 71 -7 m 578 392 q 592 393 586 392 q 597 399 597 394 l 594 413 l 486 751 q 474 776 478 776 q 463 753 471 776 l 336 413 l 333 401 q 340 393 333 394 q 363 392 346 392 l 578 392 m 349 961 q 334 969 342 961 q 326 983 326 976 q 349 1020 326 990 q 398 1075 371 1050 q 440 1100 425 1100 q 535 1096 496 1100 q 624 1090 596 1090 q 678 1117 651 1090 q 693 1134 685 1124 q 706 1144 701 1144 q 724 1138 717 1144 q 732 1121 732 1131 q 713 1096 732 1115 q 675 1053 696 1079 q 647 1018 654 1026 q 627 1003 640 1008 q 607 999 614 999 q 542 1003 588 999 q 425 1010 438 1010 q 401 1005 414 1010 q 379 993 388 1000 q 360 974 371 986 q 349 961 350 961 z "},"Æ":{"ha":1211,"x_min":-7,"x_max":1176,"o":"m 33 -7 q -7 8 -7 -7 q 4 25 -7 18 q 39 39 15 32 q 114 87 74 49 q 183 175 154 125 l 563 825 q 564 832 564 828 q 557 843 564 839 q 539 849 550 847 l 417 869 q 403 888 403 875 q 407 899 403 894 q 417 904 411 904 l 510 903 q 660 900 601 900 q 949 904 682 900 l 1089 907 q 1114 894 1113 907 q 1131 751 1129 814 q 1124 742 1131 746 q 1111 739 1118 739 q 1101 742 1104 739 q 1096 753 1099 744 q 1064 821 1079 803 q 971 858 1031 858 l 789 858 q 757 849 774 858 q 740 822 740 839 l 740 485 q 747 463 740 472 q 764 454 754 454 q 897 457 831 454 q 958 482 933 458 q 983 515 968 490 q 1007 539 996 539 q 1019 532 1013 539 q 1025 517 1026 525 q 1021 435 1021 469 q 1025 333 1021 394 q 1013 310 1025 310 q 992 320 1000 310 q 981 342 983 331 q 953 386 971 371 q 915 403 935 401 q 772 406 857 406 q 749 397 758 406 q 740 374 740 389 l 740 154 q 763 80 740 111 q 831 49 786 49 l 975 49 q 1028 57 986 49 q 1081 74 1069 65 q 1139 161 1107 94 q 1146 172 1142 168 q 1156 175 1150 175 q 1170 171 1164 175 q 1176 160 1176 167 q 1170 94 1176 125 q 1153 17 1164 63 q 1147 -1 1150 6 q 1133 -7 1143 -7 q 908 -3 1019 -7 q 806 0 874 -1 q 683 1 738 1 q 611 -3 644 1 q 524 -7 540 -7 q 483 8 483 -7 q 494 24 483 18 q 529 33 506 29 q 606 65 582 43 q 631 133 631 88 l 631 371 q 625 390 631 383 q 600 396 619 396 l 404 396 q 381 388 390 396 q 363 364 371 379 q 249 156 303 261 q 236 114 236 133 q 326 42 236 64 q 362 29 351 35 q 372 14 372 24 q 332 -1 372 -1 q 290 0 307 -1 l 208 1 q 149 0 174 1 q 107 -3 124 -1 q 33 -7 68 -7 m 608 456 q 628 458 625 456 q 631 476 631 461 l 631 806 q 626 831 631 831 q 608 807 621 831 l 419 476 q 414 463 414 467 q 436 456 414 456 l 608 456 z "},"Ǽ":{"ha":1211,"x_min":-7,"x_max":1176,"o":"m 33 -7 q -7 8 -7 -7 q 4 25 -7 18 q 39 39 15 32 q 114 87 74 49 q 183 175 154 125 l 563 825 q 564 832 564 828 q 557 843 564 839 q 539 849 550 847 l 417 869 q 403 888 403 875 q 407 899 403 894 q 417 904 411 904 l 510 903 q 660 900 601 900 q 949 904 682 900 l 1089 907 q 1114 894 1113 907 q 1131 751 1129 814 q 1124 742 1131 746 q 1111 739 1118 739 q 1101 742 1104 739 q 1096 753 1099 744 q 1064 821 1079 803 q 971 858 1031 858 l 789 858 q 757 849 774 858 q 740 822 740 839 l 740 485 q 747 463 740 472 q 764 454 754 454 q 897 457 831 454 q 958 482 933 458 q 983 515 968 490 q 1007 539 996 539 q 1019 532 1013 539 q 1025 517 1026 525 q 1021 435 1021 469 q 1025 333 1021 394 q 1013 310 1025 310 q 992 320 1000 310 q 981 342 983 331 q 953 386 971 371 q 915 403 935 401 q 772 406 857 406 q 749 397 758 406 q 740 374 740 389 l 740 154 q 763 80 740 111 q 831 49 786 49 l 975 49 q 1028 57 986 49 q 1081 74 1069 65 q 1139 161 1107 94 q 1146 172 1142 168 q 1156 175 1150 175 q 1170 171 1164 175 q 1176 160 1176 167 q 1170 94 1176 125 q 1153 17 1164 63 q 1147 -1 1150 6 q 1133 -7 1143 -7 q 908 -3 1019 -7 q 806 0 874 -1 q 683 1 738 1 q 611 -3 644 1 q 524 -7 540 -7 q 483 8 483 -7 q 494 24 483 18 q 529 33 506 29 q 606 65 582 43 q 631 133 631 88 l 631 371 q 625 390 631 383 q 600 396 619 396 l 404 396 q 381 388 390 396 q 363 364 371 379 q 249 156 303 261 q 236 114 236 133 q 326 42 236 64 q 362 29 351 35 q 372 14 372 24 q 332 -1 372 -1 q 290 0 307 -1 l 208 1 q 149 0 174 1 q 107 -3 124 -1 q 33 -7 68 -7 m 608 456 q 628 458 625 456 q 631 476 631 461 l 631 806 q 626 831 631 831 q 608 807 621 831 l 419 476 q 414 463 414 467 q 436 456 414 456 l 608 456 m 708 951 q 700 960 700 951 q 707 981 700 969 q 814 1146 756 1061 q 851 1164 826 1164 q 901 1154 871 1164 q 932 1132 932 1144 q 927 1119 932 1125 q 914 1106 922 1113 q 796 1011 883 1078 l 733 964 q 708 951 717 951 z "},"Ǣ":{"ha":1211,"x_min":-7,"x_max":1176,"o":"m 33 -7 q -7 8 -7 -7 q 4 25 -7 18 q 39 39 15 32 q 114 87 74 49 q 183 175 154 125 l 563 825 q 564 832 564 828 q 557 843 564 839 q 539 849 550 847 l 417 869 q 403 888 403 875 q 407 899 403 894 q 417 904 411 904 l 510 903 q 660 900 601 900 q 949 904 682 900 l 1089 907 q 1114 894 1113 907 q 1131 751 1129 814 q 1124 742 1131 746 q 1111 739 1118 739 q 1101 742 1104 739 q 1096 753 1099 744 q 1064 821 1079 803 q 971 858 1031 858 l 789 858 q 757 849 774 858 q 740 822 740 839 l 740 485 q 747 463 740 472 q 764 454 754 454 q 897 457 831 454 q 958 482 933 458 q 983 515 968 490 q 1007 539 996 539 q 1019 532 1013 539 q 1025 517 1026 525 q 1021 435 1021 469 q 1025 333 1021 394 q 1013 310 1025 310 q 992 320 1000 310 q 981 342 983 331 q 953 386 971 371 q 915 403 935 401 q 772 406 857 406 q 749 397 758 406 q 740 374 740 389 l 740 154 q 763 80 740 111 q 831 49 786 49 l 975 49 q 1028 57 986 49 q 1081 74 1069 65 q 1139 161 1107 94 q 1146 172 1142 168 q 1156 175 1150 175 q 1170 171 1164 175 q 1176 160 1176 167 q 1170 94 1176 125 q 1153 17 1164 63 q 1147 -1 1150 6 q 1133 -7 1143 -7 q 908 -3 1019 -7 q 806 0 874 -1 q 683 1 738 1 q 611 -3 644 1 q 524 -7 540 -7 q 483 8 483 -7 q 494 24 483 18 q 529 33 506 29 q 606 65 582 43 q 631 133 631 88 l 631 371 q 625 390 631 383 q 600 396 619 396 l 404 396 q 381 388 390 396 q 363 364 371 379 q 249 156 303 261 q 236 114 236 133 q 326 42 236 64 q 362 29 351 35 q 372 14 372 24 q 332 -1 372 -1 q 290 0 307 -1 l 208 1 q 149 0 174 1 q 107 -3 124 -1 q 33 -7 68 -7 m 608 456 q 628 458 625 456 q 631 476 631 461 l 631 806 q 626 831 631 831 q 608 807 621 831 l 419 476 q 414 463 414 467 q 436 456 414 456 l 608 456 m 571 1004 q 558 1010 564 1004 q 551 1021 551 1015 q 560 1058 551 1038 q 585 1079 568 1079 l 950 1079 q 963 1074 957 1079 q 968 1063 968 1068 q 955 1023 968 1042 q 925 1004 942 1004 l 571 1004 z "},"B":{"ha":815,"x_min":26,"x_max":760,"o":"m 67 -7 q 26 8 26 -7 q 38 24 26 18 q 72 33 49 29 q 154 67 128 43 q 181 138 181 90 l 181 763 q 159 836 181 813 q 88 864 138 860 q 53 874 65 865 q 42 892 42 882 q 82 907 42 907 q 165 906 144 907 l 226 906 q 286 908 247 906 q 381 913 357 913 q 625 865 547 913 q 703 706 703 817 q 688 626 703 663 q 656 572 674 590 q 615 538 633 550 q 563 513 596 526 q 557 505 557 510 q 563 499 557 500 q 660 457 621 479 q 730 390 700 435 q 760 269 760 344 q 738 153 760 199 q 685 85 715 108 q 615 42 656 63 q 379 -6 521 -6 l 338 -4 q 247 0 300 0 q 163 -3 213 0 q 67 -7 124 -7 m 353 515 q 521 556 449 515 q 563 601 543 568 q 583 688 583 635 q 540 817 583 763 q 381 871 496 871 q 308 856 326 871 q 289 808 289 842 l 289 567 q 353 515 289 515 m 399 51 q 513 79 460 51 q 597 156 565 107 q 629 263 629 204 q 598 376 629 333 q 526 442 567 419 q 368 476 464 476 q 308 460 328 476 q 289 426 289 444 l 289 150 q 315 73 289 94 q 399 51 342 51 z "},"C":{"ha":986,"x_min":64,"x_max":910,"o":"m 565 -21 q 319 38 435 -21 q 134 204 204 97 q 64 449 64 311 q 138 688 64 581 q 335 858 211 796 q 600 921 458 921 q 717 913 672 921 q 847 885 763 906 q 876 868 867 879 q 888 838 885 857 q 900 678 899 729 q 894 663 901 669 q 876 657 886 657 q 853 676 858 657 q 819 772 838 736 q 767 831 800 807 q 683 865 732 853 q 576 878 633 878 q 386 822 471 878 q 253 676 301 767 q 204 482 204 585 q 253 260 204 367 q 388 88 301 154 q 586 22 475 22 q 748 66 682 22 q 863 196 814 110 q 875 209 867 204 q 890 214 883 214 q 904 208 899 214 q 910 192 910 203 q 897 131 910 175 q 872 57 885 88 q 856 32 861 38 q 828 19 850 26 q 708 -10 779 0 q 565 -21 638 -21 z "},"Ć":{"ha":986,"x_min":64,"x_max":910,"o":"m 565 -21 q 319 38 435 -21 q 134 204 204 97 q 64 449 64 311 q 138 688 64 581 q 335 858 211 796 q 600 921 458 921 q 717 913 672 921 q 847 885 763 906 q 876 868 867 879 q 888 838 885 857 q 900 678 899 729 q 894 663 901 669 q 876 657 886 657 q 853 676 858 657 q 819 772 838 736 q 767 831 800 807 q 683 865 732 853 q 576 878 633 878 q 386 822 471 878 q 253 676 301 767 q 204 482 204 585 q 253 260 204 367 q 388 88 301 154 q 586 22 475 22 q 748 66 682 22 q 863 196 814 110 q 875 209 867 204 q 890 214 883 214 q 904 208 899 214 q 910 192 910 203 q 897 131 910 175 q 872 57 885 88 q 856 32 861 38 q 828 19 850 26 q 708 -10 779 0 q 565 -21 638 -21 m 511 951 q 503 960 503 951 q 510 981 503 969 q 617 1146 558 1061 q 654 1164 629 1164 q 704 1154 674 1164 q 735 1132 735 1144 q 730 1119 735 1125 q 717 1106 725 1113 q 599 1011 686 1078 l 536 964 q 511 951 519 951 z "},"Č":{"ha":986,"x_min":64,"x_max":910,"o":"m 565 -21 q 319 38 435 -21 q 134 204 204 97 q 64 449 64 311 q 138 688 64 581 q 335 858 211 796 q 600 921 458 921 q 717 913 672 921 q 847 885 763 906 q 876 868 867 879 q 888 838 885 857 q 900 678 899 729 q 894 663 901 669 q 876 657 886 657 q 853 676 858 657 q 819 772 838 736 q 767 831 800 807 q 683 865 732 853 q 576 878 633 878 q 386 822 471 878 q 253 676 301 767 q 204 482 204 585 q 253 260 204 367 q 388 88 301 154 q 586 22 475 22 q 748 66 682 22 q 863 196 814 110 q 875 209 867 204 q 890 214 883 214 q 904 208 899 214 q 910 192 910 203 q 897 131 910 175 q 872 57 885 88 q 856 32 861 38 q 828 19 850 26 q 708 -10 779 0 q 565 -21 638 -21 m 376 1142 q 451 1113 389 1142 q 544 1065 513 1083 q 558 1060 556 1060 q 572 1065 561 1060 q 667 1114 606 1085 q 740 1143 728 1143 q 755 1139 750 1143 q 760 1128 760 1135 q 751 1111 760 1118 l 615 1003 q 581 978 590 983 q 558 972 572 972 q 535 978 544 972 q 501 1003 526 983 l 365 1111 q 356 1128 356 1119 q 361 1138 356 1135 q 376 1142 367 1142 z "},"Ç":{"ha":986,"x_min":64,"x_max":910,"o":"m 565 -21 q 319 38 435 -21 q 134 204 204 97 q 64 449 64 311 q 138 688 64 581 q 335 858 211 796 q 600 921 458 921 q 717 913 672 921 q 847 885 763 906 q 876 868 867 879 q 888 838 885 857 q 900 678 899 729 q 894 663 901 669 q 876 657 886 657 q 853 676 858 657 q 819 772 838 736 q 767 831 800 807 q 683 865 732 853 q 576 878 633 878 q 386 822 471 878 q 253 676 301 767 q 204 482 204 585 q 253 260 204 367 q 388 88 301 154 q 586 22 475 22 q 748 66 682 22 q 863 196 814 110 q 875 209 867 204 q 890 214 883 214 q 904 208 899 214 q 910 192 910 203 q 897 131 910 175 q 872 57 885 88 q 856 32 861 38 q 828 19 850 26 q 708 -10 779 0 q 565 -21 638 -21 m 465 -382 q 419 -370 435 -382 q 403 -337 403 -358 q 409 -303 403 -315 q 425 -290 415 -290 q 446 -299 428 -290 q 513 -308 464 -308 q 556 -293 542 -308 q 571 -254 571 -278 q 553 -198 571 -217 q 506 -179 535 -179 q 488 -181 497 -179 q 469 -183 478 -183 q 443 -175 453 -183 q 433 -160 433 -167 q 442 -139 433 -150 l 553 11 l 596 11 l 544 -67 q 539 -81 539 -74 q 553 -97 539 -90 q 616 -144 588 -111 q 644 -221 644 -176 q 614 -302 644 -265 q 541 -360 583 -339 q 465 -382 499 -382 z "},"Ĉ":{"ha":986,"x_min":64,"x_max":910,"o":"m 565 -21 q 319 38 435 -21 q 134 204 204 97 q 64 449 64 311 q 138 688 64 581 q 335 858 211 796 q 600 921 458 921 q 717 913 672 921 q 847 885 763 906 q 876 868 867 879 q 888 838 885 857 q 900 678 899 729 q 894 663 901 669 q 876 657 886 657 q 853 676 858 657 q 819 772 838 736 q 767 831 800 807 q 683 865 732 853 q 576 878 633 878 q 386 822 471 878 q 253 676 301 767 q 204 482 204 585 q 253 260 204 367 q 388 88 301 154 q 586 22 475 22 q 748 66 682 22 q 863 196 814 110 q 875 209 867 204 q 890 214 883 214 q 904 208 899 214 q 910 192 910 203 q 897 131 910 175 q 872 57 885 88 q 856 32 861 38 q 828 19 850 26 q 708 -10 779 0 q 565 -21 638 -21 m 375 967 q 360 971 365 967 q 354 981 354 975 q 364 997 354 989 l 500 1113 q 533 1138 522 1132 q 557 1143 543 1143 q 581 1138 571 1143 q 614 1113 592 1132 l 750 997 q 758 981 758 990 q 753 969 758 974 q 739 965 749 965 q 665 994 726 965 q 571 1043 604 1024 q 557 1049 564 1049 q 543 1043 550 1049 q 449 996 511 1025 q 375 967 388 967 z "},"Ċ":{"ha":986,"x_min":64,"x_max":910,"o":"m 565 -21 q 319 38 435 -21 q 134 204 204 97 q 64 449 64 311 q 138 688 64 581 q 335 858 211 796 q 600 921 458 921 q 717 913 672 921 q 847 885 763 906 q 876 868 867 879 q 888 838 885 857 q 900 678 899 729 q 894 663 901 669 q 876 657 886 657 q 853 676 858 657 q 819 772 838 736 q 767 831 800 807 q 683 865 732 853 q 576 878 633 878 q 386 822 471 878 q 253 676 301 767 q 204 482 204 585 q 253 260 204 367 q 388 88 301 154 q 586 22 475 22 q 748 66 682 22 q 863 196 814 110 q 875 209 867 204 q 890 214 883 214 q 904 208 899 214 q 910 192 910 203 q 897 131 910 175 q 872 57 885 88 q 856 32 861 38 q 828 19 850 26 q 708 -10 779 0 q 565 -21 638 -21 m 557 965 q 503 988 525 965 q 481 1042 481 1011 q 503 1096 481 1074 q 557 1118 525 1118 q 611 1096 589 1118 q 633 1042 633 1074 q 611 988 633 1011 q 557 965 589 965 z "},"D":{"ha":1047,"x_min":40,"x_max":999,"o":"m 451 -7 q 226 0 299 0 q 164 -3 203 0 q 81 -7 133 -7 q 40 11 40 -7 q 49 25 40 22 q 86 33 57 28 q 159 65 139 43 q 179 138 179 88 l 179 763 q 159 833 179 811 q 86 864 139 854 q 50 873 60 868 q 40 889 40 878 q 81 907 40 907 l 160 906 q 235 904 181 904 q 378 911 292 904 q 431 914 407 913 q 472 915 456 915 q 771 858 653 915 q 944 701 889 800 q 999 475 999 601 q 933 233 999 344 q 757 56 868 121 q 515 -10 646 -10 l 451 -7 m 499 39 q 690 92 606 39 q 820 238 774 144 q 867 451 867 332 q 811 675 867 579 q 666 822 756 771 q 479 872 576 872 q 369 868 406 872 q 311 846 332 864 q 290 788 290 828 l 290 168 q 347 65 290 92 q 499 39 403 39 z "},"Ð":{"ha":1047,"x_min":40,"x_max":999,"o":"m 472 915 q 771 858 653 915 q 944 701 889 800 q 999 475 999 601 q 933 233 999 344 q 757 56 868 121 q 515 -10 646 -10 l 451 -7 q 226 0 299 0 q 164 -3 203 0 q 81 -7 133 -7 q 40 11 40 -7 q 49 25 40 22 q 86 33 57 28 q 159 65 139 43 q 179 138 179 88 l 179 440 l 83 440 q 69 449 75 440 q 64 465 64 457 q 74 483 64 475 q 97 490 85 490 l 179 490 l 179 763 q 159 833 179 811 q 86 864 139 854 q 50 873 60 868 q 40 889 40 878 q 81 907 40 907 l 160 906 q 235 904 181 904 q 378 911 292 904 q 431 914 407 913 q 472 915 456 915 m 499 39 q 690 92 606 39 q 820 238 774 144 q 867 451 867 332 q 811 675 867 579 q 666 822 756 771 q 479 872 576 872 q 369 868 406 872 q 311 846 332 864 q 290 788 290 828 l 290 490 l 524 490 q 537 485 531 490 q 543 475 543 481 l 542 471 q 499 440 525 440 l 290 440 l 290 168 q 347 65 290 92 q 499 39 403 39 z "},"Ď":{"ha":1047,"x_min":40,"x_max":999,"o":"m 451 -7 q 226 0 299 0 q 164 -3 203 0 q 81 -7 133 -7 q 40 11 40 -7 q 49 25 40 22 q 86 33 57 28 q 159 65 139 43 q 179 138 179 88 l 179 763 q 159 833 179 811 q 86 864 139 854 q 50 873 60 868 q 40 889 40 878 q 81 907 40 907 l 160 906 q 235 904 181 904 q 378 911 292 904 q 431 914 407 913 q 472 915 456 915 q 771 858 653 915 q 944 701 889 800 q 999 475 999 601 q 933 233 999 344 q 757 56 868 121 q 515 -10 646 -10 l 451 -7 m 499 39 q 690 92 606 39 q 820 238 774 144 q 867 451 867 332 q 811 675 867 579 q 666 822 756 771 q 479 872 576 872 q 369 868 406 872 q 311 846 332 864 q 290 788 290 828 l 290 168 q 347 65 290 92 q 499 39 403 39 m 325 1142 q 399 1113 338 1142 q 493 1065 461 1083 q 507 1060 504 1060 q 521 1065 510 1060 q 615 1114 554 1085 q 689 1143 676 1143 q 703 1139 699 1143 q 708 1128 708 1135 q 700 1111 708 1118 l 564 1003 q 530 978 539 983 q 507 972 521 972 q 484 978 493 972 q 450 1003 475 983 l 314 1111 q 304 1128 304 1119 q 310 1138 304 1135 q 325 1142 315 1142 z "},"Đ":{"ha":1047,"x_min":40,"x_max":999,"o":"m 472 915 q 771 858 653 915 q 944 701 889 800 q 999 475 999 601 q 933 233 999 344 q 757 56 868 121 q 515 -10 646 -10 l 451 -7 q 226 0 299 0 q 164 -3 203 0 q 81 -7 133 -7 q 40 11 40 -7 q 49 25 40 22 q 86 33 57 28 q 159 65 139 43 q 179 138 179 88 l 179 440 l 83 440 q 69 449 75 440 q 64 465 64 457 q 74 483 64 475 q 97 490 85 490 l 179 490 l 179 763 q 159 833 179 811 q 86 864 139 854 q 50 873 60 868 q 40 889 40 878 q 81 907 40 907 l 160 906 q 235 904 181 904 q 378 911 292 904 q 431 914 407 913 q 472 915 456 915 m 499 39 q 690 92 606 39 q 820 238 774 144 q 867 451 867 332 q 811 675 867 579 q 666 822 756 771 q 479 872 576 872 q 369 868 406 872 q 311 846 332 864 q 290 788 290 828 l 290 490 l 524 490 q 537 485 531 490 q 543 475 543 481 l 542 471 q 499 440 525 440 l 290 440 l 290 168 q 347 65 290 92 q 499 39 403 39 z "},"E":{"ha":783,"x_min":51,"x_max":749,"o":"m 92 -7 q 51 8 51 -7 q 63 24 51 18 q 97 33 74 29 q 176 66 151 43 q 200 138 200 89 l 200 763 q 180 833 200 811 q 107 864 160 854 q 61 892 61 872 q 101 907 61 907 q 229 904 154 907 l 347 903 l 538 904 l 656 907 q 681 894 679 907 q 692 833 683 883 q 701 751 701 783 q 682 731 701 731 q 672 733 675 731 q 667 744 669 736 q 656 781 664 751 q 636 821 647 810 q 543 858 603 858 l 361 858 q 329 845 347 858 q 311 814 311 832 l 311 519 q 319 498 311 507 q 336 489 326 489 l 474 489 q 528 503 513 489 q 554 557 543 517 q 579 588 563 588 q 591 581 585 588 q 597 565 597 575 l 596 529 l 593 468 l 594 394 l 596 361 q 583 338 596 338 q 551 382 563 338 q 528 430 543 415 q 488 444 514 444 l 358 444 q 322 438 332 444 q 311 408 311 431 l 311 142 q 333 69 311 90 q 403 49 354 49 l 506 49 q 581 54 551 49 q 632 72 611 60 q 670 110 653 86 q 711 179 688 135 q 731 197 721 197 q 749 178 749 197 q 733 102 749 160 q 706 17 718 44 q 701 7 704 14 q 695 -3 699 0 q 686 -7 692 -7 q 442 -3 658 -7 q 251 1 346 1 q 179 -3 213 1 q 92 -7 108 -7 z "},"É":{"ha":783,"x_min":51,"x_max":749,"o":"m 92 -7 q 51 8 51 -7 q 63 24 51 18 q 97 33 74 29 q 176 66 151 43 q 200 138 200 89 l 200 763 q 180 833 200 811 q 107 864 160 854 q 61 892 61 872 q 101 907 61 907 q 229 904 154 907 l 347 903 l 538 904 l 656 907 q 681 894 679 907 q 692 833 683 883 q 701 751 701 783 q 682 731 701 731 q 672 733 675 731 q 667 744 669 736 q 656 781 664 751 q 636 821 647 810 q 543 858 603 858 l 361 858 q 329 845 347 858 q 311 814 311 832 l 311 519 q 319 498 311 507 q 336 489 326 489 l 474 489 q 528 503 513 489 q 554 557 543 517 q 579 588 563 588 q 591 581 585 588 q 597 565 597 575 l 596 529 l 593 468 l 594 394 l 596 361 q 583 338 596 338 q 551 382 563 338 q 528 430 543 415 q 488 444 514 444 l 358 444 q 322 438 332 444 q 311 408 311 431 l 311 142 q 333 69 311 90 q 403 49 354 49 l 506 49 q 581 54 551 49 q 632 72 611 60 q 670 110 653 86 q 711 179 688 135 q 731 197 721 197 q 749 178 749 197 q 733 102 749 160 q 706 17 718 44 q 701 7 704 14 q 695 -3 699 0 q 686 -7 692 -7 q 442 -3 658 -7 q 251 1 346 1 q 179 -3 213 1 q 92 -7 108 -7 m 368 951 q 360 960 360 951 q 367 981 360 969 q 474 1146 415 1061 q 511 1164 486 1164 q 561 1154 531 1164 q 592 1132 592 1144 q 587 1119 592 1125 q 574 1106 582 1113 q 456 1011 543 1078 l 393 964 q 368 951 376 951 z "},"Ĕ":{"ha":783,"x_min":51,"x_max":749,"o":"m 92 -7 q 51 8 51 -7 q 63 24 51 18 q 97 33 74 29 q 176 66 151 43 q 200 138 200 89 l 200 763 q 180 833 200 811 q 107 864 160 854 q 61 892 61 872 q 101 907 61 907 q 229 904 154 907 l 347 903 l 538 904 l 656 907 q 681 894 679 907 q 692 833 683 883 q 701 751 701 783 q 682 731 701 731 q 672 733 675 731 q 667 744 669 736 q 656 781 664 751 q 636 821 647 810 q 543 858 603 858 l 361 858 q 329 845 347 858 q 311 814 311 832 l 311 519 q 319 498 311 507 q 336 489 326 489 l 474 489 q 528 503 513 489 q 554 557 543 517 q 579 588 563 588 q 591 581 585 588 q 597 565 597 575 l 596 529 l 593 468 l 594 394 l 596 361 q 583 338 596 338 q 551 382 563 338 q 528 430 543 415 q 488 444 514 444 l 358 444 q 322 438 332 444 q 311 408 311 431 l 311 142 q 333 69 311 90 q 403 49 354 49 l 506 49 q 581 54 551 49 q 632 72 611 60 q 670 110 653 86 q 711 179 688 135 q 731 197 721 197 q 749 178 749 197 q 733 102 749 160 q 706 17 718 44 q 701 7 704 14 q 695 -3 699 0 q 686 -7 692 -7 q 442 -3 658 -7 q 251 1 346 1 q 179 -3 213 1 q 92 -7 108 -7 m 414 961 q 315 985 358 961 q 248 1042 272 1008 q 224 1106 224 1076 q 228 1129 224 1119 q 238 1139 232 1139 q 260 1126 250 1139 q 271 1110 269 1113 q 414 1044 326 1044 q 557 1110 501 1044 q 568 1126 558 1113 q 590 1139 578 1139 q 602 1131 600 1139 q 604 1106 604 1124 q 580 1042 604 1076 q 513 985 556 1008 q 414 961 469 961 z "},"Ě":{"ha":783,"x_min":51,"x_max":749,"o":"m 92 -7 q 51 8 51 -7 q 63 24 51 18 q 97 33 74 29 q 176 66 151 43 q 200 138 200 89 l 200 763 q 180 833 200 811 q 107 864 160 854 q 61 892 61 872 q 101 907 61 907 q 229 904 154 907 l 347 903 l 538 904 l 656 907 q 681 894 679 907 q 692 833 683 883 q 701 751 701 783 q 682 731 701 731 q 672 733 675 731 q 667 744 669 736 q 656 781 664 751 q 636 821 647 810 q 543 858 603 858 l 361 858 q 329 845 347 858 q 311 814 311 832 l 311 519 q 319 498 311 507 q 336 489 326 489 l 474 489 q 528 503 513 489 q 554 557 543 517 q 579 588 563 588 q 591 581 585 588 q 597 565 597 575 l 596 529 l 593 468 l 594 394 l 596 361 q 583 338 596 338 q 551 382 563 338 q 528 430 543 415 q 488 444 514 444 l 358 444 q 322 438 332 444 q 311 408 311 431 l 311 142 q 333 69 311 90 q 403 49 354 49 l 506 49 q 581 54 551 49 q 632 72 611 60 q 670 110 653 86 q 711 179 688 135 q 731 197 721 197 q 749 178 749 197 q 733 102 749 160 q 706 17 718 44 q 701 7 704 14 q 695 -3 699 0 q 686 -7 692 -7 q 442 -3 658 -7 q 251 1 346 1 q 179 -3 213 1 q 92 -7 108 -7 m 233 1142 q 308 1113 246 1142 q 401 1065 369 1083 q 415 1060 413 1060 q 429 1065 418 1060 q 524 1114 463 1085 q 597 1143 585 1143 q 612 1139 607 1143 q 617 1128 617 1135 q 608 1111 617 1118 l 472 1003 q 438 978 447 983 q 415 972 429 972 q 392 978 401 972 q 358 1003 383 983 l 222 1111 q 213 1128 213 1119 q 218 1138 213 1135 q 233 1142 224 1142 z "},"Ê":{"ha":783,"x_min":51,"x_max":749,"o":"m 92 -7 q 51 8 51 -7 q 63 24 51 18 q 97 33 74 29 q 176 66 151 43 q 200 138 200 89 l 200 763 q 180 833 200 811 q 107 864 160 854 q 61 892 61 872 q 101 907 61 907 q 229 904 154 907 l 347 903 l 538 904 l 656 907 q 681 894 679 907 q 692 833 683 883 q 701 751 701 783 q 682 731 701 731 q 672 733 675 731 q 667 744 669 736 q 656 781 664 751 q 636 821 647 810 q 543 858 603 858 l 361 858 q 329 845 347 858 q 311 814 311 832 l 311 519 q 319 498 311 507 q 336 489 326 489 l 474 489 q 528 503 513 489 q 554 557 543 517 q 579 588 563 588 q 591 581 585 588 q 597 565 597 575 l 596 529 l 593 468 l 594 394 l 596 361 q 583 338 596 338 q 551 382 563 338 q 528 430 543 415 q 488 444 514 444 l 358 444 q 322 438 332 444 q 311 408 311 431 l 311 142 q 333 69 311 90 q 403 49 354 49 l 506 49 q 581 54 551 49 q 632 72 611 60 q 670 110 653 86 q 711 179 688 135 q 731 197 721 197 q 749 178 749 197 q 733 102 749 160 q 706 17 718 44 q 701 7 704 14 q 695 -3 699 0 q 686 -7 692 -7 q 442 -3 658 -7 q 251 1 346 1 q 179 -3 213 1 q 92 -7 108 -7 m 232 967 q 217 971 222 967 q 211 981 211 975 q 221 997 211 989 l 357 1113 q 390 1138 379 1132 q 414 1143 400 1143 q 438 1138 428 1143 q 471 1113 449 1132 l 607 997 q 615 981 615 990 q 610 969 615 974 q 596 965 606 965 q 522 994 583 965 q 428 1043 461 1024 q 414 1049 421 1049 q 400 1043 407 1049 q 306 996 368 1025 q 232 967 244 967 z "},"Ë":{"ha":783,"x_min":51,"x_max":749,"o":"m 92 -7 q 51 8 51 -7 q 63 24 51 18 q 97 33 74 29 q 176 66 151 43 q 200 138 200 89 l 200 763 q 180 833 200 811 q 107 864 160 854 q 61 892 61 872 q 101 907 61 907 q 229 904 154 907 l 347 903 l 538 904 l 656 907 q 681 894 679 907 q 692 833 683 883 q 701 751 701 783 q 682 731 701 731 q 672 733 675 731 q 667 744 669 736 q 656 781 664 751 q 636 821 647 810 q 543 858 603 858 l 361 858 q 329 845 347 858 q 311 814 311 832 l 311 519 q 319 498 311 507 q 336 489 326 489 l 474 489 q 528 503 513 489 q 554 557 543 517 q 579 588 563 588 q 591 581 585 588 q 597 565 597 575 l 596 529 l 593 468 l 594 394 l 596 361 q 583 338 596 338 q 551 382 563 338 q 528 430 543 415 q 488 444 514 444 l 358 444 q 322 438 332 444 q 311 408 311 431 l 311 142 q 333 69 311 90 q 403 49 354 49 l 506 49 q 581 54 551 49 q 632 72 611 60 q 670 110 653 86 q 711 179 688 135 q 731 197 721 197 q 749 178 749 197 q 733 102 749 160 q 706 17 718 44 q 701 7 704 14 q 695 -3 699 0 q 686 -7 692 -7 q 442 -3 658 -7 q 251 1 346 1 q 179 -3 213 1 q 92 -7 108 -7 m 279 965 q 230 985 250 965 q 210 1035 210 1006 q 230 1084 210 1064 q 279 1104 250 1104 q 328 1084 308 1104 q 349 1035 349 1064 q 328 985 349 1006 q 279 965 308 965 m 550 965 q 501 985 521 965 q 481 1035 481 1006 q 501 1084 481 1064 q 550 1104 521 1104 q 599 1084 579 1104 q 619 1035 619 1064 q 599 985 619 1006 q 550 965 579 965 z "},"Ė":{"ha":783,"x_min":51,"x_max":749,"o":"m 92 -7 q 51 8 51 -7 q 63 24 51 18 q 97 33 74 29 q 176 66 151 43 q 200 138 200 89 l 200 763 q 180 833 200 811 q 107 864 160 854 q 61 892 61 872 q 101 907 61 907 q 229 904 154 907 l 347 903 l 538 904 l 656 907 q 681 894 679 907 q 692 833 683 883 q 701 751 701 783 q 682 731 701 731 q 672 733 675 731 q 667 744 669 736 q 656 781 664 751 q 636 821 647 810 q 543 858 603 858 l 361 858 q 329 845 347 858 q 311 814 311 832 l 311 519 q 319 498 311 507 q 336 489 326 489 l 474 489 q 528 503 513 489 q 554 557 543 517 q 579 588 563 588 q 591 581 585 588 q 597 565 597 575 l 596 529 l 593 468 l 594 394 l 596 361 q 583 338 596 338 q 551 382 563 338 q 528 430 543 415 q 488 444 514 444 l 358 444 q 322 438 332 444 q 311 408 311 431 l 311 142 q 333 69 311 90 q 403 49 354 49 l 506 49 q 581 54 551 49 q 632 72 611 60 q 670 110 653 86 q 711 179 688 135 q 731 197 721 197 q 749 178 749 197 q 733 102 749 160 q 706 17 718 44 q 701 7 704 14 q 695 -3 699 0 q 686 -7 692 -7 q 442 -3 658 -7 q 251 1 346 1 q 179 -3 213 1 q 92 -7 108 -7 m 414 965 q 360 988 382 965 q 338 1042 338 1011 q 360 1096 338 1074 q 414 1118 382 1118 q 468 1096 446 1118 q 490 1042 490 1074 q 468 988 490 1011 q 414 965 446 965 z "},"È":{"ha":783,"x_min":51,"x_max":749,"o":"m 92 -7 q 51 8 51 -7 q 63 24 51 18 q 97 33 74 29 q 176 66 151 43 q 200 138 200 89 l 200 763 q 180 833 200 811 q 107 864 160 854 q 61 892 61 872 q 101 907 61 907 q 229 904 154 907 l 347 903 l 538 904 l 656 907 q 681 894 679 907 q 692 833 683 883 q 701 751 701 783 q 682 731 701 731 q 672 733 675 731 q 667 744 669 736 q 656 781 664 751 q 636 821 647 810 q 543 858 603 858 l 361 858 q 329 845 347 858 q 311 814 311 832 l 311 519 q 319 498 311 507 q 336 489 326 489 l 474 489 q 528 503 513 489 q 554 557 543 517 q 579 588 563 588 q 591 581 585 588 q 597 565 597 575 l 596 529 l 593 468 l 594 394 l 596 361 q 583 338 596 338 q 551 382 563 338 q 528 430 543 415 q 488 444 514 444 l 358 444 q 322 438 332 444 q 311 408 311 431 l 311 142 q 333 69 311 90 q 403 49 354 49 l 506 49 q 581 54 551 49 q 632 72 611 60 q 670 110 653 86 q 711 179 688 135 q 731 197 721 197 q 749 178 749 197 q 733 102 749 160 q 706 17 718 44 q 701 7 704 14 q 695 -3 699 0 q 686 -7 692 -7 q 442 -3 658 -7 q 251 1 346 1 q 179 -3 213 1 q 92 -7 108 -7 m 458 951 q 433 964 450 951 l 371 1011 q 253 1106 283 1078 q 240 1119 244 1113 q 235 1132 235 1125 q 265 1154 235 1144 q 315 1164 296 1164 q 353 1146 340 1164 q 460 981 411 1061 q 467 960 467 969 q 458 951 467 951 z "},"Ē":{"ha":783,"x_min":51,"x_max":749,"o":"m 92 -7 q 51 8 51 -7 q 63 24 51 18 q 97 33 74 29 q 176 66 151 43 q 200 138 200 89 l 200 763 q 180 833 200 811 q 107 864 160 854 q 61 892 61 872 q 101 907 61 907 q 229 904 154 907 l 347 903 l 538 904 l 656 907 q 681 894 679 907 q 692 833 683 883 q 701 751 701 783 q 682 731 701 731 q 672 733 675 731 q 667 744 669 736 q 656 781 664 751 q 636 821 647 810 q 543 858 603 858 l 361 858 q 329 845 347 858 q 311 814 311 832 l 311 519 q 319 498 311 507 q 336 489 326 489 l 474 489 q 528 503 513 489 q 554 557 543 517 q 579 588 563 588 q 591 581 585 588 q 597 565 597 575 l 596 529 l 593 468 l 594 394 l 596 361 q 583 338 596 338 q 551 382 563 338 q 528 430 543 415 q 488 444 514 444 l 358 444 q 322 438 332 444 q 311 408 311 431 l 311 142 q 333 69 311 90 q 403 49 354 49 l 506 49 q 581 54 551 49 q 632 72 611 60 q 670 110 653 86 q 711 179 688 135 q 731 197 721 197 q 749 178 749 197 q 733 102 749 160 q 706 17 718 44 q 701 7 704 14 q 695 -3 699 0 q 686 -7 692 -7 q 442 -3 658 -7 q 251 1 346 1 q 179 -3 213 1 q 92 -7 108 -7 m 231 1004 q 217 1010 224 1004 q 211 1021 211 1015 q 219 1058 211 1038 q 244 1079 228 1079 l 610 1079 q 622 1074 617 1079 q 628 1063 628 1068 q 615 1023 628 1042 q 585 1004 601 1004 l 231 1004 z "},"Ę":{"ha":743,"x_min":51,"x_max":749,"o":"m 92 -7 q 51 8 51 -7 q 63 24 51 18 q 97 33 74 29 q 176 66 151 43 q 200 138 200 89 l 200 763 q 180 833 200 811 q 107 864 160 854 q 61 892 61 872 q 101 907 61 907 q 229 904 154 907 l 347 903 l 538 904 l 656 907 q 681 894 679 907 q 692 833 683 883 q 701 751 701 783 q 682 731 701 731 q 672 733 675 731 q 667 744 669 736 q 656 781 664 751 q 636 821 647 810 q 543 858 603 858 l 361 858 q 329 845 347 858 q 311 814 311 832 l 311 519 q 319 498 311 507 q 336 489 326 489 l 474 489 q 528 503 513 489 q 554 557 543 517 q 579 588 563 588 q 591 581 585 588 q 597 565 597 575 l 596 529 l 593 468 l 594 394 l 596 361 q 583 338 596 338 q 551 382 563 338 q 528 430 543 415 q 488 444 514 444 l 358 444 q 322 438 332 444 q 311 408 311 431 l 311 142 q 333 69 311 90 q 403 49 354 49 l 506 49 q 581 54 551 49 q 632 72 611 60 q 670 110 653 86 q 711 179 688 135 q 731 197 721 197 q 749 178 749 197 q 733 102 749 160 q 706 17 718 44 q 701 7 704 14 q 695 -3 699 0 q 686 -7 692 -7 q 442 -3 658 -7 q 251 1 346 1 q 179 -3 213 1 q 92 -7 108 -7 m 531 -399 q 419 -353 465 -399 q 372 -242 372 -307 q 425 -120 372 -179 q 544 -16 478 -61 q 610 25 610 29 l 646 25 q 603 -9 646 29 q 525 -101 560 -47 q 490 -215 490 -154 q 517 -276 490 -251 q 582 -300 544 -300 q 632 -286 607 -300 q 674 -260 657 -272 q 696 -244 690 -247 l 703 -242 q 713 -253 713 -242 q 683 -317 713 -282 q 610 -375 653 -351 q 531 -399 567 -399 z "},"F":{"ha":711,"x_min":42,"x_max":674,"o":"m 82 -7 q 42 8 42 -7 q 53 24 42 18 q 88 33 64 29 q 160 66 140 43 q 181 139 181 89 l 181 725 q 163 824 181 792 q 96 864 146 856 q 50 892 50 872 q 90 907 50 907 q 214 904 142 907 l 329 903 l 504 903 q 593 911 543 903 q 642 917 629 917 q 667 904 665 917 q 672 836 669 883 q 674 764 674 789 q 661 735 674 735 q 649 740 654 735 q 640 751 643 744 q 608 819 628 799 q 515 857 575 857 l 339 857 q 301 840 310 857 q 292 788 293 822 q 290 649 290 753 q 292 517 290 550 q 306 486 292 486 q 407 489 343 486 l 467 490 q 518 506 496 490 q 551 547 540 522 q 563 562 554 553 q 576 571 572 571 q 589 564 582 571 q 594 549 596 557 q 590 472 590 501 q 594 378 590 439 q 582 354 594 354 q 561 365 569 354 q 550 386 553 375 q 522 428 540 415 q 485 442 504 442 l 415 443 q 325 440 354 443 q 292 406 292 438 q 296 140 292 232 q 318 67 299 93 q 388 33 338 42 q 422 24 411 29 q 433 8 433 18 q 393 -7 433 -7 q 313 -1 349 -7 q 257 3 288 3 q 209 1 233 3 q 174 -1 185 -1 q 82 -7 121 -7 z "},"G":{"ha":1013,"x_min":63,"x_max":963,"o":"m 544 -19 q 306 40 417 -19 q 128 203 194 100 q 63 432 63 307 q 132 678 63 567 q 319 856 201 790 q 574 921 438 921 q 723 905 622 921 q 851 875 824 889 q 860 869 858 872 q 864 858 863 865 q 878 711 878 750 q 872 692 878 700 q 857 683 865 683 q 838 693 844 683 q 825 721 831 703 q 782 794 810 763 q 705 844 763 819 q 561 868 647 868 q 374 810 457 868 q 246 656 292 753 q 200 450 200 560 q 251 228 200 324 q 386 83 303 133 q 564 32 469 32 q 674 48 633 32 q 733 83 714 64 q 763 129 751 101 q 775 190 775 157 q 776 229 775 215 l 778 271 q 771 313 778 304 q 710 344 756 333 q 635 356 664 356 q 617 363 628 356 q 607 379 607 369 q 617 396 607 389 q 635 403 628 403 q 717 400 667 403 q 810 397 769 397 q 871 400 835 397 q 933 403 907 403 q 952 397 942 403 q 963 381 963 392 q 951 365 963 372 q 933 356 940 357 q 892 332 904 347 q 875 288 879 317 q 868 183 868 238 l 868 146 q 872 133 868 139 q 876 124 875 126 q 887 112 879 119 q 894 100 894 104 q 875 74 894 76 q 838 57 865 72 q 700 3 769 25 q 544 -19 631 -19 z "},"Ğ":{"ha":1013,"x_min":63,"x_max":963,"o":"m 544 -19 q 306 40 417 -19 q 128 203 194 100 q 63 432 63 307 q 132 678 63 567 q 319 856 201 790 q 574 921 438 921 q 723 905 622 921 q 851 875 824 889 q 860 869 858 872 q 864 858 863 865 q 878 711 878 750 q 872 692 878 700 q 857 683 865 683 q 838 693 844 683 q 825 721 831 703 q 782 794 810 763 q 705 844 763 819 q 561 868 647 868 q 374 810 457 868 q 246 656 292 753 q 200 450 200 560 q 251 228 200 324 q 386 83 303 133 q 564 32 469 32 q 674 48 633 32 q 733 83 714 64 q 763 129 751 101 q 775 190 775 157 q 776 229 775 215 l 778 271 q 771 313 778 304 q 710 344 756 333 q 635 356 664 356 q 617 363 628 356 q 607 379 607 369 q 617 396 607 389 q 635 403 628 403 q 717 400 667 403 q 810 397 769 397 q 871 400 835 397 q 933 403 907 403 q 952 397 942 403 q 963 381 963 392 q 951 365 963 372 q 933 356 940 357 q 892 332 904 347 q 875 288 879 317 q 868 183 868 238 l 868 146 q 872 133 868 139 q 876 124 875 126 q 887 112 879 119 q 894 100 894 104 q 875 74 894 76 q 838 57 865 72 q 700 3 769 25 q 544 -19 631 -19 m 574 961 q 475 985 518 961 q 408 1042 432 1008 q 383 1106 383 1076 q 388 1129 383 1119 q 397 1139 392 1139 q 419 1126 410 1139 q 431 1110 429 1113 q 574 1044 486 1044 q 717 1110 661 1044 q 728 1126 718 1113 q 750 1139 738 1139 q 762 1131 760 1139 q 764 1106 764 1124 q 740 1042 764 1076 q 672 985 715 1008 q 574 961 629 961 z "},"Ǧ":{"ha":1013,"x_min":63,"x_max":963,"o":"m 544 -19 q 306 40 417 -19 q 128 203 194 100 q 63 432 63 307 q 132 678 63 567 q 319 856 201 790 q 574 921 438 921 q 723 905 622 921 q 851 875 824 889 q 860 869 858 872 q 864 858 863 865 q 878 711 878 750 q 872 692 878 700 q 857 683 865 683 q 838 693 844 683 q 825 721 831 703 q 782 794 810 763 q 705 844 763 819 q 561 868 647 868 q 374 810 457 868 q 246 656 292 753 q 200 450 200 560 q 251 228 200 324 q 386 83 303 133 q 564 32 469 32 q 674 48 633 32 q 733 83 714 64 q 763 129 751 101 q 775 190 775 157 q 776 229 775 215 l 778 271 q 771 313 778 304 q 710 344 756 333 q 635 356 664 356 q 617 363 628 356 q 607 379 607 369 q 617 396 607 389 q 635 403 628 403 q 717 400 667 403 q 810 397 769 397 q 871 400 835 397 q 933 403 907 403 q 952 397 942 403 q 963 381 963 392 q 951 365 963 372 q 933 356 940 357 q 892 332 904 347 q 875 288 879 317 q 868 183 868 238 l 868 146 q 872 133 868 139 q 876 124 875 126 q 887 112 879 119 q 894 100 894 104 q 875 74 894 76 q 838 57 865 72 q 700 3 769 25 q 544 -19 631 -19 m 393 1142 q 467 1113 406 1142 q 561 1065 529 1083 q 575 1060 572 1060 q 589 1065 578 1060 q 683 1114 622 1085 q 757 1143 744 1143 q 772 1139 767 1143 q 776 1128 776 1135 q 768 1111 776 1118 l 632 1003 q 598 978 607 983 q 575 972 589 972 q 552 978 561 972 q 518 1003 543 983 l 382 1111 q 372 1128 372 1119 q 378 1138 372 1135 q 393 1142 383 1142 z "},"Ĝ":{"ha":1013,"x_min":63,"x_max":963,"o":"m 544 -19 q 306 40 417 -19 q 128 203 194 100 q 63 432 63 307 q 132 678 63 567 q 319 856 201 790 q 574 921 438 921 q 723 905 622 921 q 851 875 824 889 q 860 869 858 872 q 864 858 863 865 q 878 711 878 750 q 872 692 878 700 q 857 683 865 683 q 838 693 844 683 q 825 721 831 703 q 782 794 810 763 q 705 844 763 819 q 561 868 647 868 q 374 810 457 868 q 246 656 292 753 q 200 450 200 560 q 251 228 200 324 q 386 83 303 133 q 564 32 469 32 q 674 48 633 32 q 733 83 714 64 q 763 129 751 101 q 775 190 775 157 q 776 229 775 215 l 778 271 q 771 313 778 304 q 710 344 756 333 q 635 356 664 356 q 617 363 628 356 q 607 379 607 369 q 617 396 607 389 q 635 403 628 403 q 717 400 667 403 q 810 397 769 397 q 871 400 835 397 q 933 403 907 403 q 952 397 942 403 q 963 381 963 392 q 951 365 963 372 q 933 356 940 357 q 892 332 904 347 q 875 288 879 317 q 868 183 868 238 l 868 146 q 872 133 868 139 q 876 124 875 126 q 887 112 879 119 q 894 100 894 104 q 875 74 894 76 q 838 57 865 72 q 700 3 769 25 q 544 -19 631 -19 m 392 967 q 376 971 382 967 q 371 981 371 975 q 381 997 371 989 l 517 1113 q 549 1138 539 1132 q 574 1143 560 1143 q 598 1138 588 1143 q 631 1113 608 1132 l 767 997 q 775 981 775 990 q 770 969 775 974 q 756 965 765 965 q 682 994 743 965 q 588 1043 621 1024 q 574 1049 581 1049 q 560 1043 567 1049 q 466 996 528 1025 q 392 967 404 967 z "},"Ġ":{"ha":1013,"x_min":63,"x_max":963,"o":"m 544 -19 q 306 40 417 -19 q 128 203 194 100 q 63 432 63 307 q 132 678 63 567 q 319 856 201 790 q 574 921 438 921 q 723 905 622 921 q 851 875 824 889 q 860 869 858 872 q 864 858 863 865 q 878 711 878 750 q 872 692 878 700 q 857 683 865 683 q 838 693 844 683 q 825 721 831 703 q 782 794 810 763 q 705 844 763 819 q 561 868 647 868 q 374 810 457 868 q 246 656 292 753 q 200 450 200 560 q 251 228 200 324 q 386 83 303 133 q 564 32 469 32 q 674 48 633 32 q 733 83 714 64 q 763 129 751 101 q 775 190 775 157 q 776 229 775 215 l 778 271 q 771 313 778 304 q 710 344 756 333 q 635 356 664 356 q 617 363 628 356 q 607 379 607 369 q 617 396 607 389 q 635 403 628 403 q 717 400 667 403 q 810 397 769 397 q 871 400 835 397 q 933 403 907 403 q 952 397 942 403 q 963 381 963 392 q 951 365 963 372 q 933 356 940 357 q 892 332 904 347 q 875 288 879 317 q 868 183 868 238 l 868 146 q 872 133 868 139 q 876 124 875 126 q 887 112 879 119 q 894 100 894 104 q 875 74 894 76 q 838 57 865 72 q 700 3 769 25 q 544 -19 631 -19 m 574 965 q 519 988 542 965 q 497 1042 497 1011 q 519 1096 497 1074 q 574 1118 542 1118 q 628 1096 606 1118 q 650 1042 650 1074 q 628 988 650 1011 q 574 965 606 965 z "},"Ɂ":{"ha":649,"x_min":49,"x_max":603,"o":"m 133 -7 q 93 8 93 -7 q 104 24 93 18 q 139 33 115 29 q 221 66 194 43 q 247 135 247 89 l 247 326 q 276 410 247 376 q 331 463 306 444 q 363 486 357 482 q 444 568 414 525 q 474 688 474 611 q 424 824 474 769 q 297 879 375 879 q 161 828 203 879 q 100 704 119 776 q 85 679 96 692 q 63 667 74 667 q 53 681 57 667 q 49 710 49 696 q 56 797 49 742 q 74 854 64 853 q 128 872 83 857 q 322 922 258 922 q 465 894 400 922 q 566 817 529 867 q 603 706 603 768 q 558 556 603 611 q 471 473 514 501 q 418 438 428 444 q 368 389 378 410 q 358 326 358 368 l 358 135 q 385 66 358 89 q 468 33 413 43 q 503 24 492 29 q 514 8 514 18 q 474 -7 514 -7 q 385 -3 422 -7 q 311 0 340 0 q 226 -3 276 0 q 133 -7 185 -7 z "},"Ȝ":{"ha":729,"x_min":-7,"x_max":700,"o":"m 156 -278 q 38 -267 82 -278 q -7 -236 -7 -257 q 9 -184 -7 -208 q 43 -160 25 -160 q 75 -178 51 -160 l 103 -199 q 197 -226 146 -226 q 399 -171 314 -226 q 527 -30 483 -115 q 571 143 571 56 q 521 300 571 238 q 378 363 471 363 q 249 325 314 363 q 218 313 224 313 q 188 322 203 313 q 172 342 172 332 q 191 367 172 351 q 224 389 210 383 q 349 455 299 421 q 431 546 399 489 q 464 688 464 603 q 420 822 464 764 q 307 879 376 879 q 171 831 221 879 q 106 701 128 785 q 90 677 103 688 q 69 667 76 667 q 60 679 64 667 q 56 701 56 692 q 60 765 56 735 q 69 829 64 796 q 76 849 72 842 q 88 857 79 856 q 156 879 97 860 q 256 912 218 901 q 333 922 294 922 q 460 895 400 922 q 558 819 521 868 q 594 706 594 769 q 551 558 594 625 q 444 450 508 490 q 439 442 439 447 q 444 436 439 436 q 584 403 526 436 q 671 313 642 369 q 700 185 700 256 q 635 -31 700 76 q 447 -208 571 -137 q 156 -278 324 -278 z "},"H":{"ha":1125,"x_min":51,"x_max":1069,"o":"m 92 -7 q 63 -2 74 -7 q 51 11 51 3 q 61 24 51 19 q 96 33 71 29 q 164 65 147 43 q 181 138 181 86 l 181 765 q 176 819 181 801 q 157 847 172 836 q 107 864 142 858 q 72 874 83 868 q 61 889 61 879 q 101 907 61 907 q 185 904 143 907 l 244 903 l 307 904 q 392 907 351 907 q 432 889 432 907 q 421 874 432 879 q 386 864 410 868 q 313 831 335 854 q 292 765 292 807 l 292 492 q 311 479 292 479 l 826 479 q 836 496 836 479 l 836 767 q 815 831 836 807 q 744 864 794 856 q 710 874 721 868 q 699 889 699 879 q 710 902 699 897 q 739 907 721 907 q 828 904 778 907 l 900 903 l 949 904 q 1026 907 985 907 q 1067 889 1067 907 q 1056 874 1067 879 q 1021 864 1044 868 q 960 834 974 856 q 947 767 947 813 l 947 139 q 961 63 947 85 q 1025 33 975 42 q 1060 24 1050 29 q 1069 11 1069 19 q 1058 -2 1069 3 q 1029 -7 1047 -7 q 946 -3 978 -7 q 885 0 910 0 q 821 -3 857 0 q 736 -7 788 -7 q 707 -2 718 -7 q 696 11 696 3 q 706 24 696 19 q 740 33 715 29 q 836 135 836 51 l 836 406 l 836 413 q 835 422 836 418 q 829 426 833 426 l 299 426 q 293 422 294 426 q 292 411 292 418 l 292 147 q 323 73 292 104 q 403 33 354 42 q 438 24 428 29 q 447 11 447 19 q 436 -2 447 3 q 407 -7 425 -7 q 318 -3 356 -7 q 244 0 274 0 q 178 -3 217 0 q 92 -7 144 -7 z "},"Ħ":{"ha":1125,"x_min":51,"x_max":1069,"o":"m 1025 33 q 1060 24 1050 29 q 1069 11 1069 19 q 1058 -2 1069 3 q 1029 -7 1047 -7 q 946 -3 978 -7 q 885 0 910 0 q 821 -3 857 0 q 736 -7 788 -7 q 707 -2 718 -7 q 696 11 696 3 q 706 24 696 19 q 740 33 715 29 q 836 135 836 51 l 836 406 l 836 413 q 835 422 836 418 q 829 426 833 426 l 299 426 q 293 422 294 426 q 292 411 292 418 l 292 147 q 323 73 292 104 q 403 33 354 42 q 438 24 428 29 q 447 11 447 19 q 436 -2 447 3 q 407 -7 425 -7 q 318 -3 356 -7 q 244 0 274 0 q 178 -3 217 0 q 92 -7 144 -7 q 63 -2 74 -7 q 51 11 51 3 q 61 24 51 19 q 96 33 71 29 q 164 65 147 43 q 181 138 181 86 l 181 633 l 94 633 q 79 641 86 633 q 72 658 72 649 q 82 676 72 669 q 106 683 92 683 l 181 683 l 181 765 q 176 819 181 801 q 157 847 172 836 q 107 864 142 858 q 72 874 83 868 q 61 889 61 879 q 101 907 61 907 q 185 904 143 907 l 244 903 l 307 904 q 392 907 351 907 q 432 889 432 907 q 421 874 432 879 q 386 864 410 868 q 313 831 335 854 q 292 765 292 807 l 292 683 l 836 683 l 836 767 q 815 831 836 807 q 744 864 794 856 q 710 874 721 868 q 699 889 699 879 q 710 902 699 897 q 739 907 721 907 q 828 904 778 907 l 900 903 l 949 904 q 1026 907 985 907 q 1067 889 1067 907 q 1056 874 1067 879 q 1021 864 1044 868 q 960 834 974 856 q 947 767 947 813 l 947 683 l 1040 683 q 1053 679 1049 683 q 1058 667 1058 675 q 1044 645 1058 657 q 1015 633 1031 633 l 947 633 l 947 139 q 961 63 947 85 q 1025 33 975 42 m 826 479 q 836 496 836 479 l 836 633 l 292 633 l 292 492 q 311 479 292 479 l 826 479 z "},"Ĥ":{"ha":1125,"x_min":51,"x_max":1069,"o":"m 92 -7 q 63 -2 74 -7 q 51 11 51 3 q 61 24 51 19 q 96 33 71 29 q 164 65 147 43 q 181 138 181 86 l 181 765 q 176 819 181 801 q 157 847 172 836 q 107 864 142 858 q 72 874 83 868 q 61 889 61 879 q 101 907 61 907 q 185 904 143 907 l 244 903 l 307 904 q 392 907 351 907 q 432 889 432 907 q 421 874 432 879 q 386 864 410 868 q 313 831 335 854 q 292 765 292 807 l 292 492 q 311 479 292 479 l 826 479 q 836 496 836 479 l 836 767 q 815 831 836 807 q 744 864 794 856 q 710 874 721 868 q 699 889 699 879 q 710 902 699 897 q 739 907 721 907 q 828 904 778 907 l 900 903 l 949 904 q 1026 907 985 907 q 1067 889 1067 907 q 1056 874 1067 879 q 1021 864 1044 868 q 960 834 974 856 q 947 767 947 813 l 947 139 q 961 63 947 85 q 1025 33 975 42 q 1060 24 1050 29 q 1069 11 1069 19 q 1058 -2 1069 3 q 1029 -7 1047 -7 q 946 -3 978 -7 q 885 0 910 0 q 821 -3 857 0 q 736 -7 788 -7 q 707 -2 718 -7 q 696 11 696 3 q 706 24 696 19 q 740 33 715 29 q 836 135 836 51 l 836 406 l 836 413 q 835 422 836 418 q 829 426 833 426 l 299 426 q 293 422 294 426 q 292 411 292 418 l 292 147 q 323 73 292 104 q 403 33 354 42 q 438 24 428 29 q 447 11 447 19 q 436 -2 447 3 q 407 -7 425 -7 q 318 -3 356 -7 q 244 0 274 0 q 178 -3 217 0 q 92 -7 144 -7 m 381 967 q 365 971 371 967 q 360 981 360 975 q 369 997 360 989 l 506 1113 q 538 1138 528 1132 q 563 1143 549 1143 q 587 1138 576 1143 q 619 1113 597 1132 l 756 997 q 764 981 764 990 q 759 969 764 974 q 744 965 754 965 q 671 994 732 965 q 576 1043 610 1024 q 563 1049 569 1049 q 549 1043 556 1049 q 455 996 517 1025 q 381 967 393 967 z "},"I":{"ha":472,"x_min":26,"x_max":447,"o":"m 67 -7 q 26 8 26 -7 q 38 24 26 18 q 72 33 49 29 q 154 66 128 43 q 181 136 181 89 l 181 764 q 160 833 181 813 q 88 864 140 854 q 42 892 42 872 q 82 907 42 907 q 171 904 121 907 l 244 903 l 311 904 q 396 907 356 907 q 436 892 436 907 q 390 864 436 872 q 314 833 336 854 q 292 764 292 811 l 292 136 q 319 66 292 89 q 401 33 346 43 q 436 24 425 29 q 447 8 447 18 q 407 -7 447 -7 q 318 -3 356 -7 q 244 0 274 0 q 160 -3 210 0 q 67 -7 118 -7 z "},"Ĳ":{"ha":944,"x_min":26,"x_max":889,"o":"m 67 -7 q 26 8 26 -7 q 38 24 26 18 q 72 33 49 29 q 154 66 128 43 q 181 136 181 89 l 181 764 q 160 833 181 813 q 88 864 140 854 q 42 892 42 872 q 82 907 42 907 q 171 904 121 907 l 244 903 l 311 904 q 396 907 356 907 q 436 892 436 907 q 390 864 436 872 q 314 833 336 854 q 292 764 292 811 l 292 136 q 319 66 292 89 q 401 33 346 43 q 436 24 425 29 q 447 8 447 18 q 407 -7 447 -7 q 318 -3 356 -7 q 244 0 274 0 q 160 -3 210 0 q 67 -7 118 -7 m 519 -278 q 413 -260 450 -278 q 376 -210 376 -243 q 395 -166 376 -187 q 431 -144 414 -144 q 496 -179 469 -144 q 528 -211 514 -201 q 561 -221 543 -221 q 653 -1 653 -221 l 653 765 q 633 833 653 813 q 561 864 613 854 q 515 892 515 872 q 556 907 515 907 q 644 904 594 907 l 718 903 l 769 904 q 849 907 806 907 q 889 892 889 907 q 843 864 889 872 q 778 835 793 854 q 764 765 764 815 l 764 65 q 731 -82 764 -12 q 654 -203 699 -151 q 519 -278 590 -278 z "},"Í":{"ha":472,"x_min":26,"x_max":447,"o":"m 67 -7 q 26 8 26 -7 q 38 24 26 18 q 72 33 49 29 q 154 66 128 43 q 181 136 181 89 l 181 764 q 160 833 181 813 q 88 864 140 854 q 42 892 42 872 q 82 907 42 907 q 171 904 121 907 l 244 903 l 311 904 q 396 907 356 907 q 436 892 436 907 q 390 864 436 872 q 314 833 336 854 q 292 764 292 811 l 292 136 q 319 66 292 89 q 401 33 346 43 q 436 24 425 29 q 447 8 447 18 q 407 -7 447 -7 q 318 -3 356 -7 q 244 0 274 0 q 160 -3 210 0 q 67 -7 118 -7 m 190 951 q 182 960 182 951 q 189 981 182 969 q 296 1146 238 1061 q 333 1164 308 1164 q 383 1154 353 1164 q 414 1132 414 1144 q 409 1119 414 1125 q 396 1106 404 1113 q 278 1011 365 1078 l 215 964 q 190 951 199 951 z "},"Ĭ":{"ha":472,"x_min":26,"x_max":447,"o":"m 67 -7 q 26 8 26 -7 q 38 24 26 18 q 72 33 49 29 q 154 66 128 43 q 181 136 181 89 l 181 764 q 160 833 181 813 q 88 864 140 854 q 42 892 42 872 q 82 907 42 907 q 171 904 121 907 l 244 903 l 311 904 q 396 907 356 907 q 436 892 436 907 q 390 864 436 872 q 314 833 336 854 q 292 764 292 811 l 292 136 q 319 66 292 89 q 401 33 346 43 q 436 24 425 29 q 447 8 447 18 q 407 -7 447 -7 q 318 -3 356 -7 q 244 0 274 0 q 160 -3 210 0 q 67 -7 118 -7 m 236 961 q 138 985 181 961 q 70 1042 94 1008 q 46 1106 46 1076 q 50 1129 46 1119 q 60 1139 54 1139 q 82 1126 72 1139 q 93 1110 92 1113 q 236 1044 149 1044 q 379 1110 324 1044 q 390 1126 381 1113 q 413 1139 400 1139 q 424 1131 422 1139 q 426 1106 426 1124 q 402 1042 426 1076 q 335 985 378 1008 q 236 961 292 961 z "},"Î":{"ha":472,"x_min":26,"x_max":447,"o":"m 67 -7 q 26 8 26 -7 q 38 24 26 18 q 72 33 49 29 q 154 66 128 43 q 181 136 181 89 l 181 764 q 160 833 181 813 q 88 864 140 854 q 42 892 42 872 q 82 907 42 907 q 171 904 121 907 l 244 903 l 311 904 q 396 907 356 907 q 436 892 436 907 q 390 864 436 872 q 314 833 336 854 q 292 764 292 811 l 292 136 q 319 66 292 89 q 401 33 346 43 q 436 24 425 29 q 447 8 447 18 q 407 -7 447 -7 q 318 -3 356 -7 q 244 0 274 0 q 160 -3 210 0 q 67 -7 118 -7 m 54 967 q 39 971 44 967 q 33 981 33 975 q 43 997 33 989 l 179 1113 q 212 1138 201 1132 q 236 1143 222 1143 q 260 1138 250 1143 q 293 1113 271 1132 l 429 997 q 438 981 438 990 q 433 969 438 974 q 418 965 428 965 q 344 994 406 965 q 250 1043 283 1024 q 236 1049 243 1049 q 222 1043 229 1049 q 128 996 190 1025 q 54 967 67 967 z "},"Ï":{"ha":472,"x_min":26,"x_max":447,"o":"m 67 -7 q 26 8 26 -7 q 38 24 26 18 q 72 33 49 29 q 154 66 128 43 q 181 136 181 89 l 181 764 q 160 833 181 813 q 88 864 140 854 q 42 892 42 872 q 82 907 42 907 q 171 904 121 907 l 244 903 l 311 904 q 396 907 356 907 q 436 892 436 907 q 390 864 436 872 q 314 833 336 854 q 292 764 292 811 l 292 136 q 319 66 292 89 q 401 33 346 43 q 436 24 425 29 q 447 8 447 18 q 407 -7 447 -7 q 318 -3 356 -7 q 244 0 274 0 q 160 -3 210 0 q 67 -7 118 -7 m 101 965 q 52 985 72 965 q 32 1035 32 1006 q 52 1084 32 1064 q 101 1104 72 1104 q 151 1084 131 1104 q 171 1035 171 1064 q 151 985 171 1006 q 101 965 131 965 m 372 965 q 323 985 343 965 q 303 1035 303 1006 q 323 1084 303 1064 q 372 1104 343 1104 q 422 1084 401 1104 q 442 1035 442 1064 q 422 985 442 1006 q 372 965 401 965 z "},"İ":{"ha":472,"x_min":26,"x_max":447,"o":"m 67 -7 q 26 8 26 -7 q 38 24 26 18 q 72 33 49 29 q 154 66 128 43 q 181 136 181 89 l 181 764 q 160 833 181 813 q 88 864 140 854 q 42 892 42 872 q 82 907 42 907 q 171 904 121 907 l 244 903 l 311 904 q 396 907 356 907 q 436 892 436 907 q 390 864 436 872 q 314 833 336 854 q 292 764 292 811 l 292 136 q 319 66 292 89 q 401 33 346 43 q 436 24 425 29 q 447 8 447 18 q 407 -7 447 -7 q 318 -3 356 -7 q 244 0 274 0 q 160 -3 210 0 q 67 -7 118 -7 m 236 965 q 182 988 204 965 q 160 1042 160 1011 q 182 1096 160 1074 q 236 1118 204 1118 q 290 1096 268 1118 q 313 1042 313 1074 q 290 988 313 1011 q 236 965 268 965 z "},"Ì":{"ha":472,"x_min":26,"x_max":447,"o":"m 67 -7 q 26 8 26 -7 q 38 24 26 18 q 72 33 49 29 q 154 66 128 43 q 181 136 181 89 l 181 764 q 160 833 181 813 q 88 864 140 854 q 42 892 42 872 q 82 907 42 907 q 171 904 121 907 l 244 903 l 311 904 q 396 907 356 907 q 436 892 436 907 q 390 864 436 872 q 314 833 336 854 q 292 764 292 811 l 292 136 q 319 66 292 89 q 401 33 346 43 q 436 24 425 29 q 447 8 447 18 q 407 -7 447 -7 q 318 -3 356 -7 q 244 0 274 0 q 160 -3 210 0 q 67 -7 118 -7 m 281 951 q 256 964 272 951 l 193 1011 q 75 1106 106 1078 q 62 1119 67 1113 q 57 1132 57 1125 q 88 1154 57 1144 q 138 1164 118 1164 q 175 1146 163 1164 q 282 981 233 1061 q 289 960 289 969 q 281 951 289 951 z "},"Ī":{"ha":472,"x_min":26,"x_max":450,"o":"m 67 -7 q 26 8 26 -7 q 38 24 26 18 q 72 33 49 29 q 154 66 128 43 q 181 136 181 89 l 181 764 q 160 833 181 813 q 88 864 140 854 q 42 892 42 872 q 82 907 42 907 q 171 904 121 907 l 244 903 l 311 904 q 396 907 356 907 q 436 892 436 907 q 390 864 436 872 q 314 833 336 854 q 292 764 292 811 l 292 136 q 319 66 292 89 q 401 33 346 43 q 436 24 425 29 q 447 8 447 18 q 407 -7 447 -7 q 318 -3 356 -7 q 244 0 274 0 q 160 -3 210 0 q 67 -7 118 -7 m 53 1004 q 40 1010 46 1004 q 33 1021 33 1015 q 42 1058 33 1038 q 67 1079 50 1079 l 432 1079 q 444 1074 439 1079 q 450 1063 450 1068 q 437 1023 450 1042 q 407 1004 424 1004 l 53 1004 z "},"Į":{"ha":472,"x_min":26,"x_max":447,"o":"m 67 -7 q 26 8 26 -7 q 38 24 26 18 q 72 33 49 29 q 154 66 128 43 q 181 136 181 89 l 181 764 q 160 833 181 813 q 88 864 140 854 q 42 892 42 872 q 82 907 42 907 q 171 904 121 907 l 244 903 l 311 904 q 396 907 356 907 q 436 892 436 907 q 390 864 436 872 q 314 833 336 854 q 292 764 292 811 l 292 136 q 319 66 292 89 q 401 33 346 43 q 436 24 425 29 q 447 8 447 18 q 407 -7 447 -7 q 318 -3 356 -7 q 244 0 274 0 q 160 -3 210 0 q 67 -7 118 -7 m 260 -399 q 148 -353 194 -399 q 101 -242 101 -307 q 154 -120 101 -179 q 273 -16 207 -61 q 339 25 339 29 l 375 25 q 332 -9 375 29 q 254 -101 289 -47 q 219 -215 219 -154 q 247 -276 219 -251 q 311 -300 274 -300 q 361 -286 336 -300 q 403 -260 386 -272 q 425 -244 419 -247 l 432 -242 q 442 -253 442 -242 q 412 -317 442 -282 q 339 -375 382 -351 q 260 -399 296 -399 z "},"Ĩ":{"ha":472,"x_min":26,"x_max":464,"o":"m 67 -7 q 26 8 26 -7 q 38 24 26 18 q 72 33 49 29 q 154 66 128 43 q 181 136 181 89 l 181 764 q 160 833 181 813 q 88 864 140 854 q 42 892 42 872 q 82 907 42 907 q 171 904 121 907 l 244 903 l 311 904 q 396 907 356 907 q 436 892 436 907 q 390 864 436 872 q 314 833 336 854 q 292 764 292 811 l 292 136 q 319 66 292 89 q 401 33 346 43 q 436 24 425 29 q 447 8 447 18 q 407 -7 447 -7 q 318 -3 356 -7 q 244 0 274 0 q 160 -3 210 0 q 67 -7 118 -7 m 81 961 q 66 969 74 961 q 58 983 58 976 q 81 1020 58 990 q 130 1075 103 1050 q 172 1100 157 1100 q 267 1096 228 1100 q 356 1090 328 1090 q 410 1117 383 1090 q 425 1134 417 1124 q 438 1144 433 1144 q 456 1138 449 1144 q 464 1121 464 1131 q 444 1096 464 1115 q 407 1053 428 1079 q 379 1018 386 1026 q 359 1003 372 1008 q 339 999 346 999 q 274 1003 319 999 q 157 1010 169 1010 q 133 1005 146 1010 q 111 993 119 1000 q 92 974 103 986 q 81 961 82 961 z "},"J":{"ha":472,"x_min":-96,"x_max":417,"o":"m 47 -278 q -59 -260 -22 -278 q -96 -210 -96 -243 q -77 -166 -96 -187 q -42 -144 -58 -144 q 24 -179 -3 -144 q 56 -211 42 -201 q 89 -221 71 -221 q 181 -1 181 -221 l 181 765 q 160 833 181 813 q 89 864 140 854 q 43 892 43 872 q 83 907 43 907 q 172 904 122 907 l 246 903 l 297 904 q 376 907 333 907 q 417 892 417 907 q 371 864 417 872 q 306 835 321 854 q 292 765 292 815 l 292 65 q 259 -82 292 -12 q 182 -203 226 -151 q 47 -278 118 -278 z "},"Ĵ":{"ha":472,"x_min":-96,"x_max":429,"o":"m 47 -278 q -59 -260 -22 -278 q -96 -210 -96 -243 q -77 -166 -96 -187 q -42 -144 -58 -144 q 24 -179 -3 -144 q 56 -211 42 -201 q 89 -221 71 -221 q 181 -1 181 -221 l 181 765 q 160 833 181 813 q 89 864 140 854 q 43 892 43 872 q 83 907 43 907 q 172 904 122 907 l 246 903 l 297 904 q 376 907 333 907 q 417 892 417 907 q 371 864 417 872 q 306 835 321 854 q 292 765 292 815 l 292 65 q 259 -82 292 -12 q 182 -203 226 -151 q 47 -278 118 -278 m 46 967 q 31 971 36 967 q 25 981 25 975 q 35 997 25 989 l 171 1113 q 203 1138 193 1132 q 228 1143 214 1143 q 252 1138 242 1143 q 285 1113 263 1132 l 421 997 q 429 981 429 990 q 424 969 429 974 q 410 965 419 965 q 336 994 397 965 q 242 1043 275 1024 q 228 1049 235 1049 q 214 1043 221 1049 q 120 996 182 1025 q 46 967 58 967 z "},"K":{"ha":946,"x_min":43,"x_max":956,"o":"m 83 -7 q 43 8 43 -7 q 54 24 43 18 q 89 33 65 29 q 162 66 142 43 q 182 140 182 89 l 182 765 q 162 833 182 813 q 89 864 142 854 q 43 892 43 872 q 83 907 43 907 l 169 906 q 239 904 190 904 q 293 906 278 904 l 374 907 q 414 892 414 907 q 368 864 414 872 q 306 833 319 856 q 293 765 293 811 l 293 506 q 300 479 293 479 q 318 487 307 479 q 338 504 329 494 l 615 788 q 636 829 636 808 q 629 849 636 840 q 610 861 622 858 q 576 874 586 868 q 567 889 567 879 q 607 904 567 904 l 682 904 q 860 908 714 904 l 907 910 q 929 906 921 910 q 938 894 938 901 q 892 867 938 875 q 681 775 761 843 q 547 654 606 713 q 414 515 488 596 q 411 508 411 513 q 421 490 411 500 l 757 132 q 829 62 806 78 q 910 33 853 46 q 945 22 935 28 q 956 8 956 17 q 915 -7 956 -7 q 815 -3 860 -7 q 722 0 760 0 l 683 0 q 610 -1 665 -1 q 569 14 569 -1 q 578 28 569 24 q 607 38 586 33 q 646 65 646 47 q 625 100 646 76 l 331 425 q 299 449 307 449 q 293 429 293 449 q 300 153 293 344 q 322 72 303 103 q 389 33 340 42 q 424 24 413 29 q 435 8 435 18 q 394 -7 435 -7 q 314 -1 350 -7 q 258 3 289 3 q 210 1 235 3 q 175 -1 186 -1 q 83 -7 122 -7 z "},"L":{"ha":811,"x_min":38,"x_max":799,"o":"m 76 -7 q 48 -2 58 -7 q 38 10 38 3 q 68 33 38 26 q 153 67 125 44 q 181 133 181 89 l 181 778 q 174 827 181 811 q 151 850 167 843 q 96 864 135 857 q 50 892 50 872 q 90 907 50 907 q 176 904 132 907 l 246 903 l 329 904 q 421 907 382 907 q 461 892 461 907 q 415 864 461 872 q 321 838 350 851 q 292 788 292 824 l 292 133 q 313 68 292 88 q 399 49 333 49 l 571 49 q 635 60 606 49 q 679 85 664 71 q 720 127 707 108 q 751 183 733 146 q 765 211 757 197 q 782 225 774 225 q 794 217 790 225 q 799 200 799 210 l 797 193 q 772 91 779 126 q 760 17 764 56 q 740 -7 757 -7 q 467 -3 592 -7 q 264 0 325 0 q 158 -3 221 0 q 76 -7 96 -6 z "},"Ĺ":{"ha":811,"x_min":38,"x_max":799,"o":"m 76 -7 q 48 -2 58 -7 q 38 10 38 3 q 68 33 38 26 q 153 67 125 44 q 181 133 181 89 l 181 778 q 174 827 181 811 q 151 850 167 843 q 96 864 135 857 q 50 892 50 872 q 90 907 50 907 q 176 904 132 907 l 246 903 l 329 904 q 421 907 382 907 q 461 892 461 907 q 415 864 461 872 q 321 838 350 851 q 292 788 292 824 l 292 133 q 313 68 292 88 q 399 49 333 49 l 571 49 q 635 60 606 49 q 679 85 664 71 q 720 127 707 108 q 751 183 733 146 q 765 211 757 197 q 782 225 774 225 q 794 217 790 225 q 799 200 799 210 l 797 193 q 772 91 779 126 q 760 17 764 56 q 740 -7 757 -7 q 467 -3 592 -7 q 264 0 325 0 q 158 -3 221 0 q 76 -7 96 -6 m 214 951 q 206 960 206 951 q 213 981 206 969 q 319 1146 261 1061 q 357 1164 332 1164 q 407 1154 376 1164 q 438 1132 438 1144 q 433 1119 438 1125 q 419 1106 428 1113 q 301 1011 389 1078 l 239 964 q 214 951 222 951 z "},"Ľ":{"ha":811,"x_min":38,"x_max":799,"o":"m 76 -7 q 48 -2 58 -7 q 38 10 38 3 q 68 33 38 26 q 153 67 125 44 q 181 133 181 89 l 181 778 q 174 827 181 811 q 151 850 167 843 q 96 864 135 857 q 50 892 50 872 q 90 907 50 907 q 176 904 132 907 l 246 903 l 329 904 q 421 907 382 907 q 461 892 461 907 q 415 864 461 872 q 321 838 350 851 q 292 788 292 824 l 292 133 q 313 68 292 88 q 399 49 333 49 l 571 49 q 635 60 606 49 q 679 85 664 71 q 720 127 707 108 q 751 183 733 146 q 765 211 757 197 q 782 225 774 225 q 794 217 790 225 q 799 200 799 210 l 797 193 q 772 91 779 126 q 760 17 764 56 q 740 -7 757 -7 q 467 -3 592 -7 q 264 0 325 0 q 158 -3 221 0 q 76 -7 96 -6 m 578 661 q 571 670 574 661 q 568 693 568 679 q 570 719 568 700 q 572 761 572 738 q 568 832 572 778 q 565 863 565 857 q 589 907 565 885 q 635 929 613 929 q 649 919 646 929 q 653 888 653 908 q 639 792 653 849 q 607 696 625 735 q 578 661 590 661 z "},"Ŀ":{"ha":811,"x_min":38,"x_max":799,"o":"m 76 -7 q 48 -2 58 -7 q 38 10 38 3 q 68 33 38 26 q 153 67 125 44 q 181 133 181 89 l 181 778 q 174 827 181 811 q 151 850 167 843 q 96 864 135 857 q 50 892 50 872 q 90 907 50 907 q 176 904 132 907 l 246 903 l 329 904 q 421 907 382 907 q 461 892 461 907 q 415 864 461 872 q 321 838 350 851 q 292 788 292 824 l 292 133 q 313 68 292 88 q 399 49 333 49 l 571 49 q 635 60 606 49 q 679 85 664 71 q 720 127 707 108 q 751 183 733 146 q 765 211 757 197 q 782 225 774 225 q 794 217 790 225 q 799 200 799 210 l 797 193 q 772 91 779 126 q 760 17 764 56 q 740 -7 757 -7 q 467 -3 592 -7 q 264 0 325 0 q 158 -3 221 0 q 76 -7 96 -6 m 657 436 q 608 456 628 436 q 588 506 588 476 q 608 556 588 536 q 657 576 628 576 q 708 556 688 576 q 728 506 728 536 q 708 456 728 476 q 657 436 688 436 z "},"Ł":{"ha":811,"x_min":38,"x_max":799,"o":"m 782 225 q 794 217 790 225 q 799 200 799 210 l 797 193 q 772 91 779 126 q 760 17 764 56 q 740 -7 757 -7 q 467 -3 592 -7 q 264 0 325 0 q 158 -3 221 0 q 76 -7 96 -6 q 48 -2 58 -7 q 38 10 38 3 q 68 33 38 26 q 153 67 125 44 q 181 133 181 89 l 181 392 l 83 357 q 71 354 75 354 q 59 357 64 354 q 54 365 54 360 q 74 411 54 404 l 181 451 l 181 778 q 174 827 181 811 q 151 850 167 843 q 96 864 135 857 q 50 892 50 872 q 90 907 50 907 q 176 904 132 907 l 246 903 l 329 904 q 421 907 382 907 q 461 892 461 907 q 415 864 461 872 q 321 838 350 851 q 292 788 292 824 l 292 486 l 521 571 q 531 572 524 572 q 546 563 546 572 q 538 528 546 543 q 521 511 531 514 l 292 428 l 292 133 q 313 68 292 88 q 399 49 333 49 l 571 49 q 635 60 606 49 q 679 85 664 71 q 720 127 707 108 q 751 183 733 146 q 765 211 757 197 q 782 225 774 225 z "},"M":{"ha":1251,"x_min":26,"x_max":1201,"o":"m 67 -7 q 26 8 26 -7 q 38 24 26 18 q 72 33 49 29 q 158 142 144 46 q 215 733 215 569 q 214 779 215 765 q 209 805 213 794 q 193 825 206 815 q 149 851 171 844 q 89 867 128 858 q 67 877 75 869 q 58 894 58 885 q 70 907 58 904 q 106 910 82 910 q 210 904 124 910 q 314 899 296 899 q 340 876 333 899 l 350 840 q 371 769 363 790 l 590 213 q 608 200 594 200 q 622 208 618 200 l 896 778 q 921 882 913 840 q 935 900 925 900 l 985 900 q 1085 907 1006 900 q 1143 911 1121 911 q 1172 897 1172 911 q 1165 882 1172 888 q 1136 868 1157 876 q 1103 856 1124 864 q 1054 836 1082 847 q 1030 817 1039 829 q 1021 789 1021 804 q 1026 560 1021 667 q 1040 310 1031 453 q 1051 132 1049 196 q 1078 66 1053 89 q 1156 33 1103 43 q 1190 24 1179 29 q 1201 8 1201 18 q 1161 -7 1201 -7 q 1072 -3 1110 -7 q 999 0 1028 0 q 936 -3 975 0 q 853 -7 906 -7 q 813 8 813 -7 q 858 33 813 28 q 914 61 899 39 q 929 133 929 83 q 924 395 929 275 q 918 538 919 515 q 913 644 915 572 q 904 658 911 658 q 890 644 899 658 l 571 -7 q 558 -15 569 -15 q 546 -6 550 -15 q 290 654 450 279 q 281 661 288 661 q 272 654 274 661 q 238 369 247 469 q 228 142 228 269 q 252 72 228 103 q 318 33 276 42 q 353 24 342 29 q 364 8 364 18 q 324 -7 364 -7 q 244 -3 272 -7 q 193 0 217 0 q 144 -3 172 0 q 67 -7 90 -7 z "},"N":{"ha":1100,"x_min":17,"x_max":1086,"o":"m 928 -24 q 874 0 911 -24 q 808 64 838 24 q 647 258 797 81 q 428 518 496 436 q 297 672 317 649 q 268 694 279 694 q 258 685 261 694 q 256 665 256 676 q 249 144 249 322 q 338 33 249 50 q 372 24 361 29 q 383 8 383 18 q 343 -7 383 -7 q 264 -3 292 -7 q 213 0 236 0 q 164 -3 192 0 q 86 -7 110 -7 q 46 8 46 -7 q 56 22 46 17 q 92 35 67 28 q 172 149 163 54 q 190 392 182 239 q 197 704 197 546 q 163 806 197 772 q 60 861 129 839 q 32 874 47 865 q 17 894 17 883 q 27 910 17 906 q 49 914 38 914 l 146 910 q 263 907 213 907 q 280 902 274 907 q 296 883 286 897 q 531 594 313 860 q 842 217 749 329 q 876 189 865 189 q 890 218 889 189 q 893 783 893 324 q 865 832 892 808 q 813 860 838 856 q 750 888 750 871 q 768 899 750 894 q 807 903 786 903 l 886 903 l 956 904 q 1046 907 1000 907 q 1086 892 1086 907 q 1040 864 1086 872 q 972 839 989 854 q 953 789 956 824 q 950 146 950 739 q 956 40 950 90 l 957 11 q 928 -24 957 -24 z "},"Ń":{"ha":1100,"x_min":17,"x_max":1086,"o":"m 928 -24 q 874 0 911 -24 q 808 64 838 24 q 647 258 797 81 q 428 518 496 436 q 297 672 317 649 q 268 694 279 694 q 258 685 261 694 q 256 665 256 676 q 249 144 249 322 q 338 33 249 50 q 372 24 361 29 q 383 8 383 18 q 343 -7 383 -7 q 264 -3 292 -7 q 213 0 236 0 q 164 -3 192 0 q 86 -7 110 -7 q 46 8 46 -7 q 56 22 46 17 q 92 35 67 28 q 172 149 163 54 q 190 392 182 239 q 197 704 197 546 q 163 806 197 772 q 60 861 129 839 q 32 874 47 865 q 17 894 17 883 q 27 910 17 906 q 49 914 38 914 l 146 910 q 263 907 213 907 q 280 902 274 907 q 296 883 286 897 q 531 594 313 860 q 842 217 749 329 q 876 189 865 189 q 890 218 889 189 q 893 783 893 324 q 865 832 892 808 q 813 860 838 856 q 750 888 750 871 q 768 899 750 894 q 807 903 786 903 l 886 903 l 956 904 q 1046 907 1000 907 q 1086 892 1086 907 q 1040 864 1086 872 q 972 839 989 854 q 953 789 956 824 q 950 146 950 739 q 956 40 950 90 l 957 11 q 928 -24 957 -24 m 518 951 q 510 960 510 951 q 517 981 510 969 q 624 1146 565 1061 q 661 1164 636 1164 q 711 1154 681 1164 q 742 1132 742 1144 q 737 1119 742 1125 q 724 1106 732 1113 q 606 1011 693 1078 l 543 964 q 518 951 526 951 z "},"Ň":{"ha":1100,"x_min":17,"x_max":1086,"o":"m 928 -24 q 874 0 911 -24 q 808 64 838 24 q 647 258 797 81 q 428 518 496 436 q 297 672 317 649 q 268 694 279 694 q 258 685 261 694 q 256 665 256 676 q 249 144 249 322 q 338 33 249 50 q 372 24 361 29 q 383 8 383 18 q 343 -7 383 -7 q 264 -3 292 -7 q 213 0 236 0 q 164 -3 192 0 q 86 -7 110 -7 q 46 8 46 -7 q 56 22 46 17 q 92 35 67 28 q 172 149 163 54 q 190 392 182 239 q 197 704 197 546 q 163 806 197 772 q 60 861 129 839 q 32 874 47 865 q 17 894 17 883 q 27 910 17 906 q 49 914 38 914 l 146 910 q 263 907 213 907 q 280 902 274 907 q 296 883 286 897 q 531 594 313 860 q 842 217 749 329 q 876 189 865 189 q 890 218 889 189 q 893 783 893 324 q 865 832 892 808 q 813 860 838 856 q 750 888 750 871 q 768 899 750 894 q 807 903 786 903 l 886 903 l 956 904 q 1046 907 1000 907 q 1086 892 1086 907 q 1040 864 1086 872 q 972 839 989 854 q 953 789 956 824 q 950 146 950 739 q 956 40 950 90 l 957 11 q 928 -24 957 -24 m 383 1142 q 458 1113 396 1142 q 551 1065 519 1083 q 565 1060 563 1060 q 579 1065 568 1060 q 674 1114 613 1085 q 747 1143 735 1143 q 762 1139 757 1143 q 767 1128 767 1135 q 758 1111 767 1118 l 622 1003 q 588 978 597 983 q 565 972 579 972 q 542 978 551 972 q 508 1003 533 983 l 372 1111 q 363 1128 363 1119 q 368 1138 363 1135 q 383 1142 374 1142 z "},"Ŋ":{"ha":1069,"x_min":24,"x_max":1076,"o":"m 751 -354 q 678 -326 706 -354 q 650 -251 650 -297 q 658 -226 650 -232 q 689 -217 665 -219 q 801 -192 763 -208 q 855 -149 840 -176 q 869 -76 869 -122 q 860 -27 869 -51 q 838 15 851 -3 q 573 342 749 126 q 304 672 397 558 q 275 694 286 694 q 265 685 268 694 q 263 665 263 676 q 256 144 256 322 q 344 33 256 50 q 379 24 368 29 q 390 8 390 18 q 350 -7 390 -7 q 271 -3 299 -7 q 219 0 243 0 q 171 -3 199 0 q 93 -7 117 -7 q 53 8 53 -7 q 64 24 53 18 q 99 33 75 29 q 153 80 132 39 q 179 149 175 121 q 197 388 189 233 q 204 704 204 542 q 170 806 204 772 q 67 861 136 839 q 39 874 54 865 q 24 894 24 883 q 34 910 24 906 q 56 914 44 914 l 153 910 q 269 907 219 907 q 287 902 281 907 q 303 883 293 897 q 531 594 321 858 q 832 217 742 329 q 867 189 856 189 q 881 218 879 189 q 883 783 883 324 q 855 832 882 808 q 803 860 828 856 q 757 888 757 868 q 797 903 757 903 l 876 903 l 946 904 q 1036 907 990 907 q 1076 892 1076 907 q 1031 864 1076 872 q 961 839 979 854 q 943 789 943 824 l 943 19 q 918 -162 943 -76 q 849 -301 893 -249 q 751 -354 806 -354 z "},"Ñ":{"ha":1100,"x_min":17,"x_max":1086,"o":"m 928 -24 q 874 0 911 -24 q 808 64 838 24 q 647 258 797 81 q 428 518 496 436 q 297 672 317 649 q 268 694 279 694 q 258 685 261 694 q 256 665 256 676 q 249 144 249 322 q 338 33 249 50 q 372 24 361 29 q 383 8 383 18 q 343 -7 383 -7 q 264 -3 292 -7 q 213 0 236 0 q 164 -3 192 0 q 86 -7 110 -7 q 46 8 46 -7 q 56 22 46 17 q 92 35 67 28 q 172 149 163 54 q 190 392 182 239 q 197 704 197 546 q 163 806 197 772 q 60 861 129 839 q 32 874 47 865 q 17 894 17 883 q 27 910 17 906 q 49 914 38 914 l 146 910 q 263 907 213 907 q 280 902 274 907 q 296 883 286 897 q 531 594 313 860 q 842 217 749 329 q 876 189 865 189 q 890 218 889 189 q 893 783 893 324 q 865 832 892 808 q 813 860 838 856 q 750 888 750 871 q 768 899 750 894 q 807 903 786 903 l 886 903 l 956 904 q 1046 907 1000 907 q 1086 892 1086 907 q 1040 864 1086 872 q 972 839 989 854 q 953 789 956 824 q 950 146 950 739 q 956 40 950 90 l 957 11 q 928 -24 957 -24 m 408 961 q 394 969 401 961 q 386 983 386 976 q 408 1020 386 990 q 458 1075 431 1050 q 500 1100 485 1100 q 594 1096 556 1100 q 683 1090 656 1090 q 738 1117 711 1090 q 753 1134 744 1124 q 765 1144 761 1144 q 784 1138 776 1144 q 792 1121 792 1131 q 772 1096 792 1115 q 735 1053 756 1079 q 707 1018 714 1026 q 687 1003 700 1008 q 667 999 674 999 q 601 1003 647 999 q 485 1010 497 1010 q 460 1005 474 1010 q 439 993 447 1000 q 420 974 431 986 q 408 961 410 961 z "},"O":{"ha":1060,"x_min":63,"x_max":997,"o":"m 524 -19 q 295 38 401 -19 q 126 200 189 96 q 63 438 63 304 q 118 676 63 565 q 281 855 174 788 q 536 922 388 922 q 765 865 658 922 q 934 703 871 807 q 997 465 997 599 q 942 226 997 338 q 779 48 886 115 q 524 -19 672 -19 m 544 36 q 782 133 700 36 q 864 397 864 229 q 824 635 864 529 q 705 802 783 740 q 514 864 626 864 q 278 769 360 864 q 196 507 196 674 q 235 268 196 375 q 353 99 275 161 q 544 36 432 36 z "},"Ó":{"ha":1060,"x_min":63,"x_max":997,"o":"m 524 -19 q 295 38 401 -19 q 126 200 189 96 q 63 438 63 304 q 118 676 63 565 q 281 855 174 788 q 536 922 388 922 q 765 865 658 922 q 934 703 871 807 q 997 465 997 599 q 942 226 997 338 q 779 48 886 115 q 524 -19 672 -19 m 544 36 q 782 133 700 36 q 864 397 864 229 q 824 635 864 529 q 705 802 783 740 q 514 864 626 864 q 278 769 360 864 q 196 507 196 674 q 235 268 196 375 q 353 99 275 161 q 544 36 432 36 m 497 951 q 489 960 489 951 q 496 981 489 969 q 603 1146 544 1061 q 640 1164 615 1164 q 690 1154 660 1164 q 721 1132 721 1144 q 716 1119 721 1125 q 703 1106 711 1113 q 585 1011 672 1078 l 522 964 q 497 951 506 951 z "},"Ŏ":{"ha":1060,"x_min":63,"x_max":997,"o":"m 524 -19 q 295 38 401 -19 q 126 200 189 96 q 63 438 63 304 q 118 676 63 565 q 281 855 174 788 q 536 922 388 922 q 765 865 658 922 q 934 703 871 807 q 997 465 997 599 q 942 226 997 338 q 779 48 886 115 q 524 -19 672 -19 m 544 36 q 782 133 700 36 q 864 397 864 229 q 824 635 864 529 q 705 802 783 740 q 514 864 626 864 q 278 769 360 864 q 196 507 196 674 q 235 268 196 375 q 353 99 275 161 q 544 36 432 36 m 543 961 q 444 985 488 961 q 377 1042 401 1008 q 353 1106 353 1076 q 357 1129 353 1119 q 367 1139 361 1139 q 389 1126 379 1139 q 400 1110 399 1113 q 543 1044 456 1044 q 686 1110 631 1044 q 697 1126 688 1113 q 719 1139 707 1139 q 731 1131 729 1139 q 733 1106 733 1124 q 709 1042 733 1076 q 642 985 685 1008 q 543 961 599 961 z "},"Ô":{"ha":1060,"x_min":63,"x_max":997,"o":"m 524 -19 q 295 38 401 -19 q 126 200 189 96 q 63 438 63 304 q 118 676 63 565 q 281 855 174 788 q 536 922 388 922 q 765 865 658 922 q 934 703 871 807 q 997 465 997 599 q 942 226 997 338 q 779 48 886 115 q 524 -19 672 -19 m 544 36 q 782 133 700 36 q 864 397 864 229 q 824 635 864 529 q 705 802 783 740 q 514 864 626 864 q 278 769 360 864 q 196 507 196 674 q 235 268 196 375 q 353 99 275 161 q 544 36 432 36 m 361 967 q 346 971 351 967 q 340 981 340 975 q 350 997 340 989 l 486 1113 q 519 1138 508 1132 q 543 1143 529 1143 q 567 1138 557 1143 q 600 1113 578 1132 l 736 997 q 744 981 744 990 q 740 969 744 974 q 725 965 735 965 q 651 994 713 965 q 557 1043 590 1024 q 543 1049 550 1049 q 529 1043 536 1049 q 435 996 497 1025 q 361 967 374 967 z "},"Ö":{"ha":1060,"x_min":63,"x_max":997,"o":"m 524 -19 q 295 38 401 -19 q 126 200 189 96 q 63 438 63 304 q 118 676 63 565 q 281 855 174 788 q 536 922 388 922 q 765 865 658 922 q 934 703 871 807 q 997 465 997 599 q 942 226 997 338 q 779 48 886 115 q 524 -19 672 -19 m 544 36 q 782 133 700 36 q 864 397 864 229 q 824 635 864 529 q 705 802 783 740 q 514 864 626 864 q 278 769 360 864 q 196 507 196 674 q 235 268 196 375 q 353 99 275 161 q 544 36 432 36 m 408 965 q 359 985 379 965 q 339 1035 339 1006 q 359 1084 339 1064 q 408 1104 379 1104 q 458 1084 438 1104 q 478 1035 478 1064 q 458 985 478 1006 q 408 965 438 965 m 679 965 q 630 985 650 965 q 610 1035 610 1006 q 630 1084 610 1064 q 679 1104 650 1104 q 728 1084 708 1104 q 749 1035 749 1064 q 728 985 749 1006 q 679 965 708 965 z "},"Ò":{"ha":1060,"x_min":63,"x_max":997,"o":"m 524 -19 q 295 38 401 -19 q 126 200 189 96 q 63 438 63 304 q 118 676 63 565 q 281 855 174 788 q 536 922 388 922 q 765 865 658 922 q 934 703 871 807 q 997 465 997 599 q 942 226 997 338 q 779 48 886 115 q 524 -19 672 -19 m 544 36 q 782 133 700 36 q 864 397 864 229 q 824 635 864 529 q 705 802 783 740 q 514 864 626 864 q 278 769 360 864 q 196 507 196 674 q 235 268 196 375 q 353 99 275 161 q 544 36 432 36 m 588 951 q 563 964 579 951 l 500 1011 q 382 1106 413 1078 q 369 1119 374 1113 q 364 1132 364 1125 q 394 1154 364 1144 q 444 1164 425 1164 q 482 1146 469 1164 q 589 981 540 1061 q 596 960 596 969 q 588 951 596 951 z "},"Ơ":{"ha":1060,"x_min":63,"x_max":1079,"o":"m 531 -19 q 301 42 408 -19 q 128 210 193 103 q 63 444 63 317 q 117 681 63 572 q 278 856 172 790 q 531 922 385 922 q 681 906 619 922 q 803 861 742 889 q 882 828 856 838 q 942 818 908 818 q 984 829 967 818 q 1001 854 1001 840 q 995 874 1001 867 q 975 886 989 881 q 951 899 960 892 q 943 921 943 906 q 973 974 943 946 q 1026 1001 1003 1001 q 1063 974 1046 1001 q 1079 918 1079 946 q 1058 840 1079 876 q 1002 782 1038 804 q 926 760 967 760 q 908 753 913 760 q 908 742 904 747 q 976 612 954 674 q 997 465 997 550 q 942 226 997 338 q 782 48 888 115 q 531 -19 676 -19 m 549 35 q 782 138 701 35 q 863 424 863 242 q 774 747 863 626 q 521 868 685 868 q 349 815 422 868 q 236 673 275 761 q 197 486 197 585 q 242 264 197 368 q 368 97 288 160 q 549 35 449 35 z "},"Ő":{"ha":1060,"x_min":63,"x_max":997,"o":"m 524 -19 q 295 38 401 -19 q 126 200 189 96 q 63 438 63 304 q 118 676 63 565 q 281 855 174 788 q 536 922 388 922 q 765 865 658 922 q 934 703 871 807 q 997 465 997 599 q 942 226 997 338 q 779 48 886 115 q 524 -19 672 -19 m 544 36 q 782 133 700 36 q 864 397 864 229 q 824 635 864 529 q 705 802 783 740 q 514 864 626 864 q 278 769 360 864 q 196 507 196 674 q 235 268 196 375 q 353 99 275 161 q 544 36 432 36 m 586 951 q 578 960 578 951 q 585 981 578 969 q 692 1146 633 1061 q 729 1164 704 1164 q 779 1154 749 1164 q 810 1132 810 1144 q 805 1119 810 1125 q 792 1106 800 1113 q 674 1011 761 1078 l 611 964 q 586 951 594 951 m 403 951 q 394 960 394 951 q 401 981 394 969 q 508 1146 450 1061 q 546 1164 521 1164 q 596 1154 565 1164 q 626 1132 626 1144 q 622 1119 626 1125 q 608 1106 617 1113 q 490 1011 578 1078 l 428 964 q 403 951 411 951 z "},"Ō":{"ha":1060,"x_min":63,"x_max":997,"o":"m 524 -19 q 295 38 401 -19 q 126 200 189 96 q 63 438 63 304 q 118 676 63 565 q 281 855 174 788 q 536 922 388 922 q 765 865 658 922 q 934 703 871 807 q 997 465 997 599 q 942 226 997 338 q 779 48 886 115 q 524 -19 672 -19 m 544 36 q 782 133 700 36 q 864 397 864 229 q 824 635 864 529 q 705 802 783 740 q 514 864 626 864 q 278 769 360 864 q 196 507 196 674 q 235 268 196 375 q 353 99 275 161 q 544 36 432 36 m 360 1004 q 347 1010 353 1004 q 340 1021 340 1015 q 349 1058 340 1038 q 374 1079 357 1079 l 739 1079 q 751 1074 746 1079 q 757 1063 757 1068 q 744 1023 757 1042 q 714 1004 731 1004 l 360 1004 z "},"Ø":{"ha":1074,"x_min":58,"x_max":999,"o":"m 890 764 q 969 628 942 703 q 997 465 997 553 q 942 226 997 338 q 779 48 886 115 q 524 -19 672 -19 q 358 10 438 -19 q 217 92 279 39 l 110 -15 q 97 -19 106 -19 q 71 -11 83 -19 q 58 8 58 -3 q 72 36 58 22 l 174 136 q 92 272 121 196 q 63 438 63 349 q 118 676 63 565 q 281 855 174 788 q 536 922 388 922 q 706 892 624 922 q 850 804 788 861 l 961 914 q 976 919 967 919 q 994 908 990 919 q 999 888 999 892 q 989 863 999 872 l 890 764 m 196 507 q 257 218 196 340 l 774 729 q 514 864 679 864 q 278 769 360 864 q 196 507 196 674 m 864 397 q 804 678 864 563 l 290 165 q 544 36 383 36 q 782 133 700 36 q 864 397 864 229 z "},"Ǿ":{"ha":1074,"x_min":58,"x_max":999,"o":"m 890 764 q 969 628 942 703 q 997 465 997 553 q 942 226 997 338 q 779 48 886 115 q 524 -19 672 -19 q 358 10 438 -19 q 217 92 279 39 l 110 -15 q 97 -19 106 -19 q 71 -11 83 -19 q 58 8 58 -3 q 72 36 58 22 l 174 136 q 92 272 121 196 q 63 438 63 349 q 118 676 63 565 q 281 855 174 788 q 536 922 388 922 q 706 892 624 922 q 850 804 788 861 l 961 914 q 976 919 967 919 q 994 908 990 919 q 999 888 999 892 q 989 863 999 872 l 890 764 m 196 507 q 257 218 196 340 l 774 729 q 514 864 679 864 q 278 769 360 864 q 196 507 196 674 m 864 397 q 804 678 864 563 l 290 165 q 544 36 383 36 q 782 133 700 36 q 864 397 864 229 m 497 951 q 489 960 489 951 q 496 981 489 969 q 603 1146 544 1061 q 640 1164 615 1164 q 690 1154 660 1164 q 721 1132 721 1144 q 716 1119 721 1125 q 703 1106 711 1113 q 585 1011 672 1078 l 522 964 q 497 951 506 951 z "},"Õ":{"ha":1060,"x_min":63,"x_max":997,"o":"m 524 -19 q 295 38 401 -19 q 126 200 189 96 q 63 438 63 304 q 118 676 63 565 q 281 855 174 788 q 536 922 388 922 q 765 865 658 922 q 934 703 871 807 q 997 465 997 599 q 942 226 997 338 q 779 48 886 115 q 524 -19 672 -19 m 544 36 q 782 133 700 36 q 864 397 864 229 q 824 635 864 529 q 705 802 783 740 q 514 864 626 864 q 278 769 360 864 q 196 507 196 674 q 235 268 196 375 q 353 99 275 161 q 544 36 432 36 m 388 961 q 373 969 381 961 q 365 983 365 976 q 388 1020 365 990 q 437 1075 410 1050 q 479 1100 464 1100 q 574 1096 535 1100 q 663 1090 635 1090 q 717 1117 690 1090 q 732 1134 724 1124 q 744 1144 740 1144 q 763 1138 756 1144 q 771 1121 771 1131 q 751 1096 771 1115 q 714 1053 735 1079 q 686 1018 693 1026 q 666 1003 679 1008 q 646 999 653 999 q 581 1003 626 999 q 464 1010 476 1010 q 440 1005 453 1010 q 418 993 426 1000 q 399 974 410 986 q 388 961 389 961 z "},"Œ":{"ha":1315,"x_min":63,"x_max":1281,"o":"m 1263 197 q 1281 178 1281 197 q 1265 102 1281 160 q 1238 17 1250 44 q 1233 7 1236 14 q 1227 -3 1231 0 q 1218 -7 1224 -7 q 974 -3 1190 -7 q 783 1 878 1 q 711 -3 743 1 q 643 -7 653 -7 q 524 -19 588 -19 q 295 38 401 -19 q 126 200 189 96 q 63 438 63 304 q 118 676 63 565 q 281 855 174 788 q 536 922 388 922 q 657 907 596 922 l 767 906 q 879 903 833 903 l 1069 904 l 1188 907 q 1213 894 1211 907 q 1224 833 1215 883 q 1233 751 1233 783 q 1214 731 1233 731 q 1204 733 1207 731 q 1199 744 1201 736 q 1188 781 1196 751 q 1168 821 1179 810 q 1075 858 1135 858 l 893 858 q 861 845 879 858 q 843 814 843 832 l 843 519 q 851 498 843 507 q 868 489 858 489 l 1006 489 q 1060 503 1044 489 q 1086 557 1075 517 q 1111 588 1094 588 q 1123 581 1117 588 q 1129 565 1129 575 l 1128 529 l 1125 468 l 1126 394 l 1128 361 q 1115 338 1128 338 q 1083 382 1094 338 q 1060 430 1075 415 q 1019 444 1046 444 l 890 444 q 853 438 864 444 q 843 408 843 431 l 843 142 q 865 69 843 90 q 935 49 886 49 l 1038 49 q 1113 54 1083 49 q 1164 72 1143 60 q 1202 110 1185 86 q 1243 179 1219 135 q 1263 197 1253 197 m 199 479 q 289 157 199 278 q 543 36 379 36 q 650 44 608 36 q 713 71 692 51 q 732 138 732 94 l 732 754 q 665 843 724 821 q 514 865 607 865 q 280 762 361 865 q 199 479 199 658 z "},"P":{"ha":767,"x_min":33,"x_max":732,"o":"m 74 -7 q 33 8 33 -7 q 44 24 33 18 q 79 33 56 29 q 157 66 133 43 q 181 139 181 89 l 181 725 q 163 824 181 792 q 96 864 146 856 q 50 892 50 872 q 90 907 50 907 q 168 906 150 907 l 226 906 q 275 907 247 906 q 317 910 303 908 q 381 914 353 914 q 636 848 540 914 q 732 667 732 782 q 698 508 732 579 q 594 394 664 436 q 421 353 524 353 q 376 361 393 353 q 358 379 358 369 q 366 392 358 385 q 381 399 374 399 q 402 397 385 399 q 444 396 419 396 q 569 464 526 396 q 613 657 613 532 q 549 819 613 764 q 381 875 486 875 q 292 817 292 875 l 292 154 q 313 72 292 101 q 385 33 335 43 q 419 24 408 29 q 431 8 431 18 q 390 -7 431 -7 q 310 -1 346 -7 q 254 3 285 3 q 203 1 229 3 q 167 -1 178 -1 q 74 -7 111 -7 z "},"Þ":{"ha":776,"x_min":31,"x_max":721,"o":"m 71 -7 q 31 8 31 -7 q 42 24 31 18 q 76 33 53 29 q 159 67 132 43 q 186 138 186 90 l 186 763 q 171 832 186 808 q 107 864 156 856 q 61 892 61 872 q 101 907 61 907 q 185 904 143 907 l 246 903 l 321 904 q 411 907 371 907 q 451 892 451 907 q 406 864 451 872 q 324 832 350 854 q 297 763 297 810 l 297 739 q 299 719 297 728 q 306 711 300 711 q 325 715 315 713 q 338 718 335 718 q 438 728 375 728 q 582 697 518 728 q 683 608 646 667 q 721 468 721 549 q 617 251 721 324 q 356 179 513 179 q 331 181 344 179 q 308 183 317 183 q 297 171 297 183 l 297 133 q 325 67 297 90 q 407 33 353 43 q 442 24 431 29 q 453 8 453 18 q 413 -7 453 -7 q 324 -3 361 -7 q 250 0 279 0 q 164 -3 217 0 q 71 -7 125 -7 m 368 219 q 540 286 478 219 q 601 465 601 353 q 554 625 601 561 q 415 689 507 689 q 340 681 364 689 q 306 651 315 672 q 297 583 297 629 l 297 300 q 317 240 297 260 q 368 219 338 219 z "},"Q":{"ha":1060,"x_min":63,"x_max":1221,"o":"m 1033 -344 q 869 -319 939 -344 q 726 -240 800 -293 l 701 -222 q 608 -155 656 -190 q 507 -75 560 -119 q 442 -30 472 -46 q 385 -3 411 -14 q 347 14 360 8 q 63 438 63 147 q 118 676 63 565 q 281 855 174 788 q 536 922 388 922 q 765 865 658 922 q 934 703 871 807 q 997 465 997 599 q 958 262 997 358 q 843 95 919 165 q 660 -3 767 25 q 649 -12 649 -6 q 654 -25 649 -19 q 831 -179 731 -107 q 960 -248 900 -229 q 1101 -267 1019 -267 q 1179 -257 1157 -267 q 1206 -251 1196 -251 q 1221 -262 1221 -251 q 1216 -282 1221 -275 q 1196 -299 1211 -289 q 1033 -344 1119 -344 m 544 36 q 782 133 700 36 q 864 397 864 229 q 824 635 864 529 q 705 802 783 740 q 514 864 626 864 q 278 769 360 864 q 196 507 196 674 q 235 268 196 375 q 353 99 275 161 q 544 36 432 36 z "},"R":{"ha":990,"x_min":33,"x_max":997,"o":"m 885 -29 q 774 -12 821 -29 q 693 46 728 4 q 588 181 629 125 q 482 342 546 238 q 422 396 461 376 q 313 425 376 418 l 310 425 q 292 397 292 425 l 292 153 q 385 33 292 50 q 419 24 408 29 q 431 8 431 18 q 390 -7 431 -7 q 310 -1 346 -7 q 254 3 285 3 q 203 1 229 3 q 167 -1 178 -1 q 74 -7 111 -7 q 33 8 33 -7 q 44 24 33 18 q 79 33 56 29 q 157 66 133 43 q 181 139 181 89 l 181 731 q 176 813 181 789 q 153 849 171 838 q 96 864 136 860 q 62 874 74 865 q 50 892 50 882 q 90 907 50 907 q 168 906 150 907 l 226 906 q 289 908 247 906 q 386 913 364 913 q 619 855 539 913 q 699 685 699 797 q 535 451 699 535 q 531 444 531 450 q 535 433 531 440 q 676 231 622 301 q 817 81 729 160 q 885 43 850 51 q 976 35 919 35 q 997 19 997 35 q 960 -18 997 -7 q 885 -29 924 -29 m 365 457 q 474 485 426 457 q 548 561 522 514 q 574 663 574 608 q 532 816 574 761 q 369 871 490 871 q 312 844 326 871 q 294 742 297 817 q 292 506 292 647 q 308 465 292 474 q 365 457 325 457 z "},"Ŕ":{"ha":990,"x_min":33,"x_max":997,"o":"m 885 -29 q 774 -12 821 -29 q 693 46 728 4 q 588 181 629 125 q 482 342 546 238 q 422 396 461 376 q 313 425 376 418 l 310 425 q 292 397 292 425 l 292 153 q 385 33 292 50 q 419 24 408 29 q 431 8 431 18 q 390 -7 431 -7 q 310 -1 346 -7 q 254 3 285 3 q 203 1 229 3 q 167 -1 178 -1 q 74 -7 111 -7 q 33 8 33 -7 q 44 24 33 18 q 79 33 56 29 q 157 66 133 43 q 181 139 181 89 l 181 731 q 176 813 181 789 q 153 849 171 838 q 96 864 136 860 q 62 874 74 865 q 50 892 50 882 q 90 907 50 907 q 168 906 150 907 l 226 906 q 289 908 247 906 q 386 913 364 913 q 619 855 539 913 q 699 685 699 797 q 535 451 699 535 q 531 444 531 450 q 535 433 531 440 q 676 231 622 301 q 817 81 729 160 q 885 43 850 51 q 976 35 919 35 q 997 19 997 35 q 960 -18 997 -7 q 885 -29 924 -29 m 365 457 q 474 485 426 457 q 548 561 522 514 q 574 663 574 608 q 532 816 574 761 q 369 871 490 871 q 312 844 326 871 q 294 742 297 817 q 292 506 292 647 q 308 465 292 474 q 365 457 325 457 m 346 951 q 338 960 338 951 q 344 981 338 969 q 451 1146 393 1061 q 489 1164 464 1164 q 539 1154 508 1164 q 569 1132 569 1144 q 565 1119 569 1125 q 551 1106 560 1113 q 433 1011 521 1078 l 371 964 q 346 951 354 951 z "},"Ř":{"ha":990,"x_min":33,"x_max":997,"o":"m 885 -29 q 774 -12 821 -29 q 693 46 728 4 q 588 181 629 125 q 482 342 546 238 q 422 396 461 376 q 313 425 376 418 l 310 425 q 292 397 292 425 l 292 153 q 385 33 292 50 q 419 24 408 29 q 431 8 431 18 q 390 -7 431 -7 q 310 -1 346 -7 q 254 3 285 3 q 203 1 229 3 q 167 -1 178 -1 q 74 -7 111 -7 q 33 8 33 -7 q 44 24 33 18 q 79 33 56 29 q 157 66 133 43 q 181 139 181 89 l 181 731 q 176 813 181 789 q 153 849 171 838 q 96 864 136 860 q 62 874 74 865 q 50 892 50 882 q 90 907 50 907 q 168 906 150 907 l 226 906 q 289 908 247 906 q 386 913 364 913 q 619 855 539 913 q 699 685 699 797 q 535 451 699 535 q 531 444 531 450 q 535 433 531 440 q 676 231 622 301 q 817 81 729 160 q 885 43 850 51 q 976 35 919 35 q 997 19 997 35 q 960 -18 997 -7 q 885 -29 924 -29 m 365 457 q 474 485 426 457 q 548 561 522 514 q 574 663 574 608 q 532 816 574 761 q 369 871 490 871 q 312 844 326 871 q 294 742 297 817 q 292 506 292 647 q 308 465 292 474 q 365 457 325 457 m 211 1142 q 285 1113 224 1142 q 379 1065 347 1083 q 393 1060 390 1060 q 407 1065 396 1060 q 501 1114 440 1085 q 575 1143 563 1143 q 590 1139 585 1143 q 594 1128 594 1135 q 586 1111 594 1118 l 450 1003 q 416 978 425 983 q 393 972 407 972 q 370 978 379 972 q 336 1003 361 983 l 200 1111 q 190 1128 190 1119 q 196 1138 190 1135 q 211 1142 201 1142 z "},"S":{"ha":646,"x_min":56,"x_max":586,"o":"m 283 -22 q 88 44 167 -22 q 69 72 72 60 q 57 188 64 97 l 56 218 q 63 233 56 228 q 83 238 71 238 q 106 222 101 238 q 184 72 131 121 q 303 24 238 24 q 422 70 375 24 q 469 193 469 117 q 452 283 469 247 q 404 342 435 318 q 313 404 374 367 l 285 421 q 178 493 217 463 q 111 568 139 524 q 83 669 83 613 q 158 851 83 781 q 374 922 233 922 q 519 892 444 922 q 538 878 529 888 q 549 857 546 868 q 569 778 563 808 q 576 719 576 749 q 556 704 576 704 q 531 710 543 704 q 517 724 519 715 q 447 838 486 800 q 350 875 407 875 q 235 837 281 875 q 190 717 190 799 q 215 644 190 678 q 278 583 240 611 q 385 514 317 556 q 490 442 450 474 q 558 363 531 410 q 586 250 586 315 q 503 52 586 126 q 283 -22 419 -22 z "},"Ś":{"ha":646,"x_min":56,"x_max":586,"o":"m 283 -22 q 88 44 167 -22 q 69 72 72 60 q 57 188 64 97 l 56 218 q 63 233 56 228 q 83 238 71 238 q 106 222 101 238 q 184 72 131 121 q 303 24 238 24 q 422 70 375 24 q 469 193 469 117 q 452 283 469 247 q 404 342 435 318 q 313 404 374 367 l 285 421 q 178 493 217 463 q 111 568 139 524 q 83 669 83 613 q 158 851 83 781 q 374 922 233 922 q 519 892 444 922 q 538 878 529 888 q 549 857 546 868 q 569 778 563 808 q 576 719 576 749 q 556 704 576 704 q 531 710 543 704 q 517 724 519 715 q 447 838 486 800 q 350 875 407 875 q 235 837 281 875 q 190 717 190 799 q 215 644 190 678 q 278 583 240 611 q 385 514 317 556 q 490 442 450 474 q 558 363 531 410 q 586 250 586 315 q 503 52 586 126 q 283 -22 419 -22 m 328 951 q 319 960 319 951 q 326 981 319 969 q 433 1146 375 1061 q 471 1164 446 1164 q 521 1154 490 1164 q 551 1132 551 1144 q 547 1119 551 1125 q 533 1106 542 1113 q 415 1011 503 1078 l 353 964 q 328 951 336 951 z "},"Š":{"ha":646,"x_min":56,"x_max":586,"o":"m 283 -22 q 88 44 167 -22 q 69 72 72 60 q 57 188 64 97 l 56 218 q 63 233 56 228 q 83 238 71 238 q 106 222 101 238 q 184 72 131 121 q 303 24 238 24 q 422 70 375 24 q 469 193 469 117 q 452 283 469 247 q 404 342 435 318 q 313 404 374 367 l 285 421 q 178 493 217 463 q 111 568 139 524 q 83 669 83 613 q 158 851 83 781 q 374 922 233 922 q 519 892 444 922 q 538 878 529 888 q 549 857 546 868 q 569 778 563 808 q 576 719 576 749 q 556 704 576 704 q 531 710 543 704 q 517 724 519 715 q 447 838 486 800 q 350 875 407 875 q 235 837 281 875 q 190 717 190 799 q 215 644 190 678 q 278 583 240 611 q 385 514 317 556 q 490 442 450 474 q 558 363 531 410 q 586 250 586 315 q 503 52 586 126 q 283 -22 419 -22 m 193 1142 q 267 1113 206 1142 q 361 1065 329 1083 q 375 1060 372 1060 q 389 1065 378 1060 q 483 1114 422 1085 q 557 1143 544 1143 q 572 1139 567 1143 q 576 1128 576 1135 q 568 1111 576 1118 l 432 1003 q 398 978 407 983 q 375 972 389 972 q 352 978 361 972 q 318 1003 343 983 l 182 1111 q 172 1128 172 1119 q 178 1138 172 1135 q 193 1142 183 1142 z "},"Ş":{"ha":646,"x_min":56,"x_max":586,"o":"m 283 -22 q 88 44 167 -22 q 69 72 72 60 q 57 188 64 97 l 56 218 q 63 233 56 228 q 83 238 71 238 q 106 222 101 238 q 184 72 131 121 q 303 24 238 24 q 422 70 375 24 q 469 193 469 117 q 452 283 469 247 q 404 342 435 318 q 313 404 374 367 l 285 421 q 178 493 217 463 q 111 568 139 524 q 83 669 83 613 q 158 851 83 781 q 374 922 233 922 q 519 892 444 922 q 538 878 529 888 q 549 857 546 868 q 569 778 563 808 q 576 719 576 749 q 556 704 576 704 q 531 710 543 704 q 517 724 519 715 q 447 838 486 800 q 350 875 407 875 q 235 837 281 875 q 190 717 190 799 q 215 644 190 678 q 278 583 240 611 q 385 514 317 556 q 490 442 450 474 q 558 363 531 410 q 586 250 586 315 q 503 52 586 126 q 283 -22 419 -22 m 250 -382 q 203 -370 219 -382 q 188 -337 188 -358 q 194 -303 188 -315 q 210 -290 200 -290 q 231 -299 213 -290 q 297 -308 249 -308 q 341 -293 326 -308 q 356 -254 356 -278 q 338 -198 356 -217 q 290 -179 319 -179 q 272 -181 282 -179 q 254 -183 263 -183 q 228 -175 238 -183 q 218 -160 218 -167 q 226 -139 218 -150 l 338 11 l 381 11 l 329 -67 q 324 -81 324 -74 q 338 -97 324 -90 q 401 -144 372 -111 q 429 -221 429 -176 q 399 -302 429 -265 q 326 -360 368 -339 q 250 -382 283 -382 z "},"Ŝ":{"ha":646,"x_min":56,"x_max":586,"o":"m 283 -22 q 88 44 167 -22 q 69 72 72 60 q 57 188 64 97 l 56 218 q 63 233 56 228 q 83 238 71 238 q 106 222 101 238 q 184 72 131 121 q 303 24 238 24 q 422 70 375 24 q 469 193 469 117 q 452 283 469 247 q 404 342 435 318 q 313 404 374 367 l 285 421 q 178 493 217 463 q 111 568 139 524 q 83 669 83 613 q 158 851 83 781 q 374 922 233 922 q 519 892 444 922 q 538 878 529 888 q 549 857 546 868 q 569 778 563 808 q 576 719 576 749 q 556 704 576 704 q 531 710 543 704 q 517 724 519 715 q 447 838 486 800 q 350 875 407 875 q 235 837 281 875 q 190 717 190 799 q 215 644 190 678 q 278 583 240 611 q 385 514 317 556 q 490 442 450 474 q 558 363 531 410 q 586 250 586 315 q 503 52 586 126 q 283 -22 419 -22 m 192 967 q 176 971 182 967 q 171 981 171 975 q 181 997 171 989 l 317 1113 q 349 1138 339 1132 q 374 1143 360 1143 q 398 1138 388 1143 q 431 1113 408 1132 l 567 997 q 575 981 575 990 q 570 969 575 974 q 556 965 565 965 q 482 994 543 965 q 388 1043 421 1024 q 374 1049 381 1049 q 360 1043 367 1049 q 266 996 328 1025 q 192 967 204 967 z "},"ẞ":{"ha":971,"x_min":46,"x_max":913,"o":"m 569 -19 q 451 0 518 -19 q 432 17 438 4 q 405 107 419 42 q 389 208 390 172 l 389 210 q 397 224 389 218 q 417 231 406 231 q 435 200 421 231 q 507 78 467 129 q 610 28 547 28 q 702 59 663 28 q 763 141 742 90 q 783 249 783 192 q 706 415 783 365 q 486 464 629 464 q 461 478 451 464 l 694 811 l 697 818 q 674 839 697 828 q 540 869 607 869 q 335 769 407 868 q 264 517 264 671 q 267 142 264 201 q 286 76 267 104 q 325 42 306 47 q 361 28 351 33 q 371 14 371 22 q 331 -1 371 -1 l 210 4 l 86 -3 q 46 13 46 -3 q 92 43 46 31 q 138 74 119 50 q 156 144 156 99 l 156 528 q 208 738 156 649 q 356 874 261 826 q 574 921 451 921 q 828 869 682 921 q 841 858 835 867 q 843 844 847 850 l 785 769 l 743 715 q 611 533 667 614 q 608 526 608 531 q 617 517 608 517 q 763 479 694 513 q 872 390 831 446 q 913 265 913 333 q 823 57 913 133 q 569 -19 733 -19 z "},"Ə":{"ha":924,"x_min":38,"x_max":861,"o":"m 425 921 q 633 869 533 921 q 797 713 733 817 q 861 461 861 608 q 801 220 861 331 q 636 44 740 110 q 407 -21 532 -21 q 222 22 307 -21 q 88 138 138 64 q 38 303 38 211 q 56 344 38 331 q 99 358 74 358 l 725 358 q 728 410 728 394 q 690 639 728 536 q 576 803 651 742 q 393 864 501 864 q 222 811 289 864 q 115 688 154 758 q 81 661 103 661 q 68 681 68 661 q 69 697 68 692 q 88 774 75 729 q 115 842 101 819 q 133 853 119 847 q 151 860 147 858 l 183 871 q 425 921 313 921 m 421 31 q 624 113 550 31 q 719 315 699 194 l 206 314 q 174 302 186 314 q 163 272 163 290 q 235 92 163 153 q 421 31 308 31 z "},"T":{"ha":931,"x_min":38,"x_max":928,"o":"m 297 -7 q 257 8 257 -7 q 268 24 257 18 q 303 33 279 29 q 384 68 357 43 q 411 142 411 93 l 411 681 q 405 806 411 774 q 382 842 399 839 q 340 847 364 846 q 283 847 315 847 l 218 847 q 150 833 182 847 q 104 793 118 819 q 78 758 96 776 q 47 740 61 740 q 38 758 38 740 q 44 786 38 772 q 72 855 64 824 q 88 932 81 886 q 111 964 92 964 q 127 949 115 964 q 146 919 139 933 q 183 899 154 906 q 243 892 211 892 l 732 892 q 864 913 818 892 q 888 928 872 917 q 918 940 904 940 q 925 930 922 940 q 928 908 928 919 q 922 869 928 903 l 914 828 q 908 788 908 811 l 908 771 q 902 742 908 757 q 886 726 896 726 q 871 740 876 726 q 860 783 865 753 q 825 831 854 814 q 732 847 796 847 l 592 847 q 544 839 557 847 q 526 799 531 831 q 522 688 522 768 l 522 142 q 550 68 522 93 q 632 33 578 43 q 667 24 656 29 q 678 8 678 18 q 638 -7 678 -7 q 549 -3 586 -7 q 475 0 504 0 q 390 -3 440 0 q 297 -7 349 -7 z "},"Ŧ":{"ha":931,"x_min":38,"x_max":928,"o":"m 918 940 q 925 930 922 940 q 928 908 928 919 q 922 869 928 903 l 914 828 q 908 788 908 811 l 908 771 q 902 742 908 757 q 886 726 896 726 q 871 740 876 726 q 860 783 865 753 q 825 831 854 814 q 732 847 796 847 l 592 847 q 544 839 557 847 q 526 799 531 831 q 522 688 522 768 l 522 511 l 706 511 q 720 505 714 511 q 724 492 726 499 q 681 461 707 461 l 522 461 l 522 142 q 550 68 522 93 q 632 33 578 43 q 667 24 656 29 q 678 8 678 18 q 638 -7 678 -7 q 549 -3 586 -7 q 475 0 504 0 q 390 -3 440 0 q 297 -7 349 -7 q 257 8 257 -7 q 268 24 257 18 q 303 33 279 29 q 384 68 357 43 q 411 142 411 93 l 411 461 l 238 461 q 224 469 229 461 q 218 486 218 478 q 228 503 218 496 q 251 511 239 511 l 411 511 l 411 681 q 405 806 411 774 q 382 842 399 839 q 340 847 364 846 q 283 847 315 847 l 218 847 q 150 833 182 847 q 104 793 118 819 q 78 758 96 776 q 47 740 61 740 q 38 758 38 740 q 44 786 38 772 q 72 855 64 824 q 88 932 81 886 q 111 964 92 964 q 127 949 115 964 q 146 919 139 933 q 183 899 154 906 q 243 892 211 892 l 732 892 q 864 913 818 892 q 888 928 872 917 q 918 940 904 940 z "},"Ť":{"ha":931,"x_min":38,"x_max":928,"o":"m 297 -7 q 257 8 257 -7 q 268 24 257 18 q 303 33 279 29 q 384 68 357 43 q 411 142 411 93 l 411 681 q 405 806 411 774 q 382 842 399 839 q 340 847 364 846 q 283 847 315 847 l 218 847 q 150 833 182 847 q 104 793 118 819 q 78 758 96 776 q 47 740 61 740 q 38 758 38 740 q 44 786 38 772 q 72 855 64 824 q 88 932 81 886 q 111 964 92 964 q 127 949 115 964 q 146 919 139 933 q 183 899 154 906 q 243 892 211 892 l 732 892 q 864 913 818 892 q 888 928 872 917 q 918 940 904 940 q 925 930 922 940 q 928 908 928 919 q 922 869 928 903 l 914 828 q 908 788 908 811 l 908 771 q 902 742 908 757 q 886 726 896 726 q 871 740 876 726 q 860 783 865 753 q 825 831 854 814 q 732 847 796 847 l 592 847 q 544 839 557 847 q 526 799 531 831 q 522 688 522 768 l 522 142 q 550 68 522 93 q 632 33 578 43 q 667 24 656 29 q 678 8 678 18 q 638 -7 678 -7 q 549 -3 586 -7 q 475 0 504 0 q 390 -3 440 0 q 297 -7 349 -7 m 292 1142 q 366 1113 304 1142 q 460 1065 428 1083 q 474 1060 471 1060 q 488 1065 476 1060 q 582 1114 521 1085 q 656 1143 643 1143 q 670 1139 665 1143 q 675 1128 675 1135 q 667 1111 675 1118 l 531 1003 q 497 978 506 983 q 474 972 488 972 q 451 978 460 972 q 417 1003 442 983 l 281 1111 q 271 1128 271 1119 q 276 1138 271 1135 q 292 1142 282 1142 z "},"U":{"ha":1025,"x_min":33,"x_max":1011,"o":"m 517 -19 q 239 75 335 -19 q 143 333 143 169 l 143 760 q 125 830 143 806 q 79 861 107 854 q 33 892 33 874 q 74 907 33 907 l 133 906 q 207 903 178 903 l 274 904 q 318 906 290 906 q 358 890 358 906 q 349 876 358 882 q 313 863 339 871 q 274 828 293 857 q 254 763 254 800 l 254 372 q 333 131 254 211 q 546 50 413 50 q 753 147 685 50 q 822 411 822 243 q 817 710 822 496 q 801 810 815 768 q 760 861 788 853 q 714 889 714 874 q 754 904 714 904 l 858 903 q 924 906 885 903 l 971 907 q 1011 892 1011 907 q 965 864 1011 874 q 896 760 900 851 q 888 587 890 675 q 885 468 886 499 q 882 347 885 428 q 831 158 879 242 q 700 27 782 74 q 517 -19 618 -19 z "},"Ú":{"ha":1025,"x_min":33,"x_max":1011,"o":"m 517 -19 q 239 75 335 -19 q 143 333 143 169 l 143 760 q 125 830 143 806 q 79 861 107 854 q 33 892 33 874 q 74 907 33 907 l 133 906 q 207 903 178 903 l 274 904 q 318 906 290 906 q 358 890 358 906 q 349 876 358 882 q 313 863 339 871 q 274 828 293 857 q 254 763 254 800 l 254 372 q 333 131 254 211 q 546 50 413 50 q 753 147 685 50 q 822 411 822 243 q 817 710 822 496 q 801 810 815 768 q 760 861 788 853 q 714 889 714 874 q 754 904 714 904 l 858 903 q 924 906 885 903 l 971 907 q 1011 892 1011 907 q 965 864 1011 874 q 896 760 900 851 q 888 587 890 675 q 885 468 886 499 q 882 347 885 428 q 831 158 879 242 q 700 27 782 74 q 517 -19 618 -19 m 496 951 q 488 960 488 951 q 494 981 488 969 q 601 1146 543 1061 q 639 1164 614 1164 q 689 1154 658 1164 q 719 1132 719 1144 q 715 1119 719 1125 q 701 1106 710 1113 q 583 1011 671 1078 l 521 964 q 496 951 504 951 z "},"Ŭ":{"ha":1025,"x_min":33,"x_max":1011,"o":"m 517 -19 q 239 75 335 -19 q 143 333 143 169 l 143 760 q 125 830 143 806 q 79 861 107 854 q 33 892 33 874 q 74 907 33 907 l 133 906 q 207 903 178 903 l 274 904 q 318 906 290 906 q 358 890 358 906 q 349 876 358 882 q 313 863 339 871 q 274 828 293 857 q 254 763 254 800 l 254 372 q 333 131 254 211 q 546 50 413 50 q 753 147 685 50 q 822 411 822 243 q 817 710 822 496 q 801 810 815 768 q 760 861 788 853 q 714 889 714 874 q 754 904 714 904 l 858 903 q 924 906 885 903 l 971 907 q 1011 892 1011 907 q 965 864 1011 874 q 896 760 900 851 q 888 587 890 675 q 885 468 886 499 q 882 347 885 428 q 831 158 879 242 q 700 27 782 74 q 517 -19 618 -19 m 542 961 q 443 985 486 961 q 376 1042 400 1008 q 351 1106 351 1076 q 356 1129 351 1119 q 365 1139 360 1139 q 388 1126 378 1139 q 399 1110 397 1113 q 542 1044 454 1044 q 685 1110 629 1044 q 696 1126 686 1113 q 718 1139 706 1139 q 730 1131 728 1139 q 732 1106 732 1124 q 708 1042 732 1076 q 640 985 683 1008 q 542 961 597 961 z "},"Û":{"ha":1025,"x_min":33,"x_max":1011,"o":"m 517 -19 q 239 75 335 -19 q 143 333 143 169 l 143 760 q 125 830 143 806 q 79 861 107 854 q 33 892 33 874 q 74 907 33 907 l 133 906 q 207 903 178 903 l 274 904 q 318 906 290 906 q 358 890 358 906 q 349 876 358 882 q 313 863 339 871 q 274 828 293 857 q 254 763 254 800 l 254 372 q 333 131 254 211 q 546 50 413 50 q 753 147 685 50 q 822 411 822 243 q 817 710 822 496 q 801 810 815 768 q 760 861 788 853 q 714 889 714 874 q 754 904 714 904 l 858 903 q 924 906 885 903 l 971 907 q 1011 892 1011 907 q 965 864 1011 874 q 896 760 900 851 q 888 587 890 675 q 885 468 886 499 q 882 347 885 428 q 831 158 879 242 q 700 27 782 74 q 517 -19 618 -19 m 360 967 q 344 971 350 967 q 339 981 339 975 q 349 997 339 989 l 485 1113 q 517 1138 507 1132 q 542 1143 528 1143 q 566 1138 556 1143 q 599 1113 576 1132 l 735 997 q 743 981 743 990 q 738 969 743 974 q 724 965 733 965 q 650 994 711 965 q 556 1043 589 1024 q 542 1049 549 1049 q 528 1043 535 1049 q 434 996 496 1025 q 360 967 372 967 z "},"Ü":{"ha":1025,"x_min":33,"x_max":1011,"o":"m 517 -19 q 239 75 335 -19 q 143 333 143 169 l 143 760 q 125 830 143 806 q 79 861 107 854 q 33 892 33 874 q 74 907 33 907 l 133 906 q 207 903 178 903 l 274 904 q 318 906 290 906 q 358 890 358 906 q 349 876 358 882 q 313 863 339 871 q 274 828 293 857 q 254 763 254 800 l 254 372 q 333 131 254 211 q 546 50 413 50 q 753 147 685 50 q 822 411 822 243 q 817 710 822 496 q 801 810 815 768 q 760 861 788 853 q 714 889 714 874 q 754 904 714 904 l 858 903 q 924 906 885 903 l 971 907 q 1011 892 1011 907 q 965 864 1011 874 q 896 760 900 851 q 888 587 890 675 q 885 468 886 499 q 882 347 885 428 q 831 158 879 242 q 700 27 782 74 q 517 -19 618 -19 m 407 965 q 358 985 378 965 q 338 1035 338 1006 q 358 1084 338 1064 q 407 1104 378 1104 q 456 1084 436 1104 q 476 1035 476 1064 q 456 985 476 1006 q 407 965 436 965 m 678 965 q 628 985 649 965 q 608 1035 608 1006 q 628 1084 608 1064 q 678 1104 649 1104 q 727 1084 707 1104 q 747 1035 747 1064 q 727 985 747 1006 q 678 965 707 965 z "},"Ù":{"ha":1025,"x_min":33,"x_max":1011,"o":"m 517 -19 q 239 75 335 -19 q 143 333 143 169 l 143 760 q 125 830 143 806 q 79 861 107 854 q 33 892 33 874 q 74 907 33 907 l 133 906 q 207 903 178 903 l 274 904 q 318 906 290 906 q 358 890 358 906 q 349 876 358 882 q 313 863 339 871 q 274 828 293 857 q 254 763 254 800 l 254 372 q 333 131 254 211 q 546 50 413 50 q 753 147 685 50 q 822 411 822 243 q 817 710 822 496 q 801 810 815 768 q 760 861 788 853 q 714 889 714 874 q 754 904 714 904 l 858 903 q 924 906 885 903 l 971 907 q 1011 892 1011 907 q 965 864 1011 874 q 896 760 900 851 q 888 587 890 675 q 885 468 886 499 q 882 347 885 428 q 831 158 879 242 q 700 27 782 74 q 517 -19 618 -19 m 586 951 q 561 964 578 951 l 499 1011 q 381 1106 411 1078 q 367 1119 372 1113 q 363 1132 363 1125 q 393 1154 363 1144 q 443 1164 424 1164 q 481 1146 468 1164 q 588 981 539 1061 q 594 960 594 969 q 586 951 594 951 z "},"Ư":{"ha":1025,"x_min":33,"x_max":1086,"o":"m 528 -19 q 240 108 336 -19 q 143 447 143 235 l 143 760 q 125 830 143 806 q 79 861 107 854 q 33 892 33 874 q 74 907 33 907 l 133 906 q 207 903 178 903 l 274 904 q 318 906 290 906 q 358 890 358 906 q 349 876 358 882 q 313 863 339 871 q 274 828 293 857 q 254 763 254 800 l 254 408 q 293 234 254 317 q 401 101 332 151 q 560 50 471 50 q 756 149 689 50 q 822 417 822 249 q 817 710 822 496 q 801 810 815 768 q 760 861 788 853 q 714 889 714 874 q 754 904 714 904 l 836 903 l 968 903 q 1001 919 989 903 q 1014 944 1014 935 q 1006 958 1014 953 q 983 971 999 964 q 958 986 967 979 q 950 1006 950 993 q 977 1053 950 1026 q 1033 1079 1004 1079 q 1069 1048 1053 1079 q 1086 990 1086 1017 q 1046 898 1086 933 q 939 846 1006 863 q 906 822 914 839 q 896 760 899 804 q 888 588 890 675 q 885 471 886 501 q 882 353 885 433 q 832 161 879 246 q 706 28 785 76 q 528 -19 626 -19 z "},"Ű":{"ha":1025,"x_min":33,"x_max":1011,"o":"m 517 -19 q 239 75 335 -19 q 143 333 143 169 l 143 760 q 125 830 143 806 q 79 861 107 854 q 33 892 33 874 q 74 907 33 907 l 133 906 q 207 903 178 903 l 274 904 q 318 906 290 906 q 358 890 358 906 q 349 876 358 882 q 313 863 339 871 q 274 828 293 857 q 254 763 254 800 l 254 372 q 333 131 254 211 q 546 50 413 50 q 753 147 685 50 q 822 411 822 243 q 817 710 822 496 q 801 810 815 768 q 760 861 788 853 q 714 889 714 874 q 754 904 714 904 l 858 903 q 924 906 885 903 l 971 907 q 1011 892 1011 907 q 965 864 1011 874 q 896 760 900 851 q 888 587 890 675 q 885 468 886 499 q 882 347 885 428 q 831 158 879 242 q 700 27 782 74 q 517 -19 618 -19 m 585 951 q 576 960 576 951 q 583 981 576 969 q 690 1146 632 1061 q 728 1164 703 1164 q 778 1154 747 1164 q 808 1132 808 1144 q 803 1119 808 1125 q 790 1106 799 1113 q 672 1011 760 1078 l 610 964 q 585 951 593 951 m 401 951 q 393 960 393 951 q 400 981 393 969 q 507 1146 449 1061 q 544 1164 519 1164 q 594 1154 564 1164 q 625 1132 625 1144 q 620 1119 625 1125 q 607 1106 615 1113 q 489 1011 576 1078 l 426 964 q 401 951 410 951 z "},"Ū":{"ha":1025,"x_min":33,"x_max":1011,"o":"m 517 -19 q 239 75 335 -19 q 143 333 143 169 l 143 760 q 125 830 143 806 q 79 861 107 854 q 33 892 33 874 q 74 907 33 907 l 133 906 q 207 903 178 903 l 274 904 q 318 906 290 906 q 358 890 358 906 q 349 876 358 882 q 313 863 339 871 q 274 828 293 857 q 254 763 254 800 l 254 372 q 333 131 254 211 q 546 50 413 50 q 753 147 685 50 q 822 411 822 243 q 817 710 822 496 q 801 810 815 768 q 760 861 788 853 q 714 889 714 874 q 754 904 714 904 l 858 903 q 924 906 885 903 l 971 907 q 1011 892 1011 907 q 965 864 1011 874 q 896 760 900 851 q 888 587 890 675 q 885 468 886 499 q 882 347 885 428 q 831 158 879 242 q 700 27 782 74 q 517 -19 618 -19 m 358 1004 q 345 1010 351 1004 q 339 1021 339 1015 q 347 1058 339 1038 q 372 1079 356 1079 l 738 1079 q 750 1074 744 1079 q 756 1063 756 1068 q 742 1023 756 1042 q 713 1004 729 1004 l 358 1004 z "},"Ų":{"ha":1025,"x_min":33,"x_max":1011,"o":"m 517 -19 q 239 75 335 -19 q 143 333 143 169 l 143 760 q 125 830 143 806 q 79 861 107 854 q 33 892 33 874 q 74 907 33 907 l 133 906 q 207 903 178 903 l 274 904 q 318 906 290 906 q 358 890 358 906 q 349 876 358 882 q 313 863 339 871 q 274 828 293 857 q 254 763 254 800 l 254 372 q 333 131 254 211 q 546 50 413 50 q 753 147 685 50 q 822 411 822 243 q 817 710 822 496 q 801 810 815 768 q 760 861 788 853 q 714 889 714 874 q 754 904 714 904 l 858 903 q 924 906 885 903 l 971 907 q 1011 892 1011 907 q 965 864 1011 874 q 896 760 900 851 q 888 587 890 675 q 885 468 886 499 q 882 347 885 428 q 831 158 879 242 q 700 27 782 74 q 517 -19 618 -19 m 581 -399 q 469 -353 515 -399 q 422 -242 422 -307 q 475 -120 422 -179 q 594 -16 528 -61 q 660 25 660 29 l 696 25 q 653 -9 696 29 q 575 -101 610 -47 q 540 -215 540 -154 q 567 -276 540 -251 q 632 -300 594 -300 q 682 -286 657 -300 q 724 -260 707 -272 q 746 -244 740 -247 l 753 -242 q 763 -253 763 -242 q 733 -317 763 -282 q 660 -375 703 -351 q 581 -399 617 -399 z "},"Ů":{"ha":1025,"x_min":33,"x_max":1011,"o":"m 517 -19 q 239 75 335 -19 q 143 333 143 169 l 143 760 q 125 830 143 806 q 79 861 107 854 q 33 892 33 874 q 74 907 33 907 l 133 906 q 207 903 178 903 l 274 904 q 318 906 290 906 q 358 890 358 906 q 349 876 358 882 q 313 863 339 871 q 274 828 293 857 q 254 763 254 800 l 254 372 q 333 131 254 211 q 546 50 413 50 q 753 147 685 50 q 822 411 822 243 q 817 710 822 496 q 801 810 815 768 q 760 861 788 853 q 714 889 714 874 q 754 904 714 904 l 858 903 q 924 906 885 903 l 971 907 q 1011 892 1011 907 q 965 864 1011 874 q 896 760 900 851 q 888 587 890 675 q 885 468 886 499 q 882 347 885 428 q 831 158 879 242 q 700 27 782 74 q 517 -19 618 -19 m 539 1172 q 619 1147 585 1172 q 654 1079 654 1121 q 617 1002 654 1032 q 528 972 579 972 q 447 999 481 972 q 413 1068 413 1025 q 451 1143 413 1114 q 539 1172 489 1172 m 471 1072 q 491 1023 471 1043 q 540 1003 511 1003 q 581 1024 565 1003 q 596 1072 596 1044 q 576 1120 596 1100 q 529 1140 557 1140 q 487 1120 503 1140 q 471 1072 471 1100 z "},"Ũ":{"ha":1025,"x_min":33,"x_max":1011,"o":"m 517 -19 q 239 75 335 -19 q 143 333 143 169 l 143 760 q 125 830 143 806 q 79 861 107 854 q 33 892 33 874 q 74 907 33 907 l 133 906 q 207 903 178 903 l 274 904 q 318 906 290 906 q 358 890 358 906 q 349 876 358 882 q 313 863 339 871 q 274 828 293 857 q 254 763 254 800 l 254 372 q 333 131 254 211 q 546 50 413 50 q 753 147 685 50 q 822 411 822 243 q 817 710 822 496 q 801 810 815 768 q 760 861 788 853 q 714 889 714 874 q 754 904 714 904 l 858 903 q 924 906 885 903 l 971 907 q 1011 892 1011 907 q 965 864 1011 874 q 896 760 900 851 q 888 587 890 675 q 885 468 886 499 q 882 347 885 428 q 831 158 879 242 q 700 27 782 74 q 517 -19 618 -19 m 386 961 q 372 969 379 961 q 364 983 364 976 q 386 1020 364 990 q 435 1075 408 1050 q 478 1100 463 1100 q 572 1096 533 1100 q 661 1090 633 1090 q 715 1117 689 1090 q 731 1134 722 1124 q 743 1144 739 1144 q 762 1138 754 1144 q 769 1121 769 1131 q 750 1096 769 1115 q 713 1053 733 1079 q 685 1018 692 1026 q 665 1003 678 1008 q 644 999 651 999 q 579 1003 625 999 q 463 1010 475 1010 q 438 1005 451 1010 q 417 993 425 1000 q 398 974 408 986 q 386 961 388 961 z "},"V":{"ha":933,"x_min":0,"x_max":942,"o":"m 442 -17 q 426 -7 431 -17 q 397 78 422 3 l 143 760 q 46 861 113 842 q 11 876 22 869 q 0 892 0 883 q 40 907 0 907 l 108 906 q 210 903 172 903 l 304 904 q 351 906 324 906 q 392 890 392 906 q 380 872 392 881 q 346 863 368 864 q 256 808 256 853 q 263 763 256 782 q 271 740 269 743 l 471 213 q 478 206 474 206 q 486 214 482 206 l 676 714 q 690 779 690 750 q 669 837 690 817 q 611 861 647 857 q 578 872 590 864 q 565 889 565 879 q 606 904 565 904 l 743 903 q 838 906 776 903 l 901 907 q 942 892 942 907 q 896 864 942 874 q 813 819 849 853 q 760 743 778 785 l 499 110 l 489 83 q 456 -7 472 29 q 442 -17 451 -17 z "},"Ɣ":{"ha":933,"x_min":0,"x_max":942,"o":"m 424 -397 q 334 -353 365 -397 q 303 -242 303 -310 q 325 -128 303 -201 q 396 49 347 -54 q 403 72 403 65 q 396 96 403 82 l 143 760 q 46 861 113 842 q 11 876 22 869 q 0 892 0 883 q 40 907 0 907 l 108 906 q 210 903 172 903 l 304 904 q 351 906 324 906 q 392 890 392 906 q 346 863 392 871 q 285 840 313 856 q 258 806 258 824 q 271 740 258 772 l 451 261 q 466 226 460 240 q 478 213 472 213 q 490 223 483 213 q 501 250 496 233 l 693 760 q 699 782 696 768 q 704 804 703 796 q 684 838 704 824 q 611 861 664 851 q 579 873 593 865 q 565 889 565 881 q 606 904 565 904 l 743 903 q 838 906 776 903 l 901 907 q 942 892 942 907 q 896 864 942 874 q 813 819 849 853 q 760 743 778 785 l 522 157 q 513 121 513 133 q 519 89 513 110 l 572 -64 q 594 -142 589 -111 q 599 -215 599 -174 q 575 -305 599 -262 q 512 -372 551 -347 q 424 -397 472 -397 m 439 -332 q 496 -240 496 -332 q 483 -153 496 -212 q 451 -39 471 -93 q 442 -31 450 -31 q 431 -39 435 -31 q 381 -224 381 -154 q 397 -301 381 -271 q 439 -332 413 -332 z "},"W":{"ha":1272,"x_min":0,"x_max":1292,"o":"m 465 -22 q 446 17 461 -22 l 146 769 q 46 861 113 842 q 11 876 22 869 q 0 892 0 883 q 40 907 0 907 l 99 906 q 164 903 140 903 l 247 904 q 293 906 265 906 q 333 890 333 906 q 323 875 333 881 q 288 863 313 869 q 260 817 260 856 q 265 781 260 799 q 271 757 269 763 q 381 483 333 596 q 499 211 428 369 q 510 197 504 197 q 519 210 515 197 l 628 478 q 636 510 636 499 q 625 550 636 521 l 546 747 q 492 819 529 789 q 414 861 454 850 q 379 876 390 868 q 368 892 368 883 q 408 907 368 907 l 468 906 q 539 903 513 903 l 603 904 q 646 906 619 906 q 686 890 686 906 q 680 878 686 883 q 661 865 674 872 q 629 832 629 851 q 632 821 629 829 q 660 745 642 793 q 694 664 679 697 q 699 653 696 661 q 707 646 703 646 q 719 664 711 646 q 775 821 747 726 q 776 831 776 825 q 769 851 776 843 q 747 867 761 858 q 739 872 746 868 q 728 881 732 876 q 725 890 725 885 q 765 906 725 906 l 810 904 q 838 903 818 903 l 878 904 q 919 907 903 907 q 960 892 960 907 q 914 864 960 874 q 856 842 872 854 q 819 797 839 829 q 785 725 808 778 q 746 626 763 672 q 738 597 740 614 q 738 574 735 581 l 881 206 q 885 200 883 200 q 896 214 889 200 q 1065 751 949 354 q 1074 801 1074 776 q 1032 861 1074 850 q 986 889 986 874 q 1026 904 986 904 l 1126 903 q 1197 906 1153 903 l 1251 907 q 1292 892 1292 907 q 1246 864 1292 874 q 1132 742 1172 847 l 886 15 q 877 -5 883 7 q 864 -17 871 -17 q 851 -8 858 -17 q 840 10 844 0 q 732 278 789 125 l 669 439 q 664 447 665 447 q 654 431 661 447 q 574 235 607 318 q 496 21 542 151 q 482 -9 490 4 q 465 -22 474 -22 z "},"Ẃ":{"ha":1272,"x_min":0,"x_max":1292,"o":"m 465 -22 q 446 17 461 -22 l 146 769 q 46 861 113 842 q 11 876 22 869 q 0 892 0 883 q 40 907 0 907 l 99 906 q 164 903 140 903 l 247 904 q 293 906 265 906 q 333 890 333 906 q 323 875 333 881 q 288 863 313 869 q 260 817 260 856 q 265 781 260 799 q 271 757 269 763 q 381 483 333 596 q 499 211 428 369 q 510 197 504 197 q 519 210 515 197 l 628 478 q 636 510 636 499 q 625 550 636 521 l 546 747 q 492 819 529 789 q 414 861 454 850 q 379 876 390 868 q 368 892 368 883 q 408 907 368 907 l 468 906 q 539 903 513 903 l 603 904 q 646 906 619 906 q 686 890 686 906 q 680 878 686 883 q 661 865 674 872 q 629 832 629 851 q 632 821 629 829 q 660 745 642 793 q 694 664 679 697 q 699 653 696 661 q 707 646 703 646 q 719 664 711 646 q 775 821 747 726 q 776 831 776 825 q 769 851 776 843 q 747 867 761 858 q 739 872 746 868 q 728 881 732 876 q 725 890 725 885 q 765 906 725 906 l 810 904 q 838 903 818 903 l 878 904 q 919 907 903 907 q 960 892 960 907 q 914 864 960 874 q 856 842 872 854 q 819 797 839 829 q 785 725 808 778 q 746 626 763 672 q 738 597 740 614 q 738 574 735 581 l 881 206 q 885 200 883 200 q 896 214 889 200 q 1065 751 949 354 q 1074 801 1074 776 q 1032 861 1074 850 q 986 889 986 874 q 1026 904 986 904 l 1126 903 q 1197 906 1153 903 l 1251 907 q 1292 892 1292 907 q 1246 864 1292 874 q 1132 742 1172 847 l 886 15 q 877 -5 883 7 q 864 -17 871 -17 q 851 -8 858 -17 q 840 10 844 0 q 732 278 789 125 l 669 439 q 664 447 665 447 q 654 431 661 447 q 574 235 607 318 q 496 21 542 151 q 482 -9 490 4 q 465 -22 474 -22 m 663 951 q 654 960 654 951 q 661 981 654 969 q 768 1146 710 1061 q 806 1164 781 1164 q 856 1154 825 1164 q 886 1132 886 1144 q 881 1119 886 1125 q 868 1106 876 1113 q 750 1011 838 1078 l 688 964 q 663 951 671 951 z "},"Ŵ":{"ha":1272,"x_min":0,"x_max":1292,"o":"m 465 -22 q 446 17 461 -22 l 146 769 q 46 861 113 842 q 11 876 22 869 q 0 892 0 883 q 40 907 0 907 l 99 906 q 164 903 140 903 l 247 904 q 293 906 265 906 q 333 890 333 906 q 323 875 333 881 q 288 863 313 869 q 260 817 260 856 q 265 781 260 799 q 271 757 269 763 q 381 483 333 596 q 499 211 428 369 q 510 197 504 197 q 519 210 515 197 l 628 478 q 636 510 636 499 q 625 550 636 521 l 546 747 q 492 819 529 789 q 414 861 454 850 q 379 876 390 868 q 368 892 368 883 q 408 907 368 907 l 468 906 q 539 903 513 903 l 603 904 q 646 906 619 906 q 686 890 686 906 q 680 878 686 883 q 661 865 674 872 q 629 832 629 851 q 632 821 629 829 q 660 745 642 793 q 694 664 679 697 q 699 653 696 661 q 707 646 703 646 q 719 664 711 646 q 775 821 747 726 q 776 831 776 825 q 769 851 776 843 q 747 867 761 858 q 739 872 746 868 q 728 881 732 876 q 725 890 725 885 q 765 906 725 906 l 810 904 q 838 903 818 903 l 878 904 q 919 907 903 907 q 960 892 960 907 q 914 864 960 874 q 856 842 872 854 q 819 797 839 829 q 785 725 808 778 q 746 626 763 672 q 738 597 740 614 q 738 574 735 581 l 881 206 q 885 200 883 200 q 896 214 889 200 q 1065 751 949 354 q 1074 801 1074 776 q 1032 861 1074 850 q 986 889 986 874 q 1026 904 986 904 l 1126 903 q 1197 906 1153 903 l 1251 907 q 1292 892 1292 907 q 1246 864 1292 874 q 1132 742 1172 847 l 886 15 q 877 -5 883 7 q 864 -17 871 -17 q 851 -8 858 -17 q 840 10 844 0 q 732 278 789 125 l 669 439 q 664 447 665 447 q 654 431 661 447 q 574 235 607 318 q 496 21 542 151 q 482 -9 490 4 q 465 -22 474 -22 m 526 967 q 511 971 517 967 q 506 981 506 975 q 515 997 506 989 l 651 1113 q 684 1138 674 1132 q 708 1143 694 1143 q 733 1138 722 1143 q 765 1113 743 1132 l 901 997 q 910 981 910 990 q 905 969 910 974 q 890 965 900 965 q 817 994 878 965 q 722 1043 756 1024 q 708 1049 715 1049 q 694 1043 701 1049 q 601 996 663 1025 q 526 967 539 967 z "},"Ẅ":{"ha":1272,"x_min":0,"x_max":1292,"o":"m 465 -22 q 446 17 461 -22 l 146 769 q 46 861 113 842 q 11 876 22 869 q 0 892 0 883 q 40 907 0 907 l 99 906 q 164 903 140 903 l 247 904 q 293 906 265 906 q 333 890 333 906 q 323 875 333 881 q 288 863 313 869 q 260 817 260 856 q 265 781 260 799 q 271 757 269 763 q 381 483 333 596 q 499 211 428 369 q 510 197 504 197 q 519 210 515 197 l 628 478 q 636 510 636 499 q 625 550 636 521 l 546 747 q 492 819 529 789 q 414 861 454 850 q 379 876 390 868 q 368 892 368 883 q 408 907 368 907 l 468 906 q 539 903 513 903 l 603 904 q 646 906 619 906 q 686 890 686 906 q 680 878 686 883 q 661 865 674 872 q 629 832 629 851 q 632 821 629 829 q 660 745 642 793 q 694 664 679 697 q 699 653 696 661 q 707 646 703 646 q 719 664 711 646 q 775 821 747 726 q 776 831 776 825 q 769 851 776 843 q 747 867 761 858 q 739 872 746 868 q 728 881 732 876 q 725 890 725 885 q 765 906 725 906 l 810 904 q 838 903 818 903 l 878 904 q 919 907 903 907 q 960 892 960 907 q 914 864 960 874 q 856 842 872 854 q 819 797 839 829 q 785 725 808 778 q 746 626 763 672 q 738 597 740 614 q 738 574 735 581 l 881 206 q 885 200 883 200 q 896 214 889 200 q 1065 751 949 354 q 1074 801 1074 776 q 1032 861 1074 850 q 986 889 986 874 q 1026 904 986 904 l 1126 903 q 1197 906 1153 903 l 1251 907 q 1292 892 1292 907 q 1246 864 1292 874 q 1132 742 1172 847 l 886 15 q 877 -5 883 7 q 864 -17 871 -17 q 851 -8 858 -17 q 840 10 844 0 q 732 278 789 125 l 669 439 q 664 447 665 447 q 654 431 661 447 q 574 235 607 318 q 496 21 542 151 q 482 -9 490 4 q 465 -22 474 -22 m 574 965 q 524 985 544 965 q 504 1035 504 1006 q 524 1084 504 1064 q 574 1104 544 1104 q 623 1084 603 1104 q 643 1035 643 1064 q 623 985 643 1006 q 574 965 603 965 m 844 965 q 795 985 815 965 q 775 1035 775 1006 q 795 1084 775 1064 q 844 1104 815 1104 q 894 1084 874 1104 q 914 1035 914 1064 q 894 985 914 1006 q 844 965 874 965 z "},"Ẁ":{"ha":1272,"x_min":0,"x_max":1292,"o":"m 465 -22 q 446 17 461 -22 l 146 769 q 46 861 113 842 q 11 876 22 869 q 0 892 0 883 q 40 907 0 907 l 99 906 q 164 903 140 903 l 247 904 q 293 906 265 906 q 333 890 333 906 q 323 875 333 881 q 288 863 313 869 q 260 817 260 856 q 265 781 260 799 q 271 757 269 763 q 381 483 333 596 q 499 211 428 369 q 510 197 504 197 q 519 210 515 197 l 628 478 q 636 510 636 499 q 625 550 636 521 l 546 747 q 492 819 529 789 q 414 861 454 850 q 379 876 390 868 q 368 892 368 883 q 408 907 368 907 l 468 906 q 539 903 513 903 l 603 904 q 646 906 619 906 q 686 890 686 906 q 680 878 686 883 q 661 865 674 872 q 629 832 629 851 q 632 821 629 829 q 660 745 642 793 q 694 664 679 697 q 699 653 696 661 q 707 646 703 646 q 719 664 711 646 q 775 821 747 726 q 776 831 776 825 q 769 851 776 843 q 747 867 761 858 q 739 872 746 868 q 728 881 732 876 q 725 890 725 885 q 765 906 725 906 l 810 904 q 838 903 818 903 l 878 904 q 919 907 903 907 q 960 892 960 907 q 914 864 960 874 q 856 842 872 854 q 819 797 839 829 q 785 725 808 778 q 746 626 763 672 q 738 597 740 614 q 738 574 735 581 l 881 206 q 885 200 883 200 q 896 214 889 200 q 1065 751 949 354 q 1074 801 1074 776 q 1032 861 1074 850 q 986 889 986 874 q 1026 904 986 904 l 1126 903 q 1197 906 1153 903 l 1251 907 q 1292 892 1292 907 q 1246 864 1292 874 q 1132 742 1172 847 l 886 15 q 877 -5 883 7 q 864 -17 871 -17 q 851 -8 858 -17 q 840 10 844 0 q 732 278 789 125 l 669 439 q 664 447 665 447 q 654 431 661 447 q 574 235 607 318 q 496 21 542 151 q 482 -9 490 4 q 465 -22 474 -22 m 753 951 q 728 964 744 951 l 665 1011 q 547 1106 578 1078 q 534 1119 539 1113 q 529 1132 529 1125 q 560 1154 529 1144 q 610 1164 590 1164 q 647 1146 635 1164 q 754 981 706 1061 q 761 960 761 969 q 753 951 761 951 z "},"X":{"ha":982,"x_min":-7,"x_max":971,"o":"m 33 -7 q -7 8 -7 -7 q 4 25 -7 18 q 39 39 15 32 q 140 88 82 51 q 238 172 199 124 l 411 389 q 432 436 432 418 q 418 474 432 454 l 232 735 q 149 826 185 800 q 71 864 114 851 q 36 879 47 872 q 25 894 25 886 q 65 910 25 910 q 144 907 83 910 q 194 904 164 906 q 264 903 224 903 l 358 904 q 401 906 376 906 q 442 890 442 906 q 432 876 442 882 q 396 863 422 871 q 340 842 354 850 q 325 819 325 835 q 371 733 325 797 l 497 556 q 519 535 513 535 q 539 551 526 535 l 688 747 q 724 818 724 793 q 661 861 724 850 q 630 873 644 865 q 615 889 615 881 q 656 904 615 904 l 768 903 q 822 904 799 903 q 861 907 846 906 q 926 911 899 911 q 967 896 967 911 q 956 881 967 886 q 921 868 946 875 q 841 817 885 858 q 740 708 797 776 l 581 519 q 563 497 569 507 q 557 481 557 488 q 561 464 557 475 l 776 154 q 847 77 808 108 q 925 36 886 46 q 960 24 950 29 q 971 8 971 18 q 931 -7 971 -7 l 856 -4 q 732 1 775 1 l 589 0 q 549 15 549 0 q 594 43 549 31 q 637 67 618 50 q 656 108 656 85 q 639 154 656 132 l 494 364 q 476 379 483 379 q 464 371 471 379 l 276 129 q 264 97 264 113 q 281 63 264 78 q 326 42 297 49 q 362 29 351 35 q 372 14 372 24 q 332 -1 372 -1 q 290 0 307 -1 l 208 1 q 149 0 174 1 q 107 -3 124 -1 q 33 -7 68 -7 z "},"Y":{"ha":803,"x_min":0,"x_max":863,"o":"m 253 -7 q 213 8 213 -7 q 224 24 213 18 q 258 33 235 29 q 367 150 367 53 l 367 356 q 355 409 367 379 q 332 458 343 439 l 169 725 q 46 861 93 847 q 11 876 22 869 q 0 892 0 883 q 40 907 0 907 l 104 906 q 203 903 165 903 l 269 904 q 314 906 286 906 q 354 890 354 906 q 308 863 354 874 q 274 849 285 857 q 264 828 264 842 q 282 778 264 810 l 410 542 q 449 489 438 489 q 465 499 457 489 q 494 542 474 510 q 586 697 536 608 q 611 742 592 708 q 636 813 636 783 q 579 861 636 853 q 549 872 564 864 q 533 889 533 881 q 574 904 533 904 l 678 903 q 769 906 717 903 l 822 907 q 863 892 863 907 q 844 875 863 883 q 789 857 825 867 q 733 822 756 847 q 667 731 710 797 q 513 486 593 617 q 483 425 488 444 q 478 361 478 406 l 478 150 q 506 73 478 103 q 588 33 535 43 q 622 24 611 29 q 633 8 633 18 q 593 -7 633 -7 q 504 -3 542 -7 q 431 0 460 0 q 346 -3 396 0 q 253 -7 304 -7 z "},"Ý":{"ha":803,"x_min":0,"x_max":863,"o":"m 253 -7 q 213 8 213 -7 q 224 24 213 18 q 258 33 235 29 q 367 150 367 53 l 367 356 q 355 409 367 379 q 332 458 343 439 l 169 725 q 46 861 93 847 q 11 876 22 869 q 0 892 0 883 q 40 907 0 907 l 104 906 q 203 903 165 903 l 269 904 q 314 906 286 906 q 354 890 354 906 q 308 863 354 874 q 274 849 285 857 q 264 828 264 842 q 282 778 264 810 l 410 542 q 449 489 438 489 q 465 499 457 489 q 494 542 474 510 q 586 697 536 608 q 611 742 592 708 q 636 813 636 783 q 579 861 636 853 q 549 872 564 864 q 533 889 533 881 q 574 904 533 904 l 678 903 q 769 906 717 903 l 822 907 q 863 892 863 907 q 844 875 863 883 q 789 857 825 867 q 733 822 756 847 q 667 731 710 797 q 513 486 593 617 q 483 425 488 444 q 478 361 478 406 l 478 150 q 506 73 478 103 q 588 33 535 43 q 622 24 611 29 q 633 8 633 18 q 593 -7 633 -7 q 504 -3 542 -7 q 431 0 460 0 q 346 -3 396 0 q 253 -7 304 -7 m 399 951 q 390 960 390 951 q 397 981 390 969 q 504 1146 446 1061 q 542 1164 517 1164 q 592 1154 561 1164 q 622 1132 622 1144 q 617 1119 622 1125 q 604 1106 613 1113 q 486 1011 574 1078 l 424 964 q 399 951 407 951 z "},"Ŷ":{"ha":803,"x_min":0,"x_max":863,"o":"m 253 -7 q 213 8 213 -7 q 224 24 213 18 q 258 33 235 29 q 367 150 367 53 l 367 356 q 355 409 367 379 q 332 458 343 439 l 169 725 q 46 861 93 847 q 11 876 22 869 q 0 892 0 883 q 40 907 0 907 l 104 906 q 203 903 165 903 l 269 904 q 314 906 286 906 q 354 890 354 906 q 308 863 354 874 q 274 849 285 857 q 264 828 264 842 q 282 778 264 810 l 410 542 q 449 489 438 489 q 465 499 457 489 q 494 542 474 510 q 586 697 536 608 q 611 742 592 708 q 636 813 636 783 q 579 861 636 853 q 549 872 564 864 q 533 889 533 881 q 574 904 533 904 l 678 903 q 769 906 717 903 l 822 907 q 863 892 863 907 q 844 875 863 883 q 789 857 825 867 q 733 822 756 847 q 667 731 710 797 q 513 486 593 617 q 483 425 488 444 q 478 361 478 406 l 478 150 q 506 73 478 103 q 588 33 535 43 q 622 24 611 29 q 633 8 633 18 q 593 -7 633 -7 q 504 -3 542 -7 q 431 0 460 0 q 346 -3 396 0 q 253 -7 304 -7 m 263 967 q 247 971 253 967 q 242 981 242 975 q 251 997 242 989 l 388 1113 q 420 1138 410 1132 q 444 1143 431 1143 q 469 1138 458 1143 q 501 1113 479 1132 l 638 997 q 646 981 646 990 q 641 969 646 974 q 626 965 636 965 q 553 994 614 965 q 458 1043 492 1024 q 444 1049 451 1049 q 431 1043 438 1049 q 337 996 399 1025 q 263 967 275 967 z "},"Ÿ":{"ha":803,"x_min":0,"x_max":863,"o":"m 253 -7 q 213 8 213 -7 q 224 24 213 18 q 258 33 235 29 q 367 150 367 53 l 367 356 q 355 409 367 379 q 332 458 343 439 l 169 725 q 46 861 93 847 q 11 876 22 869 q 0 892 0 883 q 40 907 0 907 l 104 906 q 203 903 165 903 l 269 904 q 314 906 286 906 q 354 890 354 906 q 308 863 354 874 q 274 849 285 857 q 264 828 264 842 q 282 778 264 810 l 410 542 q 449 489 438 489 q 465 499 457 489 q 494 542 474 510 q 586 697 536 608 q 611 742 592 708 q 636 813 636 783 q 579 861 636 853 q 549 872 564 864 q 533 889 533 881 q 574 904 533 904 l 678 903 q 769 906 717 903 l 822 907 q 863 892 863 907 q 844 875 863 883 q 789 857 825 867 q 733 822 756 847 q 667 731 710 797 q 513 486 593 617 q 483 425 488 444 q 478 361 478 406 l 478 150 q 506 73 478 103 q 588 33 535 43 q 622 24 611 29 q 633 8 633 18 q 593 -7 633 -7 q 504 -3 542 -7 q 431 0 460 0 q 346 -3 396 0 q 253 -7 304 -7 m 310 965 q 260 985 281 965 q 240 1035 240 1006 q 260 1084 240 1064 q 310 1104 281 1104 q 359 1084 339 1104 q 379 1035 379 1064 q 359 985 379 1006 q 310 965 339 965 m 581 965 q 531 985 551 965 q 511 1035 511 1006 q 531 1084 511 1064 q 581 1104 551 1104 q 630 1084 610 1104 q 650 1035 650 1064 q 630 985 650 1006 q 581 965 610 965 z "},"Ỳ":{"ha":803,"x_min":0,"x_max":863,"o":"m 253 -7 q 213 8 213 -7 q 224 24 213 18 q 258 33 235 29 q 367 150 367 53 l 367 356 q 355 409 367 379 q 332 458 343 439 l 169 725 q 46 861 93 847 q 11 876 22 869 q 0 892 0 883 q 40 907 0 907 l 104 906 q 203 903 165 903 l 269 904 q 314 906 286 906 q 354 890 354 906 q 308 863 354 874 q 274 849 285 857 q 264 828 264 842 q 282 778 264 810 l 410 542 q 449 489 438 489 q 465 499 457 489 q 494 542 474 510 q 586 697 536 608 q 611 742 592 708 q 636 813 636 783 q 579 861 636 853 q 549 872 564 864 q 533 889 533 881 q 574 904 533 904 l 678 903 q 769 906 717 903 l 822 907 q 863 892 863 907 q 844 875 863 883 q 789 857 825 867 q 733 822 756 847 q 667 731 710 797 q 513 486 593 617 q 483 425 488 444 q 478 361 478 406 l 478 150 q 506 73 478 103 q 588 33 535 43 q 622 24 611 29 q 633 8 633 18 q 593 -7 633 -7 q 504 -3 542 -7 q 431 0 460 0 q 346 -3 396 0 q 253 -7 304 -7 m 489 951 q 464 964 481 951 l 401 1011 q 283 1106 314 1078 q 270 1119 275 1113 q 265 1132 265 1125 q 296 1154 265 1144 q 346 1164 326 1164 q 383 1146 371 1164 q 490 981 442 1061 q 497 960 497 969 q 489 951 497 951 z "},"Z":{"ha":838,"x_min":39,"x_max":817,"o":"m 740 -7 q 504 -4 651 -7 l 321 -3 l 156 -4 l 49 -4 q 41 4 43 -4 q 39 15 39 13 q 65 66 39 25 q 119 144 92 107 q 207 264 142 176 q 419 556 336 440 q 603 824 501 672 q 608 835 608 832 q 582 846 608 844 q 379 849 482 849 q 238 846 272 849 q 158 816 199 842 q 101 743 118 790 q 85 711 93 724 q 63 699 76 699 q 50 714 50 699 q 60 751 50 725 q 97 915 93 850 q 118 939 99 939 q 138 931 122 939 q 161 919 153 924 q 213 905 178 913 q 281 897 249 897 l 456 897 q 776 901 622 897 q 790 892 783 901 q 792 876 796 882 l 707 764 q 445 405 535 531 q 238 97 356 279 q 233 81 233 92 q 238 65 233 72 q 249 57 242 58 q 406 50 315 50 q 601 57 493 50 q 704 99 663 63 q 774 208 746 136 q 786 228 778 218 q 804 238 794 238 q 817 219 817 238 q 797 124 817 207 q 765 17 776 40 q 755 -1 760 4 q 740 -7 750 -7 z "},"Ź":{"ha":838,"x_min":39,"x_max":817,"o":"m 740 -7 q 504 -4 651 -7 l 321 -3 l 156 -4 l 49 -4 q 41 4 43 -4 q 39 15 39 13 q 65 66 39 25 q 119 144 92 107 q 207 264 142 176 q 419 556 336 440 q 603 824 501 672 q 608 835 608 832 q 582 846 608 844 q 379 849 482 849 q 238 846 272 849 q 158 816 199 842 q 101 743 118 790 q 85 711 93 724 q 63 699 76 699 q 50 714 50 699 q 60 751 50 725 q 97 915 93 850 q 118 939 99 939 q 138 931 122 939 q 161 919 153 924 q 213 905 178 913 q 281 897 249 897 l 456 897 q 776 901 622 897 q 790 892 783 901 q 792 876 796 882 l 707 764 q 445 405 535 531 q 238 97 356 279 q 233 81 233 92 q 238 65 233 72 q 249 57 242 58 q 406 50 315 50 q 601 57 493 50 q 704 99 663 63 q 774 208 746 136 q 786 228 778 218 q 804 238 794 238 q 817 219 817 238 q 797 124 817 207 q 765 17 776 40 q 755 -1 760 4 q 740 -7 750 -7 m 392 951 q 383 960 383 951 q 390 981 383 969 q 497 1146 439 1061 q 535 1164 510 1164 q 585 1154 554 1164 q 615 1132 615 1144 q 610 1119 615 1125 q 597 1106 606 1113 q 479 1011 567 1078 l 417 964 q 392 951 400 951 z "},"Ž":{"ha":838,"x_min":39,"x_max":817,"o":"m 740 -7 q 504 -4 651 -7 l 321 -3 l 156 -4 l 49 -4 q 41 4 43 -4 q 39 15 39 13 q 65 66 39 25 q 119 144 92 107 q 207 264 142 176 q 419 556 336 440 q 603 824 501 672 q 608 835 608 832 q 582 846 608 844 q 379 849 482 849 q 238 846 272 849 q 158 816 199 842 q 101 743 118 790 q 85 711 93 724 q 63 699 76 699 q 50 714 50 699 q 60 751 50 725 q 97 915 93 850 q 118 939 99 939 q 138 931 122 939 q 161 919 153 924 q 213 905 178 913 q 281 897 249 897 l 456 897 q 776 901 622 897 q 790 892 783 901 q 792 876 796 882 l 707 764 q 445 405 535 531 q 238 97 356 279 q 233 81 233 92 q 238 65 233 72 q 249 57 242 58 q 406 50 315 50 q 601 57 493 50 q 704 99 663 63 q 774 208 746 136 q 786 228 778 218 q 804 238 794 238 q 817 219 817 238 q 797 124 817 207 q 765 17 776 40 q 755 -1 760 4 q 740 -7 750 -7 m 257 1142 q 331 1113 269 1142 q 425 1065 393 1083 q 439 1060 436 1060 q 453 1065 442 1060 q 547 1114 486 1085 q 621 1143 608 1143 q 635 1139 631 1143 q 640 1128 640 1135 q 632 1111 640 1118 l 496 1003 q 462 978 471 983 q 439 972 453 972 q 416 978 425 972 q 382 1003 407 983 l 246 1111 q 236 1128 236 1119 q 242 1138 236 1135 q 257 1142 247 1142 z "},"Ż":{"ha":838,"x_min":39,"x_max":817,"o":"m 740 -7 q 504 -4 651 -7 l 321 -3 l 156 -4 l 49 -4 q 41 4 43 -4 q 39 15 39 13 q 65 66 39 25 q 119 144 92 107 q 207 264 142 176 q 419 556 336 440 q 603 824 501 672 q 608 835 608 832 q 582 846 608 844 q 379 849 482 849 q 238 846 272 849 q 158 816 199 842 q 101 743 118 790 q 85 711 93 724 q 63 699 76 699 q 50 714 50 699 q 60 751 50 725 q 97 915 93 850 q 118 939 99 939 q 138 931 122 939 q 161 919 153 924 q 213 905 178 913 q 281 897 249 897 l 456 897 q 776 901 622 897 q 790 892 783 901 q 792 876 796 882 l 707 764 q 445 405 535 531 q 238 97 356 279 q 233 81 233 92 q 238 65 233 72 q 249 57 242 58 q 406 50 315 50 q 601 57 493 50 q 704 99 663 63 q 774 208 746 136 q 786 228 778 218 q 804 238 794 238 q 817 219 817 238 q 797 124 817 207 q 765 17 776 40 q 755 -1 760 4 q 740 -7 750 -7 m 438 965 q 383 988 406 965 q 361 1042 361 1011 q 383 1096 361 1074 q 438 1118 406 1118 q 492 1096 469 1118 q 514 1042 514 1074 q 492 988 514 1011 q 438 965 469 965 z "},"Ģ":{"ha":1013,"x_min":63,"x_max":963,"o":"m 544 -19 q 306 40 417 -19 q 128 203 194 100 q 63 432 63 307 q 132 678 63 567 q 319 856 201 790 q 574 921 438 921 q 723 905 622 921 q 851 875 824 889 q 860 869 858 872 q 864 858 863 865 q 878 711 878 750 q 872 692 878 700 q 857 683 865 683 q 838 693 844 683 q 825 721 831 703 q 782 794 810 763 q 705 844 763 819 q 561 868 647 868 q 374 810 457 868 q 246 656 292 753 q 200 450 200 560 q 251 228 200 324 q 386 83 303 133 q 564 32 469 32 q 674 48 633 32 q 733 83 714 64 q 763 129 751 101 q 775 190 775 157 q 776 229 775 215 l 778 271 q 771 313 778 304 q 710 344 756 333 q 635 356 664 356 q 617 363 628 356 q 607 379 607 369 q 617 396 607 389 q 635 403 628 403 q 717 400 667 403 q 810 397 769 397 q 871 400 835 397 q 933 403 907 403 q 952 397 942 403 q 963 381 963 392 q 951 365 963 372 q 933 356 940 357 q 892 332 904 347 q 875 288 879 317 q 868 183 868 238 l 868 146 q 872 133 868 139 q 876 124 875 126 q 887 112 879 119 q 894 100 894 104 q 875 74 894 76 q 838 57 865 72 q 700 3 769 25 q 544 -19 631 -19 m 497 -382 q 484 -378 489 -382 q 479 -369 479 -375 q 499 -351 479 -358 q 555 -312 535 -339 q 575 -254 575 -285 q 561 -215 575 -226 q 515 -196 547 -204 q 476 -175 489 -189 q 463 -135 463 -161 q 480 -95 463 -111 q 525 -79 497 -79 q 612 -119 576 -79 q 647 -219 647 -158 q 621 -304 647 -267 q 559 -362 594 -342 q 497 -382 524 -382 z "},"Ķ":{"ha":946,"x_min":43,"x_max":956,"o":"m 83 -7 q 43 8 43 -7 q 54 24 43 18 q 89 33 65 29 q 162 66 142 43 q 182 140 182 89 l 182 765 q 162 833 182 813 q 89 864 142 854 q 43 892 43 872 q 83 907 43 907 l 169 906 q 239 904 190 904 q 293 906 278 904 l 374 907 q 414 892 414 907 q 368 864 414 872 q 306 833 319 856 q 293 765 293 811 l 293 506 q 300 479 293 479 q 318 487 307 479 q 338 504 329 494 l 615 788 q 636 829 636 808 q 629 849 636 840 q 610 861 622 858 q 576 874 586 868 q 567 889 567 879 q 607 904 567 904 l 682 904 q 860 908 714 904 l 907 910 q 929 906 921 910 q 938 894 938 901 q 892 867 938 875 q 681 775 761 843 q 547 654 606 713 q 414 515 488 596 q 411 508 411 513 q 421 490 411 500 l 757 132 q 829 62 806 78 q 910 33 853 46 q 945 22 935 28 q 956 8 956 17 q 915 -7 956 -7 q 815 -3 860 -7 q 722 0 760 0 l 683 0 q 610 -1 665 -1 q 569 14 569 -1 q 578 28 569 24 q 607 38 586 33 q 646 65 646 47 q 625 100 646 76 l 331 425 q 299 449 307 449 q 293 429 293 449 q 300 153 293 344 q 322 72 303 103 q 389 33 340 42 q 424 24 413 29 q 435 8 435 18 q 394 -7 435 -7 q 314 -1 350 -7 q 258 3 289 3 q 210 1 235 3 q 175 -1 186 -1 q 83 -7 122 -7 m 435 -382 q 422 -378 426 -382 q 417 -369 417 -375 q 436 -351 417 -358 q 492 -312 472 -339 q 513 -254 513 -285 q 499 -215 513 -226 q 453 -196 485 -204 q 413 -175 426 -189 q 400 -135 400 -161 q 417 -95 400 -111 q 463 -79 435 -79 q 549 -119 514 -79 q 585 -219 585 -158 q 558 -304 585 -267 q 497 -362 532 -342 q 435 -382 461 -382 z "},"Ļ":{"ha":811,"x_min":38,"x_max":799,"o":"m 76 -7 q 48 -2 58 -7 q 38 10 38 3 q 68 33 38 26 q 153 67 125 44 q 181 133 181 89 l 181 778 q 174 827 181 811 q 151 850 167 843 q 96 864 135 857 q 50 892 50 872 q 90 907 50 907 q 176 904 132 907 l 246 903 l 329 904 q 421 907 382 907 q 461 892 461 907 q 415 864 461 872 q 321 838 350 851 q 292 788 292 824 l 292 133 q 313 68 292 88 q 399 49 333 49 l 571 49 q 635 60 606 49 q 679 85 664 71 q 720 127 707 108 q 751 183 733 146 q 765 211 757 197 q 782 225 774 225 q 794 217 790 225 q 799 200 799 210 l 797 193 q 772 91 779 126 q 760 17 764 56 q 740 -7 757 -7 q 467 -3 592 -7 q 264 0 325 0 q 158 -3 221 0 q 76 -7 96 -6 m 375 -382 q 362 -378 367 -382 q 357 -369 357 -375 q 376 -351 357 -358 q 433 -312 413 -339 q 453 -254 453 -285 q 439 -215 453 -226 q 393 -196 425 -204 q 353 -175 367 -189 q 340 -135 340 -161 q 358 -95 340 -111 q 403 -79 375 -79 q 490 -119 454 -79 q 525 -219 525 -158 q 499 -304 525 -267 q 437 -362 472 -342 q 375 -382 401 -382 z "},"Ņ":{"ha":1069,"x_min":17,"x_max":1086,"o":"m 928 -24 q 874 0 911 -24 q 808 64 838 24 q 647 258 797 81 q 428 518 496 436 q 297 672 317 649 q 268 694 279 694 q 258 685 261 694 q 256 665 256 676 q 249 144 249 322 q 338 33 249 50 q 372 24 361 29 q 383 8 383 18 q 343 -7 383 -7 q 264 -3 292 -7 q 213 0 236 0 q 164 -3 192 0 q 86 -7 110 -7 q 46 8 46 -7 q 56 22 46 17 q 92 35 67 28 q 172 149 163 54 q 190 392 182 239 q 197 704 197 546 q 163 806 197 772 q 60 861 129 839 q 32 874 47 865 q 17 894 17 883 q 27 910 17 906 q 49 914 38 914 l 146 910 q 263 907 213 907 q 280 902 274 907 q 296 883 286 897 q 531 594 313 860 q 842 217 749 329 q 876 189 865 189 q 890 218 889 189 q 893 783 893 324 q 865 832 892 808 q 813 860 838 856 q 750 888 750 871 q 768 899 750 894 q 807 903 786 903 l 886 903 l 956 904 q 1046 907 1000 907 q 1086 892 1086 907 q 1040 864 1086 872 q 972 839 989 854 q 953 789 956 824 q 950 146 950 739 q 956 40 950 90 l 957 11 q 928 -24 957 -24 m 506 -382 q 492 -378 497 -382 q 488 -369 488 -375 q 507 -351 488 -358 q 563 -312 543 -339 q 583 -254 583 -285 q 569 -215 583 -226 q 524 -196 556 -204 q 484 -175 497 -189 q 471 -135 471 -161 q 488 -95 471 -111 q 533 -79 506 -79 q 620 -119 585 -79 q 656 -219 656 -158 q 629 -304 656 -267 q 567 -362 603 -342 q 506 -382 532 -382 z "},"Ŗ":{"ha":990,"x_min":33,"x_max":997,"o":"m 885 -29 q 774 -12 821 -29 q 693 46 728 4 q 588 181 629 125 q 482 342 546 238 q 422 396 461 376 q 313 425 376 418 l 310 425 q 292 397 292 425 l 292 153 q 385 33 292 50 q 419 24 408 29 q 431 8 431 18 q 390 -7 431 -7 q 310 -1 346 -7 q 254 3 285 3 q 203 1 229 3 q 167 -1 178 -1 q 74 -7 111 -7 q 33 8 33 -7 q 44 24 33 18 q 79 33 56 29 q 157 66 133 43 q 181 139 181 89 l 181 731 q 176 813 181 789 q 153 849 171 838 q 96 864 136 860 q 62 874 74 865 q 50 892 50 882 q 90 907 50 907 q 168 906 150 907 l 226 906 q 289 908 247 906 q 386 913 364 913 q 619 855 539 913 q 699 685 699 797 q 535 451 699 535 q 531 444 531 450 q 535 433 531 440 q 676 231 622 301 q 817 81 729 160 q 885 43 850 51 q 976 35 919 35 q 997 19 997 35 q 960 -18 997 -7 q 885 -29 924 -29 m 365 457 q 474 485 426 457 q 548 561 522 514 q 574 663 574 608 q 532 816 574 761 q 369 871 490 871 q 312 844 326 871 q 294 742 297 817 q 292 506 292 647 q 308 465 292 474 q 365 457 325 457 m 461 -382 q 448 -378 453 -382 q 443 -369 443 -375 q 463 -351 443 -358 q 519 -312 499 -339 q 539 -254 539 -285 q 525 -215 539 -226 q 479 -196 511 -204 q 440 -175 453 -189 q 426 -135 426 -161 q 444 -95 426 -111 q 489 -79 461 -79 q 576 -119 540 -79 q 611 -219 611 -158 q 585 -304 611 -267 q 523 -362 558 -342 q 461 -382 488 -382 z "},"Ţ":{"ha":931,"x_min":38,"x_max":928,"o":"m 297 -7 q 257 8 257 -7 q 268 24 257 18 q 303 33 279 29 q 384 68 357 43 q 411 142 411 93 l 411 681 q 405 806 411 774 q 382 842 399 839 q 340 847 364 846 q 283 847 315 847 l 218 847 q 150 833 182 847 q 104 793 118 819 q 78 758 96 776 q 47 740 61 740 q 38 758 38 740 q 44 786 38 772 q 72 855 64 824 q 88 932 81 886 q 111 964 92 964 q 127 949 115 964 q 146 919 139 933 q 183 899 154 906 q 243 892 211 892 l 732 892 q 864 913 818 892 q 888 928 872 917 q 918 940 904 940 q 925 930 922 940 q 928 908 928 919 q 922 869 928 903 l 914 828 q 908 788 908 811 l 908 771 q 902 742 908 757 q 886 726 896 726 q 871 740 876 726 q 860 783 865 753 q 825 831 854 814 q 732 847 796 847 l 592 847 q 544 839 557 847 q 526 799 531 831 q 522 688 522 768 l 522 142 q 550 68 522 93 q 632 33 578 43 q 667 24 656 29 q 678 8 678 18 q 638 -7 678 -7 q 549 -3 586 -7 q 475 0 504 0 q 390 -3 440 0 q 297 -7 349 -7 m 385 -382 q 338 -370 354 -382 q 322 -337 322 -358 q 328 -303 322 -315 q 344 -290 335 -290 q 365 -299 347 -290 q 432 -308 383 -308 q 476 -293 461 -308 q 490 -254 490 -278 q 472 -198 490 -217 q 425 -179 454 -179 q 407 -181 417 -179 q 389 -183 397 -183 q 363 -175 372 -183 q 353 -160 353 -167 q 361 -139 353 -150 l 472 11 l 515 11 l 464 -67 q 458 -81 458 -74 q 472 -97 458 -90 q 535 -144 507 -111 q 564 -221 564 -176 q 533 -302 564 -265 q 460 -360 503 -339 q 385 -382 418 -382 z "},"Ɓ":{"ha":904,"x_min":21,"x_max":849,"o":"m 169 -7 q 129 8 129 -7 q 140 24 129 18 q 175 33 151 29 q 257 67 231 43 q 283 138 283 90 l 283 801 q 274 848 283 833 q 236 863 265 863 q 128 844 171 863 q 86 782 86 825 q 97 753 86 765 q 128 722 107 740 q 160 681 160 696 q 135 641 160 661 q 96 621 111 621 q 45 656 69 621 q 21 722 21 692 q 81 859 21 813 q 297 906 142 906 q 432 910 328 906 q 514 913 490 913 q 713 863 635 913 q 792 706 792 813 q 777 626 792 663 q 744 572 763 590 q 702 538 721 550 q 651 513 683 525 q 646 505 646 510 q 651 499 646 500 q 749 458 708 481 q 819 390 789 436 q 849 269 849 344 q 826 153 849 199 q 774 85 804 108 q 704 42 744 63 q 482 -6 610 -6 l 440 -4 q 350 0 403 0 q 265 -3 315 0 q 169 -7 226 -7 m 456 515 q 610 556 543 515 q 651 603 631 568 q 672 692 672 639 q 625 815 672 763 q 471 868 578 868 q 417 862 433 868 q 396 844 400 856 q 392 808 392 833 l 392 567 q 456 515 392 515 m 501 51 q 606 80 556 51 q 687 156 656 108 q 718 263 718 204 q 687 376 718 333 q 615 442 656 419 q 471 476 553 476 q 411 460 431 476 q 392 426 392 444 l 392 150 q 418 73 392 94 q 501 51 444 51 z "},"Ƃ":{"ha":815,"x_min":51,"x_max":765,"o":"m 92 -7 q 51 8 51 -7 q 63 24 51 18 q 97 33 74 29 q 179 66 153 43 q 206 136 206 89 l 206 764 q 185 833 206 813 q 113 864 165 854 q 67 892 67 872 q 107 907 67 907 q 196 904 146 907 l 269 903 l 614 903 q 638 906 621 903 q 668 910 654 908 q 678 903 675 910 q 682 890 682 896 q 685 846 683 864 q 688 814 686 828 q 693 750 693 772 q 687 728 693 736 q 674 721 681 721 q 654 735 667 721 q 640 760 642 749 q 613 829 633 800 q 540 858 593 858 l 357 858 q 328 844 339 858 q 317 810 317 829 l 317 567 q 319 513 317 529 q 333 497 322 497 q 340 499 338 497 q 489 522 411 522 q 691 456 617 522 q 765 269 765 389 q 743 155 765 200 q 694 88 721 110 q 626 42 667 65 q 404 -6 547 -6 q 350 -1 386 -6 q 238 6 267 6 q 175 0 211 6 q 92 -7 122 -7 m 424 51 q 528 80 478 51 q 609 156 578 108 q 640 263 640 204 q 609 376 640 333 q 538 442 578 419 q 393 476 475 476 q 317 426 317 476 l 317 150 q 344 77 317 103 q 424 51 372 51 z "},"Ƅ":{"ha":789,"x_min":13,"x_max":726,"o":"m 53 -7 q 13 8 13 -7 q 24 24 13 18 q 58 33 35 29 q 140 66 114 43 q 167 136 167 89 l 167 656 q 143 738 167 704 q 69 793 119 771 q 38 812 47 804 q 28 829 28 819 q 57 854 28 851 q 144 873 106 858 q 225 908 183 888 q 261 924 253 924 q 281 917 276 924 q 285 894 285 911 q 281 843 285 872 l 278 800 l 278 567 q 281 513 278 529 q 294 497 283 497 q 301 499 299 497 q 450 522 372 522 q 652 456 578 522 q 726 269 726 389 q 627 65 726 135 q 365 -6 528 -6 q 311 -1 347 -6 q 199 6 228 6 q 136 0 172 6 q 53 -7 85 -7 m 385 51 q 489 80 439 51 q 570 156 539 108 q 601 263 601 204 q 570 376 601 333 q 499 442 539 419 q 354 476 436 476 q 278 426 278 476 l 278 150 q 306 77 278 103 q 385 51 333 51 z "},"Ɔ":{"ha":986,"x_min":76,"x_max":922,"o":"m 421 924 q 667 865 551 924 q 852 699 782 806 q 922 454 922 592 q 849 215 922 322 q 651 44 775 107 q 386 -18 528 -18 q 269 -10 314 -18 q 139 18 224 -3 q 110 35 119 24 q 99 65 101 46 q 86 225 88 174 q 92 240 85 233 q 110 246 100 246 q 133 226 128 246 q 167 131 149 167 q 219 72 186 96 q 303 38 254 50 q 410 25 353 25 q 600 81 515 25 q 733 227 685 136 q 782 421 782 318 q 733 642 782 536 q 598 815 685 749 q 400 881 511 881 q 238 837 304 881 q 124 707 172 793 q 111 694 119 699 q 96 689 103 689 q 82 694 88 689 q 76 711 76 700 q 89 772 76 728 q 114 846 101 815 q 131 871 125 865 q 158 883 136 876 q 278 913 207 903 q 421 924 349 924 z "},"Ƈ":{"ha":917,"x_min":64,"x_max":1069,"o":"m 513 -21 q 286 43 389 -21 q 124 215 183 107 q 64 449 64 324 q 133 688 64 581 q 319 858 203 796 q 569 921 436 921 q 663 915 626 921 q 739 897 700 908 q 786 888 771 888 q 795 890 792 888 q 801 901 799 893 q 857 981 817 956 q 946 1007 897 1007 q 1040 988 1011 1007 q 1069 942 1069 969 q 1049 901 1069 921 q 1011 882 1029 882 q 990 890 1000 882 q 963 915 981 897 q 933 940 946 932 q 904 949 919 949 q 857 923 871 949 q 843 838 843 897 q 846 793 843 826 q 851 676 851 732 q 844 663 851 668 q 826 657 836 657 q 807 669 810 657 q 782 755 799 717 q 751 807 765 793 q 678 854 728 831 q 547 878 629 878 q 369 822 449 878 q 247 676 290 767 q 203 482 203 585 q 247 260 203 367 q 371 88 290 154 q 556 22 451 22 q 718 72 658 22 q 815 196 778 122 q 828 207 819 203 q 844 211 836 211 q 861 197 861 211 q 844 115 861 175 q 814 36 826 56 q 799 26 811 31 q 783 21 788 22 q 746 7 764 17 q 513 -21 686 -21 z "},"Ɖ":{"ha":1047,"x_min":40,"x_max":999,"o":"m 472 915 q 771 858 653 915 q 944 701 889 800 q 999 475 999 601 q 933 233 999 344 q 757 56 868 121 q 515 -10 646 -10 l 451 -7 q 226 0 299 0 q 164 -3 203 0 q 81 -7 133 -7 q 40 11 40 -7 q 49 25 40 22 q 86 33 57 28 q 159 65 139 43 q 179 138 179 88 l 179 440 l 83 440 q 69 449 75 440 q 64 465 64 457 q 74 483 64 475 q 97 490 85 490 l 179 490 l 179 763 q 159 833 179 811 q 86 864 139 854 q 50 873 60 868 q 40 889 40 878 q 81 907 40 907 l 160 906 q 235 904 181 904 q 378 911 292 904 q 431 914 407 913 q 472 915 456 915 m 499 39 q 690 92 606 39 q 820 238 774 144 q 867 451 867 332 q 811 675 867 579 q 666 822 756 771 q 479 872 576 872 q 369 868 406 872 q 311 846 332 864 q 290 788 290 828 l 290 490 l 524 490 q 537 485 531 490 q 543 475 543 481 l 542 471 q 499 440 525 440 l 290 440 l 290 168 q 347 65 290 92 q 499 39 403 39 z "},"Ɗ":{"ha":1107,"x_min":21,"x_max":1058,"o":"m 547 -10 q 465 -6 507 -10 q 329 0 396 0 q 267 -3 306 0 q 183 -7 236 -7 q 143 8 143 -7 q 154 24 143 18 q 189 33 165 29 q 262 65 242 43 q 282 138 282 88 l 282 775 q 274 845 282 828 q 236 863 265 863 q 128 844 171 863 q 86 782 86 825 q 97 753 86 765 q 128 722 107 740 q 160 681 160 696 q 135 641 160 661 q 96 621 111 621 q 45 656 69 621 q 21 722 21 692 q 81 859 21 813 q 297 906 142 906 q 454 911 354 906 l 536 914 q 930 795 801 914 q 1058 458 1058 676 q 988 212 1058 318 q 801 48 918 106 q 547 -10 685 -10 m 586 39 q 757 93 679 39 q 881 242 835 147 q 926 449 926 336 q 879 662 926 567 q 739 812 832 757 q 515 867 646 867 q 436 858 461 867 q 403 830 411 850 q 394 765 394 810 l 394 168 q 416 85 394 113 q 478 48 438 57 q 586 39 518 39 z "},"Ƌ":{"ha":801,"x_min":63,"x_max":776,"o":"m 736 -7 q 653 0 704 -7 q 590 6 617 6 q 440 -1 569 6 q 367 -6 390 -6 q 142 63 222 -6 q 63 247 63 131 q 105 388 63 325 q 220 485 147 450 q 379 521 293 521 q 488 499 450 521 q 501 496 492 496 q 510 511 508 496 q 511 567 511 526 l 511 800 q 497 831 511 813 q 471 849 482 849 l 324 849 q 231 828 260 849 q 188 760 203 808 q 150 711 169 711 q 137 719 143 711 q 131 740 131 726 q 138 808 131 769 q 146 890 144 846 q 149 903 146 896 q 160 910 153 910 q 196 902 165 910 q 274 894 226 894 l 558 893 q 654 901 596 893 q 721 907 701 907 q 761 892 761 907 q 715 864 761 872 q 642 833 663 854 q 622 764 622 813 l 622 136 q 649 66 622 89 q 731 33 675 43 q 765 24 754 29 q 776 8 776 18 q 736 -7 776 -7 m 400 33 q 481 67 450 33 q 511 150 511 101 l 511 367 q 469 449 511 422 q 350 475 426 475 q 290 465 317 475 q 246 440 263 456 q 201 379 215 411 q 188 275 188 347 q 244 99 188 164 q 400 33 301 33 z "},"Ǝ":{"ha":743,"x_min":-6,"x_max":692,"o":"m 651 -7 q 692 8 692 -7 q 681 24 692 18 q 646 33 669 29 q 567 66 592 43 q 543 138 543 89 l 543 763 q 563 833 543 811 q 636 864 583 854 q 682 892 682 872 q 642 907 682 907 q 514 904 589 907 l 396 903 l 206 904 l 88 907 q 63 894 64 907 q 51 833 60 883 q 42 751 42 783 q 61 731 42 731 q 71 733 68 731 q 76 744 74 736 q 88 781 79 751 q 107 821 96 810 q 200 858 140 858 l 382 858 q 414 845 396 858 q 432 814 432 832 l 432 519 q 424 498 432 507 q 407 489 417 489 l 269 489 q 215 503 231 489 q 189 557 200 517 q 164 588 181 588 q 152 581 158 588 q 146 565 146 575 l 147 529 l 150 468 l 149 394 l 147 361 q 160 338 147 338 q 192 382 181 338 q 215 430 200 415 q 256 444 229 444 l 385 444 q 422 438 411 444 q 432 408 432 431 l 432 142 q 410 69 432 90 q 340 49 389 49 l 238 49 q 162 54 192 49 q 111 72 132 60 q 73 110 90 86 q 32 179 56 135 q 13 197 22 197 q -6 178 -6 197 q 10 102 -6 160 q 38 17 25 44 q 42 7 39 14 q 48 -3 44 0 q 57 -7 51 -7 q 301 -3 85 -7 q 492 1 397 1 q 564 -3 531 1 q 651 -7 635 -7 z "},"Ɛ":{"ha":708,"x_min":49,"x_max":650,"o":"m 357 -19 q 210 12 282 -19 q 94 101 139 43 q 49 235 49 158 q 107 409 49 344 q 242 499 165 474 q 247 505 247 500 q 242 513 247 510 q 104 688 104 568 q 148 813 104 760 q 260 894 192 867 q 400 922 328 922 q 475 917 446 922 q 557 900 504 913 l 586 892 q 598 883 594 890 q 604 864 601 876 q 614 800 610 831 q 618 736 618 769 q 614 714 618 726 q 604 701 610 701 q 584 712 597 701 q 568 736 571 722 q 505 846 549 811 q 390 881 461 881 q 299 853 336 881 q 242 785 261 826 q 224 703 224 744 q 258 573 224 629 q 343 517 292 517 q 401 521 360 517 q 456 525 422 525 q 491 515 472 525 q 510 490 510 506 q 453 461 510 461 q 396 465 417 461 q 350 471 360 471 q 229 411 274 471 q 185 267 185 351 q 213 151 185 207 q 289 61 240 96 q 397 26 338 26 q 513 58 465 26 q 589 161 561 90 q 622 222 614 222 q 642 216 633 222 q 650 201 650 210 q 640 103 650 171 q 635 72 638 92 q 618 42 632 56 q 588 21 604 28 q 357 -19 501 -19 z "},"Ƒ":{"ha":707,"x_min":-96,"x_max":669,"o":"m 47 -278 q -59 -260 -22 -278 q -96 -210 -96 -243 q -77 -166 -96 -187 q -42 -144 -58 -144 q 24 -179 -3 -144 q 56 -211 42 -201 q 89 -221 71 -221 q 156 -165 136 -221 q 176 -1 176 -108 l 176 725 q 159 824 176 792 q 92 864 142 856 q 46 892 46 872 q 86 907 46 907 q 210 904 138 907 l 325 903 l 500 903 q 589 911 539 903 q 638 917 625 917 q 663 904 661 917 q 667 833 665 883 q 669 756 669 782 q 657 726 669 726 q 644 731 650 726 q 636 743 639 736 q 604 811 619 793 q 511 849 571 849 l 335 849 q 297 831 306 849 q 288 779 289 814 q 286 649 286 744 q 288 519 286 553 q 301 489 288 489 q 403 492 339 489 l 463 493 q 514 508 492 493 q 547 547 536 522 q 559 562 550 553 q 572 571 568 571 q 585 564 578 571 q 590 549 592 557 q 586 472 586 501 q 590 378 586 439 q 578 354 590 354 q 557 365 565 354 q 546 386 549 375 q 518 428 536 415 q 481 440 500 440 l 411 442 q 321 439 379 442 q 288 404 288 436 l 292 124 q 265 -58 293 32 q 186 -206 236 -147 q 47 -278 125 -278 z "},"Ɠ":{"ha":1051,"x_min":63,"x_max":1092,"o":"m 554 -19 q 309 44 422 -19 q 129 217 196 108 q 63 457 63 326 q 133 694 63 588 q 322 860 204 800 q 574 921 439 921 q 760 896 621 921 q 808 888 797 888 q 817 890 814 888 q 824 901 821 893 q 881 981 842 954 q 968 1007 921 1007 q 1063 988 1033 1007 q 1092 942 1092 969 q 1072 901 1092 921 q 1033 882 1051 882 q 1013 890 1022 882 q 985 915 1003 897 q 955 940 968 932 q 926 949 942 949 q 879 923 893 949 q 865 838 865 897 q 871 775 865 822 q 878 711 878 738 q 872 692 878 700 q 857 683 865 683 q 838 693 844 683 q 825 721 831 703 q 782 794 810 763 q 705 844 763 819 q 561 868 647 868 q 377 817 460 868 q 247 678 294 767 q 200 481 200 589 q 243 263 200 367 q 367 96 286 160 q 553 32 447 32 q 742 83 661 32 q 775 190 775 106 q 776 229 775 215 l 778 271 q 771 313 778 304 q 710 344 756 333 q 635 356 664 356 q 617 363 628 356 q 607 379 607 369 q 617 396 607 389 q 635 403 628 403 q 717 400 667 403 q 810 397 769 397 q 871 400 835 397 q 933 403 907 403 q 952 397 942 403 q 963 381 963 392 q 951 365 963 372 q 933 356 940 357 q 892 332 904 347 q 875 288 879 317 q 868 183 868 238 l 868 146 q 872 133 868 139 q 876 124 875 126 q 887 112 879 119 q 894 100 894 104 q 889 86 894 94 q 875 75 883 78 q 781 39 829 60 q 653 -6 700 8 q 554 -19 607 -19 z "},"Ɩ":{"ha":485,"x_min":26,"x_max":514,"o":"m 328 -15 q 165 200 165 -15 l 165 764 q 145 833 165 813 q 72 864 125 854 q 26 892 26 872 q 67 907 26 907 q 156 904 106 907 l 229 903 l 296 904 q 381 907 340 907 q 421 892 421 907 q 375 864 421 872 q 299 833 321 854 q 276 764 276 811 l 276 215 q 299 90 276 125 q 365 54 322 54 q 467 107 411 54 q 486 117 476 117 q 505 108 496 117 q 514 93 514 100 q 506 71 514 81 q 496 60 497 61 q 431 8 476 32 q 328 -15 386 -15 z "},"Ɨ":{"ha":472,"x_min":33,"x_max":454,"o":"m 408 33 q 443 24 432 29 q 454 8 454 18 q 414 -7 454 -7 q 325 -3 363 -7 q 251 0 281 0 q 167 -3 217 0 q 74 -7 125 -7 q 33 8 33 -7 q 44 24 33 18 q 79 33 56 29 q 161 66 135 43 q 188 136 188 89 l 188 440 l 88 440 q 74 449 79 440 q 68 465 68 457 q 78 483 68 475 q 101 490 89 490 l 188 490 l 188 764 q 167 833 188 813 q 94 864 147 854 q 49 892 49 872 q 89 907 49 907 q 178 904 128 907 l 251 903 l 318 904 q 403 907 363 907 q 443 892 443 907 q 397 864 443 872 q 321 833 343 854 q 299 764 299 811 l 299 490 l 406 490 q 419 485 413 490 q 425 475 425 481 l 424 471 q 381 440 407 440 l 299 440 l 299 136 q 326 66 299 89 q 408 33 353 43 z "},"Ƙ":{"ha":957,"x_min":43,"x_max":967,"o":"m 83 -7 q 43 8 43 -7 q 54 24 43 18 q 89 33 65 29 q 162 66 142 43 q 182 140 182 89 l 182 765 q 162 833 182 813 q 89 864 142 854 q 43 892 43 872 q 83 907 43 907 l 169 906 q 239 904 190 904 q 293 906 278 904 l 374 907 q 414 892 414 907 q 368 864 414 872 q 306 833 319 856 q 293 765 293 811 l 293 506 q 300 479 293 479 q 338 504 313 479 l 625 811 q 728 894 682 868 q 835 921 775 921 q 933 893 899 921 q 967 818 967 865 q 949 760 967 783 q 901 736 932 736 q 851 747 869 736 q 817 782 833 758 q 789 813 801 803 q 761 824 776 824 q 728 818 742 824 q 693 794 715 813 q 551 665 626 739 q 414 515 476 590 q 411 507 411 513 q 421 490 411 500 l 757 132 q 829 62 806 78 q 910 33 853 46 q 945 22 935 28 q 956 8 956 17 q 915 -7 956 -7 q 815 -3 860 -7 q 722 0 760 0 l 683 0 q 610 -1 665 -1 q 569 14 569 -1 q 578 28 569 24 q 607 38 586 33 q 646 65 646 47 q 625 100 646 76 l 331 425 q 313 441 322 433 q 299 449 304 449 q 293 429 293 449 q 300 153 293 344 q 322 72 303 103 q 389 33 340 42 q 424 24 413 29 q 435 8 435 18 q 394 -7 435 -7 q 314 -1 350 -7 q 258 3 289 3 q 210 1 235 3 q 175 -1 186 -1 q 83 -7 122 -7 z "},"Ɯ":{"ha":1451,"x_min":14,"x_max":1426,"o":"m 417 -18 q 205 70 275 -18 q 135 358 135 158 l 135 760 q 112 828 135 804 q 60 861 89 853 q 14 892 14 874 q 54 907 14 907 l 115 906 q 199 903 165 903 l 289 904 q 338 906 308 906 q 378 890 378 906 q 368 876 378 882 q 332 863 358 871 q 276 826 307 854 q 246 763 246 799 l 246 392 q 290 152 246 253 q 438 51 333 51 q 599 154 551 51 q 647 400 647 257 l 647 760 q 624 828 647 804 q 572 861 601 853 q 526 892 526 874 q 567 907 526 907 l 628 906 q 711 903 678 903 l 801 904 q 850 906 821 906 q 890 890 890 906 q 881 876 890 882 q 844 863 871 871 q 789 826 819 854 q 758 763 758 799 l 758 369 q 806 147 758 243 q 951 51 853 51 q 1113 160 1064 51 q 1161 418 1161 268 l 1161 764 q 1135 831 1160 811 q 1069 863 1111 851 q 1024 890 1024 875 q 1064 906 1024 906 l 1172 904 q 1278 907 1214 904 q 1386 910 1344 910 q 1426 894 1426 910 q 1415 879 1426 885 q 1381 869 1404 874 q 1299 837 1325 860 q 1272 767 1272 814 l 1272 139 q 1292 69 1272 90 q 1365 39 1313 49 q 1411 11 1411 31 q 1371 -4 1411 -4 q 1297 -1 1328 -4 l 1263 0 q 1204 -6 1240 0 q 1168 -8 1176 -8 q 1157 -3 1161 -8 q 1153 11 1153 1 q 1157 30 1153 17 q 1161 56 1161 43 l 1161 88 q 1149 111 1161 111 q 1137 107 1142 111 q 1128 97 1132 103 q 1040 11 1088 40 q 931 -18 993 -18 q 794 10 847 -18 q 719 69 742 39 q 674 140 697 99 q 665 150 669 150 q 653 139 660 150 q 550 22 604 61 q 417 -18 496 -18 z "},"Ɲ":{"ha":1069,"x_min":-100,"x_max":1056,"o":"m 43 -278 q -60 -260 -21 -278 q -100 -219 -100 -243 q -84 -167 -100 -192 q -50 -143 -68 -143 q -8 -151 -24 -143 q 19 -179 7 -160 q 50 -210 35 -201 q 85 -219 65 -219 q 173 -80 146 -219 q 200 289 200 60 l 199 371 q 183 704 194 531 q 146 806 178 774 q 46 861 114 839 q 18 874 33 865 q 3 894 3 883 q 13 910 3 906 q 35 914 24 914 l 132 910 q 249 907 199 907 q 266 902 260 907 q 282 883 272 897 q 510 594 300 858 q 811 217 721 329 q 846 189 835 189 q 860 218 858 189 q 863 783 863 324 q 834 832 861 808 q 782 860 807 856 q 736 888 736 868 q 776 903 736 903 l 856 903 l 925 904 q 1015 907 969 907 q 1056 892 1056 907 q 1042 872 1056 882 q 1007 857 1029 861 q 943 831 963 849 q 922 779 924 814 q 921 610 921 721 q 919 392 921 499 l 918 175 l 919 11 q 890 -24 919 -24 q 842 -1 875 -24 q 778 64 808 22 q 567 326 763 86 q 283 672 371 565 q 254 694 265 694 q 244 685 247 694 q 242 665 242 676 l 246 536 q 254 250 254 344 q 210 -137 254 3 q 43 -278 165 -278 z "},"Ɵ":{"ha":1060,"x_min":63,"x_max":997,"o":"m 536 922 q 765 865 658 922 q 934 703 871 807 q 997 465 997 599 q 942 226 997 338 q 779 48 886 115 q 524 -19 672 -19 q 295 38 401 -19 q 126 200 189 96 q 63 438 63 304 q 118 676 63 565 q 281 855 174 788 q 536 922 388 922 m 514 864 q 278 769 360 864 q 196 507 196 674 l 196 492 l 858 492 q 749 761 838 658 q 514 864 660 864 m 544 36 q 782 133 700 36 q 864 397 864 229 q 863 438 864 424 l 199 438 q 303 148 214 260 q 544 36 392 36 z "},"Ƣ":{"ha":1264,"x_min":63,"x_max":1250,"o":"m 1204 -350 q 1239 -360 1228 -354 q 1250 -375 1250 -365 q 1210 -390 1250 -390 q 1121 -386 1158 -390 q 1047 -383 1076 -383 q 963 -386 1013 -383 q 869 -390 921 -390 q 829 -375 829 -390 q 840 -360 829 -365 q 875 -350 851 -354 q 957 -317 931 -340 q 983 -247 983 -294 l 983 644 q 938 808 983 750 q 811 869 892 867 q 694 847 744 872 q 824 688 776 788 q 872 464 872 588 q 824 226 872 336 q 683 48 776 115 q 463 -19 590 -19 q 265 38 357 -19 q 117 200 172 96 q 63 438 63 304 q 110 676 63 565 q 251 853 158 786 q 472 921 344 921 q 649 876 567 921 q 810 921 722 921 q 1093 632 1093 921 l 1094 -247 q 1122 -317 1094 -294 q 1204 -350 1149 -340 m 493 42 q 678 135 618 42 q 739 397 739 228 q 705 636 739 532 q 606 799 671 740 q 453 857 542 857 q 260 766 324 857 q 196 506 196 675 q 231 271 196 376 q 334 103 267 165 q 493 42 401 42 z "},"Ƥ":{"ha":868,"x_min":21,"x_max":833,"o":"m 176 -7 q 136 8 136 -7 q 147 24 136 18 q 182 33 158 29 q 260 66 236 43 q 283 139 283 89 l 283 772 q 275 844 283 826 q 236 863 267 863 q 128 844 171 863 q 86 782 86 825 q 97 753 86 765 q 128 722 107 740 q 160 681 160 696 q 135 641 160 661 q 96 621 111 621 q 45 656 69 621 q 21 722 21 692 q 81 859 21 813 q 297 906 142 906 q 385 908 326 906 q 474 913 429 913 q 732 844 631 913 q 833 644 833 775 q 759 426 833 499 q 531 353 685 353 q 484 358 507 353 q 461 374 461 363 q 467 384 461 379 q 481 389 474 389 q 511 388 489 388 q 714 635 714 388 q 647 808 714 749 q 483 868 581 868 q 417 856 440 868 q 394 814 394 843 l 394 154 q 416 72 394 101 q 488 33 438 43 q 522 24 511 29 q 533 8 533 18 q 493 -7 533 -7 q 413 -1 449 -7 q 357 3 388 3 q 306 1 332 3 q 269 -1 281 -1 q 176 -7 214 -7 z "},"Ʀ":{"ha":875,"x_min":26,"x_max":975,"o":"m 863 -172 q 760 -156 800 -172 q 686 -97 721 -140 q 575 58 653 -56 q 532 121 560 81 q 482 192 504 161 q 455 224 468 211 q 422 246 442 236 q 313 276 372 269 l 310 276 q 292 249 292 276 l 292 136 q 319 66 292 89 q 401 33 346 43 q 436 24 425 29 q 447 8 447 18 q 407 -7 447 -7 q 318 -3 356 -7 q 244 0 274 0 q 160 -3 210 0 q 67 -7 118 -7 q 26 8 26 -7 q 38 24 26 18 q 72 33 49 29 q 154 66 128 43 q 181 136 181 89 l 181 764 q 160 833 181 813 q 88 864 140 854 q 42 892 42 872 q 82 907 42 907 q 171 904 121 907 l 244 903 l 311 904 q 396 907 356 907 q 436 892 436 907 q 390 864 436 872 q 315 830 339 854 q 292 764 292 806 q 294 763 292 763 q 317 766 297 763 q 386 769 336 769 q 617 710 538 769 q 697 536 697 650 q 649 401 697 467 q 535 303 600 335 q 529 299 529 301 q 535 290 529 296 q 640 142 565 257 q 726 16 690 65 q 794 -62 763 -33 q 863 -100 828 -92 q 954 -108 897 -108 q 975 -124 975 -108 q 938 -161 975 -150 q 863 -172 901 -172 m 365 314 q 517 374 461 314 q 572 536 572 433 q 532 671 572 614 q 386 728 492 728 q 313 708 333 728 q 292 653 292 688 l 292 363 q 309 323 292 332 q 365 314 326 314 z "},"Ƨ":{"ha":646,"x_min":60,"x_max":590,"o":"m 363 -22 q 558 44 479 -22 q 576 72 574 60 q 589 188 582 97 l 590 218 q 583 233 590 228 q 563 238 575 238 q 540 222 544 238 q 462 72 515 121 q 343 24 408 24 q 224 70 271 24 q 176 193 176 117 q 194 283 176 247 q 242 342 211 318 q 333 404 272 367 l 361 421 q 468 493 429 463 q 535 568 507 524 q 563 669 563 613 q 488 851 563 781 q 272 922 413 922 q 126 892 201 922 q 108 878 117 888 q 97 857 100 868 q 76 778 83 808 q 69 719 69 749 q 90 704 69 704 q 115 710 103 704 q 129 724 126 715 q 199 838 160 800 q 296 875 239 875 q 410 837 365 875 q 456 717 456 799 q 431 644 456 678 q 367 583 406 611 q 261 514 329 556 q 156 442 196 474 q 88 363 115 410 q 60 250 60 315 q 143 52 60 126 q 363 -22 226 -22 z "},"Ʃ":{"ha":838,"x_min":35,"x_max":825,"o":"m 64 -8 q 44 -3 53 -8 q 35 13 35 3 q 236 215 35 19 q 456 433 406 379 q 454 449 461 440 q 197 701 356 538 q 39 876 39 864 q 46 895 39 889 q 61 901 53 901 q 392 897 215 897 q 607 899 531 897 q 701 924 665 899 q 724 936 711 931 q 743 942 738 942 q 764 918 763 942 q 782 789 771 849 q 788 749 782 786 q 790 718 790 729 q 776 696 790 696 q 760 704 765 696 q 752 724 756 713 q 746 740 749 735 q 697 815 724 793 q 619 839 671 836 q 438 849 561 843 q 250 854 315 854 q 224 844 224 854 q 229 832 224 840 q 374 681 265 786 q 569 507 483 575 q 578 493 578 499 q 568 476 578 486 l 211 128 q 206 117 206 122 q 222 104 206 107 q 619 97 306 97 q 708 114 675 97 q 769 182 742 131 q 791 215 782 204 q 813 226 800 226 q 822 223 818 226 q 825 214 825 219 l 824 208 q 789 101 806 157 q 767 17 772 44 q 760 -1 764 4 q 747 -7 757 -7 q 690 -3 718 -7 q 636 0 654 0 q 382 1 547 1 q 219 0 269 1 q 174 -2 194 0 q 144 -4 153 -4 q 64 -8 110 -8 z "},"Ƭ":{"ha":944,"x_min":21,"x_max":942,"o":"m 307 -7 q 267 8 267 -7 q 278 24 267 18 q 313 33 289 29 q 394 68 367 43 q 421 142 421 93 l 421 781 q 396 840 421 836 q 336 846 382 843 l 306 846 l 236 847 q 128 831 171 849 q 86 769 86 813 q 97 740 86 753 q 128 710 107 728 q 160 668 160 683 q 135 628 160 649 q 96 608 111 608 q 45 644 69 608 q 21 710 21 679 q 81 847 21 800 q 297 893 142 893 l 782 892 q 863 911 835 892 q 890 935 878 922 q 912 953 901 944 q 932 961 922 961 q 939 951 936 961 q 942 929 942 940 l 940 917 q 918 779 918 825 l 918 763 q 912 733 918 749 q 896 718 906 718 q 881 731 886 718 q 869 775 875 744 q 742 847 857 847 q 554 842 588 847 q 532 782 532 839 l 532 142 q 560 68 532 93 q 642 33 588 43 q 676 24 665 29 q 688 8 688 18 q 647 -7 688 -7 q 558 -3 596 -7 q 485 0 514 0 q 400 -3 450 0 q 307 -7 358 -7 z "},"Ʈ":{"ha":935,"x_min":38,"x_max":932,"o":"m 656 -278 q 533 -240 589 -278 q 444 -137 476 -201 q 411 0 411 -74 l 411 681 q 405 806 411 774 q 382 842 399 839 q 340 847 364 846 q 283 847 315 847 l 218 847 q 150 833 182 847 q 104 793 118 819 q 78 758 96 776 q 47 740 61 740 q 38 758 38 740 q 44 786 38 772 q 72 855 64 824 q 88 932 81 886 q 111 964 92 964 q 127 949 115 964 q 146 919 139 933 q 183 899 154 906 q 243 892 211 892 l 772 892 q 853 911 825 892 q 881 935 868 922 q 902 953 892 944 q 922 961 913 961 q 929 951 926 961 q 932 929 932 940 l 931 917 q 908 788 908 825 l 908 771 q 902 742 908 757 q 886 726 896 726 q 871 740 876 726 q 860 783 865 753 q 825 831 854 814 q 732 847 796 847 l 592 847 q 544 839 557 847 q 526 799 531 831 q 522 688 522 768 l 522 -1 q 614 -221 522 -221 q 660 -209 640 -221 q 704 -165 681 -197 q 753 -129 729 -129 q 794 -150 775 -129 q 813 -199 813 -171 q 792 -233 813 -214 q 736 -265 772 -251 q 656 -278 700 -278 z "},"Ʊ":{"ha":1054,"x_min":56,"x_max":1104,"o":"m 1026 908 q 1038 904 1035 908 q 1043 894 1042 900 q 1046 885 1044 888 l 1065 835 q 1086 781 1068 828 q 1104 715 1104 735 q 1101 706 1104 710 q 1092 703 1097 703 q 1069 713 1079 703 q 1049 744 1060 724 q 992 792 1028 781 q 899 804 957 804 l 788 801 q 778 799 781 801 q 774 789 775 796 q 951 641 883 739 q 1019 422 1019 543 q 959 199 1019 301 q 797 38 899 97 q 574 -21 694 -21 q 364 35 463 -21 q 205 187 265 92 q 144 394 144 282 q 212 624 144 519 q 388 783 279 728 q 398 794 393 786 q 399 804 403 803 l 265 804 q 111 731 153 806 q 90 699 100 710 q 68 689 81 689 q 59 692 63 689 q 56 701 56 696 q 70 753 56 715 q 88 799 85 792 q 118 885 113 858 q 124 903 121 897 q 138 908 128 908 q 194 904 167 908 q 249 901 231 901 l 354 900 l 404 900 q 492 901 424 901 q 503 886 503 901 q 490 836 503 864 q 460 794 478 808 q 336 643 389 742 q 283 440 283 544 q 322 247 283 343 q 431 88 360 150 q 592 25 501 25 q 742 77 676 25 q 844 211 808 129 q 881 378 881 293 q 833 624 881 511 q 696 803 785 738 q 661 886 671 821 l 661 889 q 672 901 661 901 q 760 900 739 901 l 811 900 l 915 901 q 969 904 933 901 q 1026 908 996 908 z "},"Ʋ":{"ha":1026,"x_min":33,"x_max":950,"o":"m 464 -19 q 286 30 358 -19 q 178 155 214 79 q 143 308 143 231 l 143 760 q 125 830 143 806 q 79 861 107 854 q 33 892 33 874 q 74 907 33 907 l 133 906 q 207 903 178 903 l 274 904 q 318 906 290 906 q 358 890 358 906 q 349 876 358 882 q 313 863 339 871 q 274 828 293 857 q 254 763 254 800 l 254 351 q 320 123 254 203 q 511 43 386 43 q 675 97 603 43 q 789 263 747 150 q 831 543 831 375 q 656 881 831 881 q 624 869 639 881 q 594 836 610 857 q 579 815 590 831 q 558 791 568 799 q 539 783 549 783 q 503 798 518 783 q 488 833 488 813 q 533 899 488 876 q 644 921 578 921 q 816 872 747 921 q 917 744 885 822 q 950 575 950 665 q 888 267 950 403 q 716 56 826 132 q 464 -19 606 -19 z "},"Ƴ":{"ha":885,"x_min":0,"x_max":942,"o":"m 253 -7 q 213 8 213 -7 q 224 24 213 18 q 258 33 235 29 q 367 150 367 53 l 367 356 q 355 409 367 379 q 332 458 343 439 l 169 725 q 46 861 93 847 q 11 876 22 869 q 0 892 0 883 q 40 907 0 907 l 104 906 q 203 903 165 903 l 269 904 q 314 906 286 906 q 354 890 354 906 q 308 863 354 874 q 274 849 285 857 q 264 828 264 842 q 282 778 264 810 l 410 549 q 433 510 424 525 q 449 496 443 496 q 494 549 469 496 q 603 756 563 686 q 699 870 644 825 q 826 915 754 915 q 913 887 883 915 q 942 815 942 858 q 922 764 942 786 q 874 742 903 742 q 831 751 846 742 q 803 782 817 760 q 777 816 788 807 q 747 825 767 825 q 688 790 719 825 q 618 683 657 754 q 513 481 579 613 q 483 415 489 435 q 478 356 478 396 l 478 150 q 506 73 478 103 q 588 33 535 43 q 622 24 611 29 q 633 8 633 18 q 593 -7 633 -7 q 504 -3 542 -7 q 431 0 460 0 q 346 -3 396 0 q 253 -7 304 -7 z "},"Ƶ":{"ha":838,"x_min":39,"x_max":817,"o":"m 804 238 q 817 219 817 238 q 797 124 817 207 q 765 17 776 40 q 755 -1 760 4 q 740 -7 750 -7 q 504 -4 651 -7 l 321 -3 l 156 -4 l 49 -4 q 41 4 43 -4 q 39 15 39 13 q 65 66 39 25 q 119 144 92 107 l 336 440 l 183 440 q 169 449 175 440 q 164 465 164 457 q 174 483 164 475 q 197 490 185 490 l 372 490 q 603 824 503 672 q 608 835 608 832 q 582 846 608 844 q 379 849 482 849 q 238 846 272 849 q 158 816 199 842 q 101 743 118 790 q 85 711 93 724 q 63 699 76 699 q 50 714 50 699 q 60 751 50 725 q 97 915 93 850 q 118 939 99 939 q 138 931 122 939 q 161 919 153 924 q 213 905 178 913 q 281 897 249 897 l 456 897 q 776 901 622 897 q 790 892 783 901 q 792 876 796 882 l 707 764 l 633 665 l 506 490 l 668 490 q 681 485 675 490 q 688 475 688 481 l 686 471 q 643 440 669 440 l 469 440 q 238 97 358 285 q 233 81 233 92 q 238 65 233 72 q 249 57 242 58 q 406 50 315 50 q 601 57 493 50 q 704 99 663 63 q 774 208 746 136 q 786 228 778 218 q 804 238 794 238 z "},"Ʒ":{"ha":715,"x_min":56,"x_max":646,"o":"m 286 -19 q 197 -9 235 -19 q 118 21 160 1 q 88 42 101 28 q 71 72 74 56 q 63 128 69 79 q 56 221 56 176 q 64 235 56 229 q 83 242 72 242 q 117 181 92 242 q 199 66 146 108 q 310 24 251 24 q 467 94 413 24 q 521 263 521 164 q 498 367 521 317 q 433 449 475 418 q 336 481 390 481 q 319 480 325 481 q 304 479 313 479 q 281 484 289 479 q 272 501 272 489 q 276 520 272 514 q 296 549 279 526 l 500 808 q 508 817 503 811 q 514 835 514 824 q 472 851 514 851 l 242 851 q 166 829 203 851 q 113 760 129 807 q 96 728 104 740 q 74 715 88 715 q 61 731 61 715 q 71 768 61 742 q 104 906 103 864 q 125 929 106 929 q 160 910 136 929 q 231 903 169 903 l 561 903 q 597 905 578 903 q 625 907 615 907 q 634 894 631 907 q 633 876 638 882 l 382 546 q 378 535 378 540 q 383 531 378 531 q 514 502 454 531 q 610 418 574 474 q 646 285 646 363 q 593 116 646 185 q 458 14 540 47 q 286 -19 375 -19 z "},"Ƹ":{"ha":664,"x_min":49,"x_max":650,"o":"m 357 -19 q 210 12 282 -19 q 94 101 139 43 q 49 235 49 158 q 107 408 49 343 q 242 499 165 474 l 269 506 q 297 513 285 508 q 310 522 310 517 q 303 533 310 524 l 89 842 q 64 886 64 875 q 77 906 64 897 q 97 914 90 914 q 174 907 97 914 l 218 903 l 451 903 q 512 905 475 903 q 553 910 549 907 q 588 929 578 929 q 608 906 606 929 l 632 751 q 635 721 635 732 q 621 699 635 699 q 603 708 610 699 q 594 728 597 718 q 590 743 592 739 q 485 856 553 856 l 251 856 q 219 847 219 856 q 253 790 219 835 l 414 572 q 447 525 442 535 q 453 501 453 515 q 433 477 453 483 q 383 471 414 471 l 350 472 q 228 413 271 472 q 185 267 185 354 q 213 152 185 207 q 289 63 240 97 q 397 29 338 29 q 513 60 465 29 q 589 161 561 90 q 622 222 614 222 q 642 216 633 222 q 650 201 650 210 q 640 103 650 171 q 635 72 638 92 q 618 42 632 56 q 588 21 604 28 q 357 -19 501 -19 z "},"Ƽ":{"ha":789,"x_min":28,"x_max":651,"o":"m 313 -19 q 231 -10 263 -19 q 154 21 199 0 q 124 42 138 28 q 107 72 110 56 q 99 128 106 79 q 92 221 92 176 q 100 235 92 229 q 119 242 108 242 q 153 181 128 242 q 231 65 182 107 q 336 24 279 24 q 477 97 436 24 q 518 278 518 171 q 465 438 518 376 q 314 499 411 499 q 169 469 253 499 q 142 461 149 461 q 128 469 131 461 q 125 485 125 476 q 125 497 125 494 l 156 764 q 157 786 157 772 q 139 839 157 822 q 74 864 121 856 q 28 892 28 872 q 68 907 28 907 q 157 904 107 907 l 231 903 l 536 903 q 563 906 544 903 q 590 910 582 910 q 601 903 597 910 q 604 890 604 896 q 607 846 606 864 q 610 814 608 828 q 615 750 615 772 q 608 728 615 736 q 596 719 601 719 q 575 731 585 719 q 563 760 565 742 q 533 835 553 813 q 464 858 513 858 l 339 858 q 284 847 300 858 q 265 810 268 835 l 239 542 q 288 551 267 549 q 353 554 310 554 q 508 520 440 554 q 614 430 576 486 q 651 307 651 374 q 603 131 651 206 q 478 19 556 57 q 313 -19 400 -19 z "},"Ǆ":{"ha":1885,"x_min":40,"x_max":1864,"o":"m 451 -7 q 226 0 299 0 q 164 -3 203 0 q 81 -7 133 -7 q 40 11 40 -7 q 49 25 40 22 q 86 33 57 28 q 159 65 139 43 q 179 138 179 88 l 179 763 q 159 833 179 811 q 86 864 139 854 q 50 873 60 868 q 40 889 40 878 q 81 907 40 907 l 160 906 q 235 904 181 904 q 378 911 292 904 q 431 914 407 913 q 472 915 456 915 q 771 858 653 915 q 944 701 889 800 q 999 475 999 601 q 933 233 999 344 q 757 56 868 121 q 515 -10 646 -10 l 451 -7 m 499 39 q 690 92 606 39 q 820 238 774 144 q 867 451 867 332 q 811 675 867 579 q 666 822 756 771 q 479 872 576 872 q 369 868 406 872 q 311 846 332 864 q 290 788 290 828 l 290 168 q 347 65 290 92 q 499 39 403 39 m 1788 -7 q 1551 -4 1699 -7 l 1368 -3 l 1203 -4 l 1096 -4 q 1088 4 1090 -4 q 1086 15 1086 13 q 1113 66 1086 25 q 1167 144 1139 107 q 1254 264 1189 176 q 1466 556 1383 440 q 1650 824 1549 672 q 1656 835 1656 832 q 1629 846 1656 844 q 1426 849 1529 849 q 1285 846 1319 849 q 1206 816 1246 842 q 1149 743 1165 790 q 1132 711 1140 724 q 1110 699 1124 699 q 1097 714 1097 699 q 1107 751 1097 725 q 1144 915 1140 850 q 1165 939 1146 939 q 1185 931 1169 939 q 1208 919 1200 924 q 1260 905 1225 913 q 1328 897 1296 897 l 1503 897 q 1824 901 1669 897 q 1837 892 1831 901 q 1839 876 1843 882 l 1754 764 q 1492 405 1582 531 q 1285 97 1403 279 q 1281 81 1281 92 q 1285 65 1281 72 q 1296 57 1289 58 q 1453 50 1363 50 q 1649 57 1540 50 q 1751 99 1710 63 q 1821 208 1793 136 q 1833 228 1825 218 q 1851 238 1842 238 q 1864 219 1864 238 q 1844 124 1864 207 q 1813 17 1824 40 q 1802 -1 1807 4 q 1788 -7 1797 -7 m 1304 1142 q 1378 1113 1317 1142 q 1472 1065 1440 1083 q 1486 1060 1483 1060 q 1500 1065 1489 1060 q 1594 1114 1533 1085 q 1668 1143 1656 1143 q 1683 1139 1678 1143 q 1688 1128 1688 1135 q 1679 1111 1688 1118 l 1543 1003 q 1509 978 1518 983 q 1486 972 1500 972 q 1463 978 1472 972 q 1429 1003 1454 983 l 1293 1111 q 1283 1128 1283 1119 q 1289 1138 1283 1135 q 1304 1142 1294 1142 z "},"ǅ":{"ha":1571,"x_min":40,"x_max":1567,"o":"m 451 -7 q 226 0 299 0 q 164 -3 203 0 q 81 -7 133 -7 q 40 11 40 -7 q 49 25 40 22 q 86 33 57 28 q 159 65 139 43 q 179 138 179 88 l 179 763 q 159 833 179 811 q 86 864 139 854 q 50 873 60 868 q 40 889 40 878 q 81 907 40 907 l 160 906 q 235 904 181 904 q 378 911 292 904 q 431 914 407 913 q 472 915 456 915 q 771 858 653 915 q 944 701 889 800 q 999 475 999 601 q 933 233 999 344 q 757 56 868 121 q 515 -10 646 -10 l 451 -7 m 499 39 q 690 92 606 39 q 820 238 774 144 q 867 451 867 332 q 811 675 867 579 q 666 822 756 771 q 479 872 576 872 q 369 868 406 872 q 311 846 332 864 q 290 788 290 828 l 290 168 q 347 65 290 92 q 499 39 403 39 m 1101 -7 q 1089 2 1096 -7 q 1082 17 1082 11 q 1099 48 1082 21 q 1133 97 1117 75 q 1399 497 1271 294 l 1401 504 q 1386 511 1401 511 l 1249 515 q 1215 508 1231 517 q 1188 489 1199 500 q 1147 438 1175 476 q 1126 408 1126 408 q 1114 404 1122 404 q 1099 409 1104 404 q 1096 422 1093 414 q 1113 488 1104 446 q 1122 553 1122 529 q 1130 570 1122 563 q 1143 578 1138 578 q 1164 565 1149 578 q 1224 557 1174 557 l 1276 558 q 1535 563 1408 558 q 1544 556 1540 563 q 1544 546 1547 550 q 1492 476 1508 501 l 1221 67 q 1218 57 1218 63 q 1222 49 1218 51 q 1233 46 1226 46 l 1397 46 q 1460 78 1428 46 q 1536 179 1481 99 q 1549 186 1540 186 q 1561 181 1556 186 q 1567 169 1567 176 q 1551 103 1567 163 q 1525 13 1535 44 q 1503 -7 1521 -7 l 1442 -6 q 1213 0 1336 0 q 1144 -4 1207 0 l 1101 -7 m 1326 632 q 1299 657 1314 632 q 1224 784 1272 699 q 1176 882 1176 869 q 1178 897 1176 893 q 1189 900 1181 900 q 1231 869 1203 900 q 1322 751 1264 832 q 1327 747 1325 747 q 1332 751 1329 747 q 1424 869 1390 832 q 1464 900 1451 900 q 1474 897 1472 900 q 1476 882 1476 893 q 1428 784 1476 869 q 1354 657 1381 699 q 1326 632 1339 632 z "},"Ǉ":{"ha":1283,"x_min":38,"x_max":1228,"o":"m 76 -7 q 48 -2 58 -7 q 38 10 38 3 q 68 33 38 26 q 153 67 125 44 q 181 133 181 89 l 181 778 q 174 827 181 811 q 151 850 167 843 q 96 864 135 857 q 50 892 50 872 q 90 907 50 907 q 176 904 132 907 l 246 903 l 329 904 q 421 907 382 907 q 461 892 461 907 q 415 864 461 872 q 321 838 350 851 q 292 788 292 824 l 292 133 q 313 68 292 88 q 399 49 333 49 l 571 49 q 635 60 606 49 q 679 85 664 71 q 720 127 707 108 q 751 183 733 146 q 765 211 757 197 q 782 225 774 225 q 794 217 790 225 q 799 200 799 210 l 797 193 q 772 91 779 126 q 760 17 764 56 q 740 -7 757 -7 q 467 -3 592 -7 q 264 0 325 0 q 158 -3 221 0 q 76 -7 96 -6 m 858 -278 q 752 -260 789 -278 q 715 -210 715 -243 q 734 -166 715 -187 q 769 -144 753 -144 q 835 -179 808 -144 q 867 -211 853 -201 q 900 -221 882 -221 q 992 -1 992 -221 l 992 765 q 972 833 992 813 q 900 864 951 854 q 854 892 854 872 q 894 907 854 907 q 983 904 933 907 l 1057 903 l 1108 904 q 1188 907 1144 907 q 1228 892 1228 907 q 1182 864 1228 872 q 1117 835 1132 854 q 1103 765 1103 815 l 1103 65 q 1070 -82 1103 -12 q 993 -203 1038 -151 q 858 -278 929 -278 z "},"ǈ":{"ha":1111,"x_min":38,"x_max":1029,"o":"m 76 -7 q 48 -2 58 -7 q 38 10 38 3 q 68 33 38 26 q 153 67 125 44 q 181 133 181 89 l 181 778 q 174 827 181 811 q 151 850 167 843 q 96 864 135 857 q 50 892 50 872 q 90 907 50 907 q 176 904 132 907 l 246 903 l 329 904 q 421 907 382 907 q 461 892 461 907 q 415 864 461 872 q 321 838 350 851 q 292 788 292 824 l 292 133 q 313 68 292 88 q 399 49 333 49 l 571 49 q 635 60 606 49 q 679 85 664 71 q 720 127 707 108 q 751 183 733 146 q 765 211 757 197 q 782 225 774 225 q 794 217 790 225 q 799 200 799 210 l 797 193 q 772 91 779 126 q 760 17 764 56 q 740 -7 757 -7 q 467 -3 592 -7 q 264 0 325 0 q 158 -3 221 0 q 76 -7 96 -6 m 799 -399 q 779 -395 789 -399 q 769 -385 769 -392 q 775 -371 769 -378 q 785 -361 781 -364 q 876 -274 842 -347 q 921 96 921 -181 l 921 388 q 857 489 921 476 q 849 495 851 490 q 846 507 846 500 q 849 517 846 513 q 856 524 851 522 q 926 549 896 533 q 976 578 957 565 q 1000 593 994 590 q 1018 603 1017 603 q 1028 596 1028 603 q 1018 382 1018 496 l 1018 126 q 1010 -53 1018 31 q 976 -211 1003 -137 q 928 -301 960 -257 q 861 -372 896 -344 q 799 -399 826 -399 m 958 717 q 909 737 929 717 q 889 786 889 757 q 909 837 889 817 q 958 857 929 857 q 1009 837 989 857 q 1029 786 1029 817 q 1009 737 1029 757 q 958 717 989 717 z "},"Ǌ":{"ha":1572,"x_min":17,"x_max":1517,"o":"m 928 -24 q 874 0 911 -24 q 808 64 838 24 q 647 258 797 81 q 428 518 496 436 q 297 672 317 649 q 268 694 279 694 q 258 685 261 694 q 256 665 256 676 q 249 144 249 322 q 338 33 249 50 q 372 24 361 29 q 383 8 383 18 q 343 -7 383 -7 q 264 -3 292 -7 q 213 0 236 0 q 164 -3 192 0 q 86 -7 110 -7 q 46 8 46 -7 q 56 22 46 17 q 92 35 67 28 q 172 149 163 54 q 190 392 182 239 q 197 704 197 546 q 163 806 197 772 q 60 861 129 839 q 32 874 47 865 q 17 894 17 883 q 27 910 17 906 q 49 914 38 914 l 146 910 q 263 907 213 907 q 280 902 274 907 q 296 883 286 897 q 531 594 313 860 q 842 217 749 329 q 876 189 865 189 q 890 218 889 189 q 893 783 893 324 q 865 832 892 808 q 813 860 838 856 q 750 888 750 871 q 768 899 750 894 q 807 903 786 903 l 886 903 l 956 904 q 1046 907 1000 907 q 1086 892 1086 907 q 1040 864 1086 872 q 972 839 989 854 q 953 789 956 824 q 950 146 950 739 q 956 40 950 90 l 957 11 q 928 -24 957 -24 m 1147 -278 q 1041 -260 1078 -278 q 1004 -210 1004 -243 q 1023 -166 1004 -187 q 1058 -144 1042 -144 q 1124 -179 1097 -144 q 1156 -211 1142 -201 q 1189 -221 1171 -221 q 1281 -1 1281 -221 l 1281 765 q 1260 833 1281 813 q 1189 864 1240 854 q 1143 892 1143 872 q 1183 907 1143 907 q 1272 904 1222 907 l 1346 903 l 1397 904 q 1476 907 1433 907 q 1517 892 1517 907 q 1471 864 1517 872 q 1406 835 1421 854 q 1392 765 1392 815 l 1392 65 q 1359 -82 1392 -12 q 1282 -203 1326 -151 q 1147 -278 1218 -278 z "},"ǋ":{"ha":1414,"x_min":17,"x_max":1332,"o":"m 928 -24 q 874 0 911 -24 q 808 64 838 24 q 647 258 797 81 q 428 518 496 436 q 297 672 317 649 q 268 694 279 694 q 258 685 261 694 q 256 665 256 676 q 249 144 249 322 q 338 33 249 50 q 372 24 361 29 q 383 8 383 18 q 343 -7 383 -7 q 264 -3 292 -7 q 213 0 236 0 q 164 -3 192 0 q 86 -7 110 -7 q 46 8 46 -7 q 56 22 46 17 q 92 35 67 28 q 172 149 163 54 q 190 392 182 239 q 197 704 197 546 q 163 806 197 772 q 60 861 129 839 q 32 874 47 865 q 17 894 17 883 q 27 910 17 906 q 49 914 38 914 l 146 910 q 263 907 213 907 q 280 902 274 907 q 296 883 286 897 q 531 594 313 860 q 842 217 749 329 q 876 189 865 189 q 890 218 889 189 q 893 783 893 324 q 865 832 892 808 q 813 860 838 856 q 750 888 750 871 q 768 899 750 894 q 807 903 786 903 l 886 903 l 956 904 q 1046 907 1000 907 q 1086 892 1086 907 q 1040 864 1086 872 q 972 839 989 854 q 953 789 956 824 q 950 146 950 739 q 956 40 950 90 l 957 11 q 928 -24 957 -24 m 1101 -399 q 1082 -395 1092 -399 q 1072 -385 1072 -392 q 1078 -371 1072 -378 q 1088 -361 1083 -364 q 1179 -274 1144 -347 q 1224 96 1224 -181 l 1224 388 q 1160 489 1224 476 q 1151 495 1154 490 q 1149 507 1149 500 q 1151 517 1149 513 q 1158 524 1154 522 q 1229 549 1199 533 q 1278 578 1260 565 q 1303 593 1297 590 q 1321 603 1319 603 q 1331 596 1331 603 q 1321 382 1321 496 l 1321 126 q 1313 -53 1321 31 q 1279 -211 1306 -137 q 1231 -301 1263 -257 q 1164 -372 1199 -344 q 1101 -399 1129 -399 m 1261 717 q 1212 737 1232 717 q 1192 786 1192 757 q 1212 837 1192 817 q 1261 857 1232 857 q 1312 837 1292 857 q 1332 786 1332 817 q 1312 737 1332 757 q 1261 717 1292 717 z "},"Ǎ":{"ha":961,"x_min":-3,"x_max":968,"o":"m 38 -7 q 8 -2 19 -7 q -3 11 -3 3 q 43 43 -3 29 q 113 78 83 56 q 163 150 142 101 q 291 458 236 319 q 422 803 346 596 q 442 883 438 846 q 462 890 446 885 q 492 904 478 894 q 509 929 503 913 q 518 951 515 946 q 522 952 519 953 q 525 950 524 951 q 530 935 528 943 q 535 919 532 926 q 782 178 638 596 q 840 74 808 101 q 922 39 872 47 q 956 26 944 35 q 968 7 968 17 q 928 -7 968 -7 l 853 -4 q 735 1 775 1 l 589 0 q 549 17 549 0 q 562 33 549 25 q 594 43 575 40 q 679 106 679 57 q 625 331 679 150 q 615 343 622 340 q 588 346 607 346 l 325 346 q 301 321 310 346 q 265 205 286 276 q 244 121 244 133 q 267 71 244 92 q 325 42 290 50 q 360 29 350 35 q 371 14 371 24 q 331 -1 371 -1 q 289 0 306 -1 l 204 1 q 152 -1 181 1 q 110 -3 124 -3 q 38 -7 71 -7 m 578 392 q 592 393 586 392 q 597 399 597 394 l 594 413 l 486 751 q 474 776 478 776 q 463 753 471 776 l 336 413 l 333 401 q 340 393 333 394 q 363 392 346 392 l 578 392 m 324 1142 q 398 1113 336 1142 q 492 1065 460 1083 q 506 1060 503 1060 q 519 1065 508 1060 q 614 1114 553 1085 q 688 1143 675 1143 q 702 1139 697 1143 q 707 1128 707 1135 q 699 1111 707 1118 l 563 1003 q 528 978 538 983 q 506 972 519 972 q 483 978 492 972 q 449 1003 474 983 l 313 1111 q 303 1128 303 1119 q 308 1138 303 1135 q 324 1142 314 1142 z "},"Ǐ":{"ha":472,"x_min":26,"x_max":447,"o":"m 67 -7 q 26 8 26 -7 q 38 24 26 18 q 72 33 49 29 q 154 66 128 43 q 181 136 181 89 l 181 764 q 160 833 181 813 q 88 864 140 854 q 42 892 42 872 q 82 907 42 907 q 171 904 121 907 l 244 903 l 311 904 q 396 907 356 907 q 436 892 436 907 q 390 864 436 872 q 314 833 336 854 q 292 764 292 811 l 292 136 q 319 66 292 89 q 401 33 346 43 q 436 24 425 29 q 447 8 447 18 q 407 -7 447 -7 q 318 -3 356 -7 q 244 0 274 0 q 160 -3 210 0 q 67 -7 118 -7 m 56 1142 q 130 1113 68 1142 q 224 1065 192 1083 q 238 1060 235 1060 q 251 1065 240 1060 q 346 1114 285 1085 q 419 1143 407 1143 q 434 1139 429 1143 q 439 1128 439 1135 q 431 1111 439 1118 l 294 1003 q 260 978 269 983 q 238 972 251 972 q 215 978 224 972 q 181 1003 206 983 l 44 1111 q 35 1128 35 1119 q 40 1138 35 1135 q 56 1142 46 1142 z "},"Ǒ":{"ha":1060,"x_min":63,"x_max":997,"o":"m 524 -19 q 295 38 401 -19 q 126 200 189 96 q 63 438 63 304 q 118 676 63 565 q 281 855 174 788 q 536 922 388 922 q 765 865 658 922 q 934 703 871 807 q 997 465 997 599 q 942 226 997 338 q 779 48 886 115 q 524 -19 672 -19 m 544 36 q 782 133 700 36 q 864 397 864 229 q 824 635 864 529 q 705 802 783 740 q 514 864 626 864 q 278 769 360 864 q 196 507 196 674 q 235 268 196 375 q 353 99 275 161 q 544 36 432 36 m 363 1142 q 437 1113 375 1142 q 531 1065 499 1083 q 544 1060 542 1060 q 558 1065 547 1060 q 653 1114 592 1085 q 726 1143 714 1143 q 741 1139 736 1143 q 746 1128 746 1135 q 738 1111 746 1118 l 601 1003 q 567 978 576 983 q 544 972 558 972 q 522 978 531 972 q 488 1003 513 983 l 351 1111 q 342 1128 342 1119 q 347 1138 342 1135 q 363 1142 353 1142 z "},"Ǔ":{"ha":1025,"x_min":33,"x_max":1011,"o":"m 517 -19 q 239 75 335 -19 q 143 333 143 169 l 143 760 q 125 830 143 806 q 79 861 107 854 q 33 892 33 874 q 74 907 33 907 l 133 906 q 207 903 178 903 l 274 904 q 318 906 290 906 q 358 890 358 906 q 349 876 358 882 q 313 863 339 871 q 274 828 293 857 q 254 763 254 800 l 254 372 q 333 131 254 211 q 546 50 413 50 q 753 147 685 50 q 822 411 822 243 q 817 710 822 496 q 801 810 815 768 q 760 861 788 853 q 714 889 714 874 q 754 904 714 904 l 858 903 q 924 906 885 903 l 971 907 q 1011 892 1011 907 q 965 864 1011 874 q 896 760 900 851 q 888 587 890 675 q 885 468 886 499 q 882 347 885 428 q 831 158 879 242 q 700 27 782 74 q 517 -19 618 -19 m 361 1142 q 435 1113 374 1142 q 529 1065 497 1083 q 543 1060 540 1060 q 557 1065 546 1060 q 651 1114 590 1085 q 725 1143 713 1143 q 740 1139 735 1143 q 744 1128 744 1135 q 736 1111 744 1118 l 600 1003 q 566 978 575 983 q 543 972 557 972 q 520 978 529 972 q 486 1003 511 983 l 350 1111 q 340 1128 340 1119 q 346 1138 340 1135 q 361 1142 351 1142 z "},"Ǖ":{"ha":1025,"x_min":33,"x_max":1011,"o":"m 517 -19 q 239 75 335 -19 q 143 333 143 169 l 143 760 q 125 830 143 806 q 79 861 107 854 q 33 892 33 874 q 74 907 33 907 l 133 906 q 207 903 178 903 l 274 904 q 318 906 290 906 q 358 890 358 906 q 349 876 358 882 q 313 863 339 871 q 274 828 293 857 q 254 763 254 800 l 254 372 q 333 131 254 211 q 546 50 413 50 q 753 147 685 50 q 822 411 822 243 q 817 710 822 496 q 801 810 815 768 q 760 861 788 853 q 714 889 714 874 q 754 904 714 904 l 858 903 q 924 906 885 903 l 971 907 q 1011 892 1011 907 q 965 864 1011 874 q 896 760 900 851 q 888 587 890 675 q 885 468 886 499 q 882 347 885 428 q 831 158 879 242 q 700 27 782 74 q 517 -19 618 -19 m 407 965 q 358 985 378 965 q 338 1035 338 1006 q 358 1084 338 1064 q 407 1104 378 1104 q 456 1084 436 1104 q 476 1035 476 1064 q 456 985 476 1006 q 407 965 436 965 m 678 965 q 628 985 649 965 q 608 1035 608 1006 q 628 1084 608 1064 q 678 1104 649 1104 q 727 1084 707 1104 q 747 1035 747 1064 q 727 985 747 1006 q 678 965 707 965 m 363 1167 q 349 1172 356 1167 q 343 1183 343 1178 q 351 1221 343 1200 q 376 1242 360 1242 l 742 1242 q 754 1236 749 1242 q 760 1225 760 1231 q 747 1185 760 1204 q 717 1167 733 1167 l 363 1167 z "},"Ǘ":{"ha":1025,"x_min":33,"x_max":1011,"o":"m 517 -19 q 239 75 335 -19 q 143 333 143 169 l 143 760 q 125 830 143 806 q 79 861 107 854 q 33 892 33 874 q 74 907 33 907 l 133 906 q 207 903 178 903 l 274 904 q 318 906 290 906 q 358 890 358 906 q 349 876 358 882 q 313 863 339 871 q 274 828 293 857 q 254 763 254 800 l 254 372 q 333 131 254 211 q 546 50 413 50 q 753 147 685 50 q 822 411 822 243 q 817 710 822 496 q 801 810 815 768 q 760 861 788 853 q 714 889 714 874 q 754 904 714 904 l 858 903 q 924 906 885 903 l 971 907 q 1011 892 1011 907 q 965 864 1011 874 q 896 760 900 851 q 888 587 890 675 q 885 468 886 499 q 882 347 885 428 q 831 158 879 242 q 700 27 782 74 q 517 -19 618 -19 m 407 965 q 358 985 378 965 q 338 1035 338 1006 q 358 1084 338 1064 q 407 1104 378 1104 q 456 1084 436 1104 q 476 1035 476 1064 q 456 985 476 1006 q 407 965 436 965 m 678 965 q 628 985 649 965 q 608 1035 608 1006 q 628 1084 608 1064 q 678 1104 649 1104 q 727 1084 707 1104 q 747 1035 747 1064 q 727 985 747 1006 q 678 965 707 965 m 431 1125 q 417 1128 422 1125 q 411 1136 411 1131 q 417 1150 411 1144 q 517 1220 436 1169 q 632 1285 597 1271 q 661 1293 651 1293 q 700 1267 683 1293 q 717 1224 717 1240 q 711 1211 717 1215 q 603 1172 689 1199 q 468 1132 518 1144 q 431 1125 440 1125 z "},"Ǚ":{"ha":1025,"x_min":33,"x_max":1011,"o":"m 517 -19 q 239 75 335 -19 q 143 333 143 169 l 143 760 q 125 830 143 806 q 79 861 107 854 q 33 892 33 874 q 74 907 33 907 l 133 906 q 207 903 178 903 l 274 904 q 318 906 290 906 q 358 890 358 906 q 349 876 358 882 q 313 863 339 871 q 274 828 293 857 q 254 763 254 800 l 254 372 q 333 131 254 211 q 546 50 413 50 q 753 147 685 50 q 822 411 822 243 q 817 710 822 496 q 801 810 815 768 q 760 861 788 853 q 714 889 714 874 q 754 904 714 904 l 858 903 q 924 906 885 903 l 971 907 q 1011 892 1011 907 q 965 864 1011 874 q 896 760 900 851 q 888 587 890 675 q 885 468 886 499 q 882 347 885 428 q 831 158 879 242 q 700 27 782 74 q 517 -19 618 -19 m 407 965 q 358 985 378 965 q 338 1035 338 1006 q 358 1084 338 1064 q 407 1104 378 1104 q 456 1084 436 1104 q 476 1035 476 1064 q 456 985 476 1006 q 407 965 436 965 m 678 965 q 628 985 649 965 q 608 1035 608 1006 q 628 1084 608 1064 q 678 1104 649 1104 q 727 1084 707 1104 q 747 1035 747 1064 q 727 985 747 1006 q 678 965 707 965 m 360 1288 q 434 1258 372 1288 q 528 1211 496 1229 q 542 1206 539 1206 q 556 1211 544 1206 q 650 1260 589 1231 q 724 1289 711 1289 q 738 1285 733 1289 q 743 1274 743 1281 q 735 1257 743 1264 l 599 1149 q 565 1124 574 1129 q 542 1118 556 1118 q 519 1124 528 1118 q 485 1149 510 1129 l 349 1257 q 339 1274 339 1265 q 344 1284 339 1281 q 360 1288 350 1288 z "},"Ǜ":{"ha":1025,"x_min":33,"x_max":1011,"o":"m 517 -19 q 239 75 335 -19 q 143 333 143 169 l 143 760 q 125 830 143 806 q 79 861 107 854 q 33 892 33 874 q 74 907 33 907 l 133 906 q 207 903 178 903 l 274 904 q 318 906 290 906 q 358 890 358 906 q 349 876 358 882 q 313 863 339 871 q 274 828 293 857 q 254 763 254 800 l 254 372 q 333 131 254 211 q 546 50 413 50 q 753 147 685 50 q 822 411 822 243 q 817 710 822 496 q 801 810 815 768 q 760 861 788 853 q 714 889 714 874 q 754 904 714 904 l 858 903 q 924 906 885 903 l 971 907 q 1011 892 1011 907 q 965 864 1011 874 q 896 760 900 851 q 888 587 890 675 q 885 468 886 499 q 882 347 885 428 q 831 158 879 242 q 700 27 782 74 q 517 -19 618 -19 m 407 965 q 358 985 378 965 q 338 1035 338 1006 q 358 1084 338 1064 q 407 1104 378 1104 q 456 1084 436 1104 q 476 1035 476 1064 q 456 985 476 1006 q 407 965 436 965 m 678 965 q 628 985 649 965 q 608 1035 608 1006 q 628 1084 608 1064 q 678 1104 649 1104 q 727 1084 707 1104 q 747 1035 747 1064 q 727 985 747 1006 q 678 965 707 965 m 588 1125 q 550 1132 578 1125 q 415 1172 500 1144 q 307 1211 329 1199 q 301 1224 301 1215 q 318 1267 301 1240 q 357 1293 335 1293 q 386 1285 367 1293 q 501 1220 421 1271 q 601 1150 582 1169 q 607 1136 607 1144 q 601 1128 607 1131 q 588 1125 596 1125 z "}}}
